<svg width="27" height="25" viewBox="0 0 27 25" fill="none" xmlns="http://www.w3.org/2000/svg">
<path d="M6.17661 0.5C5.14502 0.5 4.15412 0.902053 3.42467 1.61752C2.69522 2.33299 2.28531 3.30489 2.28531 4.31671C2.28531 5.32853 2.69522 6.29882 3.42467 7.01428C4.15412 7.72975 5.14502 8.13342 6.17661 8.13342C7.20821 8.13342 8.19745 7.72975 8.9269 7.01428C9.65635 6.29882 10.0663 5.32853 10.0663 4.31671C10.0663 3.30489 9.65635 2.33299 8.9269 1.61752C8.19745 0.902053 7.20821 0.5 6.17661 0.5ZM14.5841 1.99434C13.4621 1.99434 12.3849 2.4323 11.5914 3.21051C10.798 3.98872 10.3532 5.04365 10.3532 6.1442C10.3532 7.24476 10.798 8.3013 11.5914 9.07951C12.3849 9.85772 13.4621 10.2957 14.5841 10.2957C15.7062 10.2957 16.7834 9.85772 17.5768 9.07951C18.3702 8.3013 18.8167 7.24476 18.8167 6.1442C18.8167 5.04365 18.3702 3.98872 17.5768 3.21051C16.7834 2.4323 15.7062 1.99434 14.5841 1.99434ZM6.17661 2.15607C6.7613 2.15607 7.32134 2.38291 7.73478 2.78842C8.14821 3.19393 8.37949 3.74324 8.37949 4.31672C8.37949 4.8902 8.14822 5.43951 7.73478 5.84502C7.32134 6.25053 6.7613 6.47737 6.17661 6.47737C5.59193 6.47737 5.03188 6.25053 4.61845 5.84502C4.20501 5.43951 3.97209 4.8902 3.97209 4.31672C3.97209 3.74324 4.205 3.19393 4.61845 2.78842C5.03188 2.38291 5.59193 2.15607 6.17661 2.15607ZM14.5841 3.64879C15.2593 3.64879 15.9056 3.91152 16.383 4.37979C16.8604 4.84805 17.1283 5.48201 17.1283 6.14421C17.1283 6.80642 16.8604 7.442 16.383 7.91025C15.9056 8.3785 15.2593 8.64125 14.5841 8.64125C13.909 8.64125 13.2626 8.37852 12.7852 7.91025C12.3078 7.442 12.0399 6.80642 12.0399 6.14421C12.0399 5.48201 12.3078 4.84805 12.7852 4.37979C13.2626 3.91154 13.909 3.64879 14.5841 3.64879ZM6.17497 8.54906C2.76808 8.54906 7.78739e-08 11.2657 7.78739e-08 14.6073V15.5906C-4.75543e-05 15.6993 0.0217562 15.807 0.064165 15.9075C0.106574 16.008 0.168756 16.0993 0.247158 16.1762C0.32556 16.2531 0.418645 16.3141 0.521091 16.3557C0.623537 16.3973 0.733337 16.4186 0.844214 16.4186H7.87823C7.83945 16.706 7.81063 16.9975 7.81063 17.2952V18.3884C7.81058 18.4972 7.83239 18.6049 7.87479 18.7053C7.9172 18.8058 7.97938 18.8971 8.05779 18.974C8.13619 19.0509 8.22927 19.1119 8.33172 19.1535C8.43417 19.1951 8.54397 19.2165 8.65484 19.2164H14.4225C14.6227 20.5207 15.2344 21.7384 16.1967 22.6822C17.3833 23.846 18.9937 24.5 20.6717 24.5C22.3497 24.5 23.9601 23.846 25.1467 22.6822C26.3332 21.5184 27 19.9389 27 18.293C27 16.6471 26.3332 15.0676 25.1467 13.9038C23.9601 12.74 22.3497 12.086 20.6717 12.086C20.1174 12.086 19.5726 12.1635 19.0459 12.3011C17.855 11.2774 16.2932 10.6531 14.5841 10.6531C13.4434 10.6531 12.3702 10.9335 11.4266 11.4229C10.3382 9.69752 8.39243 8.54906 6.17497 8.54906ZM6.17497 10.2051C7.83625 10.2051 9.26624 11.0717 10.0432 12.3674C10.0042 12.4018 9.97082 12.442 9.9327 12.4774C9.83411 12.5689 9.73866 12.6632 9.64581 12.7604C9.57516 12.8342 9.50523 12.9082 9.43805 12.9852C9.35312 13.0826 9.27318 13.1838 9.19402 13.286C9.13114 13.367 9.06679 13.4462 9.0077 13.5302C8.92484 13.6479 8.85035 13.771 8.7752 13.8941C8.72826 13.971 8.67722 14.0448 8.63341 14.1237C8.5244 14.3198 8.42704 14.5227 8.33827 14.7302C8.33351 14.7414 8.32649 14.7515 8.32177 14.7625H1.68678V14.6073C1.68678 12.1538 3.67349 10.2051 6.17497 10.2051ZM14.5841 12.3076C15.5801 12.3076 16.5003 12.5837 17.2783 13.0612C17.1169 13.1619 16.9606 13.271 16.8084 13.3863C16.8075 13.387 16.8061 13.3871 16.8051 13.3879C16.7921 13.3979 16.7786 13.407 16.7656 13.417C16.5683 13.569 16.3759 13.728 16.1967 13.9038C16.1109 13.9879 16.0346 14.079 15.9543 14.1674C15.9219 14.203 15.8887 14.2377 15.8571 14.2741C15.8566 14.2747 15.8575 14.2735 15.8571 14.2741C15.7507 14.3969 15.6495 14.526 15.5537 14.6558C15.5373 14.678 15.5186 14.6981 15.5026 14.7205C15.4984 14.7261 15.4951 14.7324 15.491 14.7383C15.2019 15.1437 14.9644 15.5803 14.782 16.0386C14.7811 16.0408 14.7796 16.043 14.7787 16.0452C14.7651 16.0794 14.7538 16.1142 14.7408 16.1487C14.7394 16.1524 14.7389 16.1562 14.7375 16.1599C14.6695 16.3417 14.6099 16.5254 14.5594 16.713C14.543 16.7738 14.5278 16.8345 14.5133 16.8958C14.4691 17.0829 14.4341 17.2722 14.4077 17.4634C14.4031 17.4966 14.3937 17.5288 14.3896 17.5621H9.49906V17.2952C9.49906 16.7983 9.57382 16.3199 9.70846 15.8688C9.71316 15.8565 9.71756 15.8441 9.72166 15.8316C10.0459 14.7859 10.7118 13.8911 11.5947 13.2617C11.6261 13.239 11.6559 13.2141 11.6838 13.1873C12.5039 12.6331 13.5011 12.3076 14.5841 12.3076ZM20.6717 13.7421C21.9028 13.7421 23.0824 14.2208 23.9529 15.0747C24.8234 15.9285 25.3132 17.0855 25.3132 18.293C25.3132 19.5005 24.8234 20.6575 23.9529 21.5113C23.0824 22.3652 21.9028 22.8456 20.6717 22.8456C19.4406 22.8456 18.261 22.3652 17.3905 21.5113C16.5199 20.6575 16.0318 19.5005 16.0318 18.293C16.0318 18.2919 16.0318 18.294 16.0318 18.293C16.0318 18.2914 16.0319 18.2867 16.0318 18.2849C16.0318 18.2827 16.0318 18.2805 16.0318 18.2783C16.0318 18.2756 16.0334 18.273 16.0335 18.2701C16.0348 18.0691 16.0532 17.8693 16.0813 17.6718C16.0817 17.6686 16.0808 17.6652 16.0813 17.6621C16.0856 17.6317 16.0912 17.6017 16.0961 17.5715C16.0981 17.5596 16.099 17.5477 16.1011 17.5359C16.1374 17.3268 16.1856 17.1198 16.2511 16.9181C16.2517 16.9164 16.2522 16.915 16.2528 16.9131C16.2533 16.9115 16.2539 16.91 16.2544 16.9081C16.3221 16.701 16.4059 16.4992 16.5034 16.3033C16.5039 16.3022 16.5045 16.3011 16.505 16.3001C16.5119 16.2864 16.5178 16.272 16.5248 16.2581C16.5257 16.2563 16.5272 16.2549 16.5281 16.2534C16.6282 16.0583 16.7423 15.8694 16.8711 15.6889C16.8745 15.6843 16.8775 15.6792 16.881 15.6742C16.8834 15.6708 16.8867 15.668 16.8892 15.6645C16.8905 15.6627 16.8928 15.6615 16.8941 15.6598C17.1643 15.2879 17.4866 14.959 17.8521 14.6846C17.8631 14.6765 17.8741 14.6684 17.8851 14.6602C17.8867 14.6591 17.8884 14.6582 17.89 14.6571C18.2604 14.3849 18.6724 14.1661 19.1135 14.0118C19.1168 14.0103 19.1201 14.0087 19.1234 14.0071C19.6166 13.8356 20.1382 13.7421 20.6717 13.7421ZM20.5925 15.0164C20.2308 15.0199 19.8713 15.1028 19.5422 15.2623C19.0156 15.5175 18.6007 15.9524 18.3765 16.4849C18.3341 16.5854 18.3124 16.693 18.3125 16.8017C18.3125 16.9104 18.3344 17.0181 18.3769 17.1185C18.4194 17.2189 18.4816 17.3101 18.5601 17.3869C18.6385 17.4637 18.7316 17.5246 18.834 17.5661C18.9364 17.6077 19.0462 17.629 19.157 17.6289C19.2679 17.6288 19.3776 17.6073 19.4799 17.5656C19.5823 17.524 19.6753 17.4629 19.7536 17.386C19.8319 17.309 19.894 17.2177 19.9363 17.1173C20.0044 16.9556 20.1293 16.8244 20.2892 16.7469C20.449 16.6694 20.6313 16.6516 20.8036 16.6968C20.9759 16.7419 21.1249 16.8457 21.2241 16.9911C21.3232 17.1365 21.366 17.3126 21.3428 17.486C21.3195 17.6594 21.2328 17.817 21.0987 17.9323C20.9792 18.0352 20.8275 18.09 20.67 18.1022C20.6475 18.1007 20.625 18.1002 20.6024 18.1005C20.3793 18.1035 20.1665 18.1931 20.0105 18.3496C20.0083 18.3518 20.0061 18.354 20.0039 18.3562C19.9994 18.3604 19.995 18.3647 19.9907 18.369C19.9011 18.4619 19.8346 18.5739 19.7966 18.6963C19.7585 18.8186 19.7499 18.948 19.7714 19.0741V20.7302C19.7676 20.8411 19.7867 20.9517 19.8274 21.0552C19.8681 21.1588 19.9296 21.2533 20.0083 21.3331C20.087 21.4129 20.1812 21.4763 20.2854 21.5196C20.3896 21.563 20.5016 21.5853 20.6148 21.5853C20.728 21.5853 20.84 21.563 20.9442 21.5196C21.0484 21.4763 21.1426 21.4129 21.2213 21.3331C21.3 21.2533 21.3615 21.1588 21.4022 21.0552C21.4429 20.9517 21.4619 20.8411 21.4582 20.7302V19.6175C21.7325 19.5176 21.9883 19.3699 22.2117 19.1776C22.6533 18.7977 22.9399 18.2723 23.0164 17.7011C23.0928 17.1299 22.9538 16.5498 22.6272 16.0709C22.3007 15.592 21.808 15.2461 21.2405 15.0973C21.0278 15.0415 20.8096 15.0145 20.5925 15.0164Z" fill="#A853FF"/>
</svg>
