<svg width="24" height="24" viewBox="0 0 24 24" fill="none" xmlns="http://www.w3.org/2000/svg">
<path d="M9.29455 14.0513C9.75273 14.0513 10.1564 14.0295 10.5709 14.0622C10.9964 14.0949 11.3018 14.3568 11.5091 14.7932C11.5964 14.6623 11.6509 14.575 11.7055 14.4877C13.2218 11.891 16.2327 10.6581 19.1455 11.4328C21.9927 12.1856 24 14.815 24 17.8154C24 19.1792 24 20.5321 24 21.8959C24 22.376 23.9127 22.4633 23.4436 22.4633C19.44 22.4633 15.4364 22.4524 11.4327 22.4633C8.04 22.4742 4.63636 22.5069 1.24364 22.5287C0.436364 22.5287 0.0109091 22.1141 0.0109091 21.2959C0 19.2774 0 17.2808 0 15.2733C0 14.4659 0.436364 14.0513 1.25455 14.0513C1.52727 14.0513 1.78909 14.0513 2.10545 14.0513C2.10545 13.593 2.10545 13.1566 2.10545 12.7202C2.11636 11.8255 2.56364 11.3782 3.46909 11.3782C4.95273 11.3782 6.44727 11.3782 7.93091 11.3782C8.84727 11.3782 9.29455 11.8365 9.29455 12.7529C9.30546 13.1675 9.29455 13.5712 9.29455 14.0513ZM23.2691 21.6777C23.2691 20.7503 23.28 19.8666 23.2691 18.9719C23.2473 18.1755 23.28 17.3681 23.1491 16.5934C22.6691 13.7785 20.0182 11.7274 17.1273 11.8692C14.2582 12.011 11.8036 14.3131 11.6182 17.139C11.52 18.601 11.5855 20.063 11.5855 21.525C11.5855 21.5686 11.6182 21.6123 11.64 21.6668C15.4909 21.6777 19.3527 21.6777 23.2691 21.6777ZM0.807273 16.7462C0.785455 16.7462 0.763636 16.7571 0.741818 16.7571C0.741818 16.8553 0.741818 16.9426 0.741818 17.0408C0.741818 18.4155 0.741818 19.7902 0.741818 21.1649C0.741818 21.6995 0.818182 21.7759 1.37455 21.7759C2.97818 21.7759 4.58182 21.7759 6.18545 21.7759C7.56 21.7759 8.93455 21.7759 10.3091 21.7759C10.6145 21.7759 10.8218 21.6777 10.8218 21.3504C10.8327 19.812 10.8218 18.2736 10.8218 16.7462C10.6691 17.0517 10.5818 17.3681 10.4945 17.6736C10.2873 18.4264 9.92727 18.7428 9.14182 18.8192C8.58545 18.8628 8.01818 18.841 7.45091 18.8846C7.28727 18.8955 7.12364 19.0156 6.96 19.0919C6.74182 19.1792 6.52364 19.3101 6.29455 19.3429C5.95636 19.3865 5.59636 19.3974 5.25818 19.3429C5.00727 19.3101 4.77818 19.1465 4.53818 19.0483C4.40727 18.9937 4.27636 18.8955 4.14545 18.8846C3.54545 18.8519 2.93455 18.8628 2.33455 18.8192C1.66909 18.7646 1.22182 18.4155 1.05818 17.739C0.992727 17.4008 0.894545 17.0735 0.807273 16.7462ZM10.5164 14.8259C7.34182 14.8259 4.21091 14.8259 1.04727 14.8259C1.28727 15.6988 1.51636 16.5389 1.74545 17.379C1.90909 17.9682 2.07273 18.11 2.69455 18.1209C3.19636 18.1318 3.69818 18.1318 4.2 18.1209C4.30909 18.1209 4.41818 18.0336 4.52727 17.99C4.78909 17.8809 5.04 17.7172 5.30182 17.6627C5.60727 17.6081 5.94545 17.6081 6.26182 17.6627C6.53455 17.7063 6.78545 17.87 7.03636 17.99C7.13455 18.0336 7.23273 18.1209 7.32 18.1209C7.87636 18.1318 8.42182 18.1427 8.97818 18.1209C9.27273 18.11 9.61091 18.0554 9.70909 17.7172C9.99273 16.7571 10.2436 15.797 10.5164 14.8259ZM7.40727 13.1566C6.25091 13.1566 5.12727 13.1566 4.00364 13.1566C4.00364 13.4621 4.00364 13.7349 4.00364 14.0186C5.14909 14.0186 6.27273 14.0186 7.40727 14.0186C7.40727 13.724 7.40727 13.4512 7.40727 13.1566ZM3.26182 14.0295C3.26182 13.6803 3.26182 13.3748 3.26182 13.0693C3.26182 12.5675 3.43636 12.4038 3.93818 12.4038C4.94182 12.4038 5.93455 12.4038 6.93818 12.4038C8.14909 12.4038 8.14909 12.4038 8.14909 13.6149C8.14909 13.7458 8.14909 13.8876 8.14909 14.0513C8.31273 14.0404 8.42182 14.0295 8.55273 14.0186C8.55273 13.5167 8.56364 13.0475 8.55273 12.5784C8.54182 12.2729 8.36727 12.1092 8.05091 12.1092C6.49091 12.1092 4.92 12.1092 3.36 12.1092C3.03273 12.1092 2.86909 12.2947 2.85818 12.6111C2.84727 13.0475 2.85818 13.4839 2.86909 13.9204C2.86909 13.9531 2.90182 13.9858 2.91273 14.0295C3.01091 14.0295 3.10909 14.0295 3.26182 14.0295ZM6.40364 18.5682C6.10909 18.3064 5.36727 18.3173 5.10545 18.5682C5.57455 18.5682 5.98909 18.5682 6.40364 18.5682Z" fill="#A853FF"/>
<path d="M17.2365 9.86186C19.4296 9.86186 21.2074 8.08403 21.2074 5.89095C21.2074 3.69788 19.4296 1.92004 17.2365 1.92004C15.0435 1.92004 13.2656 3.69788 13.2656 5.89095C13.2656 8.08403 15.0435 9.86186 17.2365 9.86186Z" stroke="#A853FF" stroke-miterlimit="10"/>
</svg>
