<svg width="25" height="25" viewBox="0 0 25 25" fill="none" xmlns="http://www.w3.org/2000/svg">
<path d="M21.3836 13.2216H20.2873C20.1267 13.2216 19.9797 13.287 19.8673 13.398C19.7623 13.5079 19.7014 13.648 19.7014 13.8015V20.6001C19.7014 20.7599 19.7675 20.9051 19.8736 21.0099C19.9807 21.1137 20.1277 21.1801 20.2884 21.1801H20.5677V21.4893C20.5677 21.843 20.4207 22.1647 20.1855 22.3981C19.9492 22.6315 19.6237 22.7757 19.2656 22.7757H14.5667C14.511 22.479 14.3651 22.2145 14.1582 22.0101C13.8915 21.7466 13.5219 21.5826 13.1145 21.5826C12.7071 21.5826 12.3374 21.7466 12.0707 22.0101C11.804 22.2736 11.6381 22.6388 11.6381 23.0413C11.6381 23.4438 11.804 23.809 12.0707 24.0726C12.3374 24.3361 12.7071 24.5 13.1145 24.5C13.5219 24.5 13.8915 24.3361 14.1582 24.0726C14.3651 23.8682 14.5111 23.6036 14.5667 23.3069H19.2656C19.7728 23.3069 20.2327 23.1025 20.5656 22.7737C20.8985 22.4448 21.1053 21.9893 21.1053 21.4893V21.1801H21.3846C21.8068 21.1801 22.19 21.0089 22.4757 20.7278C22.7508 20.4497 22.9177 20.0783 22.9188 19.6675V14.7355C22.9167 14.3184 22.7445 13.9408 22.4683 13.6679C22.19 13.394 21.8057 13.2228 21.3846 13.2228L21.3836 13.2216ZM1.54358 15.0185H0.771785C0.559673 15.0185 0.366464 15.1046 0.226814 15.2426C0.0871636 15.3806 0 15.5715 0 15.781V18.6497C0 18.8592 0.0871556 19.0501 0.226814 19.1881C0.366472 19.3261 0.559689 19.4122 0.771785 19.4122H1.54358V15.0185ZM3.61535 12.7049H4.44384V10.3665C4.44279 9.63819 4.5436 8.9296 4.73156 8.25319C4.88802 7.68984 5.10642 7.15037 5.37733 6.64511C5.10747 6.58598 4.84599 6.46563 4.61814 6.28096C4.48583 6.1741 4.37348 6.05168 4.28108 5.91888C3.94401 6.52475 3.67414 7.17109 3.48092 7.84752C3.25305 8.64637 3.13019 9.49191 3.13019 10.3665V12.762C3.2856 12.7246 3.44731 12.7049 3.61428 12.7049L3.61535 12.7049ZM4.71161 13.2361H3.61535C3.19323 13.2361 2.80995 13.4073 2.5317 13.6812C2.25554 13.954 2.08226 14.3307 2.08122 14.7487V19.6808C2.08332 20.0916 2.25028 20.462 2.52433 20.7411C2.80995 21.0222 3.19323 21.1934 3.61535 21.1934H4.71161C4.87227 21.1934 5.01927 21.128 5.12535 21.0233C5.2314 20.9185 5.29756 20.7732 5.29756 20.6145V13.8159C5.29756 13.6623 5.23665 13.5223 5.13164 13.4123C5.01929 13.3023 4.87227 13.2361 4.71161 13.2361ZM20.7177 5.91777C20.6243 6.05056 20.5119 6.17298 20.3807 6.27985C20.1528 6.46451 19.8924 6.58589 19.6225 6.644C19.8934 7.14923 20.1108 7.68769 20.2683 8.25104C20.4563 8.92747 20.5571 9.6371 20.5571 10.3654V12.6893H21.3845C21.5515 12.6893 21.7132 12.709 21.8686 12.7464V10.3654C21.8686 9.4908 21.7468 8.64526 21.5179 7.84642C21.3247 7.16999 21.0548 6.52363 20.7177 5.91777ZM8.23364 1.44203C6.91582 2.0562 5.73553 2.95775 4.78527 4.099C4.56265 4.36666 4.47129 4.69969 4.50279 5.02132C4.5343 5.34188 4.6897 5.65106 4.95957 5.871C5.23048 6.09094 5.5686 6.18121 5.89309 6.15008C6.21757 6.11895 6.53048 5.96645 6.75308 5.69879C7.46187 4.84704 8.34184 4.17475 9.32154 3.71827C10.3023 3.26074 11.3839 3.01488 12.499 3.01488C13.6141 3.01488 14.6967 3.25973 15.6764 3.71827C16.6561 4.17581 17.535 4.84704 18.2448 5.69879C18.4674 5.96645 18.7804 6.11895 19.1048 6.15008C19.4303 6.1812 19.7674 6.09094 20.0383 5.871C20.3092 5.65105 20.4636 5.34188 20.4951 5.02132C20.5266 4.69971 20.4353 4.36563 20.2126 4.099C19.2623 2.95778 18.081 2.05727 16.7632 1.44203C15.4485 0.828882 13.9952 0.5 12.4968 0.5C10.9984 0.5 9.5452 0.828882 8.23042 1.44203H8.23364ZM24.2282 15.0018H23.4564V19.3955H24.2282C24.4403 19.3955 24.6335 19.3093 24.7732 19.1714C24.9128 19.0334 25 18.8425 25 18.6329V15.7643C25 15.5547 24.9128 15.3638 24.7732 15.2258C24.6335 15.0879 24.4403 15.0018 24.2282 15.0018Z" fill="#A853FF"/>
</svg>
