<svg width="24" height="24" viewBox="0 0 24 24" fill="none" xmlns="http://www.w3.org/2000/svg">
<path d="M21 7.11092H18.8572V3.11117C18.8572 1.39567 17.5115 0 15.8571 0H3.0001C1.34585 0 0 1.3955 0 3.11117V12.8887C0 14.6042 1.34568 15.9998 3.0001 15.9998V19.111C3.0001 19.2799 3.09439 19.4354 3.24438 19.511C3.30438 19.5421 3.36867 19.5554 3.42867 19.5554C3.52295 19.5554 3.61724 19.5243 3.69438 19.4577L7.86429 16H8.57142V17.7778C8.57142 19.4933 9.91711 20.8889 11.5715 20.8889H16.9801L20.2885 23.8889C20.3699 23.96 20.4685 24 20.5713 24C20.6313 24 20.6913 23.9867 20.747 23.96C20.9013 23.8889 20.9999 23.7289 20.9999 23.5556V20.889C22.6542 20.889 24 19.4935 24 17.7778V10.2226C24 8.5071 22.6543 7.11143 20.9999 7.11143L21 7.11092ZM7.71433 15.1107C7.61576 15.1107 7.52148 15.1462 7.44862 15.2085L3.85717 18.1862V15.5552C3.85717 15.3108 3.66431 15.1108 3.4286 15.1108H3.00003C1.81719 15.1108 0.857201 14.1152 0.857201 12.8886V3.1111C0.857201 1.88446 1.81719 0.888936 3.00003 0.888936H15.857C17.0399 0.888936 17.9999 1.88446 17.9999 3.1111V12.8886C17.9999 14.1152 17.0399 15.1108 15.857 15.1108L7.71433 15.1107ZM23.1427 17.7773C23.1427 19.0039 22.1827 19.9994 20.9999 19.9994H20.5713C20.3356 19.9994 20.1428 20.1994 20.1428 20.4439V22.5772L17.4257 20.1106C17.3485 20.0394 17.2457 19.9994 17.1428 19.9994H11.5716C10.3887 19.9994 9.42876 19.0039 9.42876 17.7773V15.9996H15.8574C17.5116 15.9996 18.8575 14.6041 18.8575 12.8884V7.99949H21.0003C22.1832 7.99949 23.1432 8.99502 23.1432 10.2217L23.1427 17.7773Z" fill="#A853FF"/>
<path d="M9.42879 4.44456C9.8745 4.44456 10.3031 4.63122 10.6331 4.97344C10.963 5.31566 11.1431 5.76008 11.1431 6.22229C11.1431 6.83559 10.843 7.39559 10.3459 7.72445C9.50595 8.27998 9.00025 9.17775 9.00025 10.1288V10.2222C9.00025 10.4666 9.19311 10.6666 9.42882 10.6666C9.66453 10.6666 9.85739 10.4666 9.85739 10.2222V10.1288C9.85739 9.4844 10.2131 8.86663 10.8045 8.47553C11.5545 7.98221 12.0002 7.14224 12.0002 6.22226C12.0002 5.52451 11.7302 4.85784 11.2374 4.34674C10.7445 3.83564 10.1017 3.55566 9.42882 3.55566C8.01026 3.55566 6.85742 4.75118 6.85742 6.22226C6.85742 6.4667 7.05028 6.66669 7.28599 6.66669C7.5217 6.66669 7.71455 6.4667 7.71455 6.22226C7.71455 5.24007 8.48167 4.44456 9.42879 4.44456Z" fill="#A853FF"/>
<path d="M9.85762 11.9998C9.85762 12.592 9.00049 12.592 9.00049 11.9998C9.00049 11.4076 9.85762 11.4076 9.85762 11.9998Z" fill="#A853FF"/>
</svg>
