<svg width="24" height="24" viewBox="0 0 24 24" fill="none" xmlns="http://www.w3.org/2000/svg">
<path fill-rule="evenodd" clip-rule="evenodd" d="M18.6962 8.75191L14.1289 4.73643V8.75191H18.6962ZM12.7458 3.81444V1.5H0V21.1444H3.35224V4.08499C3.35224 3.93557 3.48997 3.81546 3.6588 3.81546H12.7459L12.7458 3.81444ZM21.2386 15.1971C20.2545 14.3319 18.6594 14.3319 17.6754 15.1971C16.6913 16.0624 16.6913 17.4647 17.6754 18.3299C18.6595 19.1951 20.2545 19.1951 21.2386 18.3299C22.2227 17.4646 22.2227 16.0623 21.2386 15.1971ZM19.457 14.0087C21.1875 14.0087 22.5905 15.2421 22.5905 16.7636C22.5905 18.2851 21.1876 19.5186 19.457 19.5186C17.7264 19.5186 16.3234 18.2852 16.3234 16.7636C16.3234 15.2422 17.7263 14.0087 19.457 14.0087ZM20.8354 21.1161L21.5496 22.7206L21.8451 22.0624C21.9106 21.915 22.1006 21.8476 22.2761 21.9237L23.0314 22.2197L21.9706 19.9033C21.6785 20.1874 21.8306 20.8496 21.0187 21.0771C20.9531 21.0956 20.8931 21.1074 20.8354 21.1152L20.8354 21.1161ZM16.9267 19.9628L15.8537 22.2899L16.6057 22.0614C16.7534 22.0077 16.9256 22.0634 16.9978 22.1913L17.3388 22.7987L18.1219 21.0917C18.0119 21.0956 17.8897 21.079 17.7498 21.0361C17.05 20.8183 17.1077 20.3105 16.9267 19.9638V19.9628ZM18.9494 20.7275C19.006 20.6943 19.066 20.665 19.1316 20.6415V24H3.96644V4.3556H13.5156V9.02257C13.5156 9.17199 13.6533 9.2921 13.8221 9.2921H19.1304V12.7813C19.0993 12.7618 19.0682 12.7403 19.0383 12.7198C18.7284 12.5099 18.4229 12.3038 17.8931 12.4522C17.06 12.6856 17.3355 13.3858 16.9234 13.6436C16.4791 13.922 15.7815 13.4952 15.2583 14.1436C14.7629 14.7579 15.4372 15.2471 15.3217 15.5518C15.1984 15.8751 14.3253 15.9737 14.3164 16.7217C14.3075 17.4737 15.1706 17.5294 15.2772 17.8477C15.385 18.169 14.7274 18.6846 15.205 19.3057C15.5516 19.7559 15.967 19.6651 16.3924 19.6826L15.0306 22.6356H15.0317C14.934 22.8475 15.1661 23.0663 15.415 22.9911L16.5668 22.6415L17.0911 23.5761C17.2055 23.7792 17.5499 23.7773 17.6498 23.5575L18.9483 20.7275L18.9494 20.7275ZM18.5062 20.3427C18.3274 20.456 18.1563 20.5907 17.9542 20.5273C17.4976 20.3847 17.7376 19.7577 17.1533 19.3583C16.5557 18.9491 15.9492 19.3105 15.7127 19.0048C15.4672 18.6855 16.0525 18.2528 15.8659 17.6962C15.6738 17.1239 14.924 17.1005 14.9285 16.7265C14.9329 16.3397 15.6927 16.2743 15.9026 15.7226C16.1147 15.163 15.5116 14.7597 15.7571 14.456C16.0348 14.1132 16.6401 14.4833 17.2788 14.0829C17.9053 13.6904 17.6787 13.0771 18.0775 12.9648C18.5162 12.8417 18.8106 13.4374 19.4304 13.4657C20.2945 13.5058 20.5145 12.8632 20.9832 13.0097C21.3753 13.1318 21.1265 13.7284 21.7729 14.1737C22.2972 14.5351 22.9748 14.2079 23.2247 14.5321C23.4635 14.8427 22.8448 15.2372 23.0403 15.8036C23.2336 16.3612 24.0044 16.3993 24 16.8134C23.9955 17.1639 23.2269 17.2128 23.027 17.7626C22.8259 18.3153 23.4224 18.7411 23.1547 19.0722C22.9125 19.372 22.3283 18.997 21.6685 19.4208C21.082 19.7977 21.2942 20.4345 20.8343 20.5634C20.6544 20.6141 20.51 20.5145 20.3523 20.4051C20.1345 20.2548 19.838 20.0555 19.4381 20.0555C18.9938 20.0555 18.805 20.1649 18.5373 20.3221C18.5262 20.328 18.5162 20.3348 18.5062 20.3417L18.5062 20.3427ZM6.04699 9.34274C5.87705 9.34274 5.74043 9.22164 5.74043 9.07321C5.74043 8.9238 5.87817 8.80369 6.04699 8.80369H10.7422C10.9122 8.80369 11.0488 8.92478 11.0488 9.07321C11.0488 9.22263 10.9111 9.34274 10.7422 9.34274H6.04699ZM6.04699 12.4325C5.87705 12.4325 5.74043 12.3114 5.74043 12.1629C5.74043 12.0135 5.87817 11.8934 6.04699 11.8934H17.0489C17.2188 11.8934 17.3555 12.0145 17.3555 12.1629C17.3555 12.3124 17.2177 12.4325 17.0489 12.4325H6.04699ZM6.04699 15.5175C5.87705 15.5175 5.74043 15.3964 5.74043 15.2479C5.74043 15.0985 5.87817 14.9784 6.04699 14.9784H13.9133C14.0833 14.9784 14.2199 15.0995 14.2199 15.2479C14.2199 15.3973 14.0822 15.5175 13.9133 15.5175H6.04699ZM6.04699 18.6024C5.87705 18.6024 5.74043 18.4813 5.74043 18.3329C5.74043 18.1835 5.87817 18.0634 6.04699 18.0634H13.8212C13.9911 18.0634 14.1278 18.1845 14.1278 18.3329C14.1278 18.4823 13.99 18.6024 13.8212 18.6024H6.04699ZM17.9875 16.7626C17.8831 16.6454 17.9076 16.4765 18.0409 16.3847C18.1741 16.2929 18.3663 16.3144 18.4707 16.4316L19.1305 17.1757L20.449 15.7509C20.5556 15.6357 20.7489 15.6181 20.8799 15.7118C21.011 15.8056 21.031 15.9755 20.9244 16.0907L19.3637 17.7782C19.2416 17.9091 19.005 17.9091 18.885 17.7743L17.9886 16.7636L17.9875 16.7626Z" fill="#A853FF"/>
</svg>
