<svg width="24" height="25" viewBox="0 0 24 25" fill="none" xmlns="http://www.w3.org/2000/svg">
<g clip-path="url(#clip0_482_844)">
<path d="M20.4002 11.4745C19.8438 11.4745 19.3093 11.4527 18.7747 11.4855C18.502 11.4964 18.3711 11.4091 18.2511 11.1582C17.8474 10.2964 17.4111 9.45637 16.9856 8.60546C16.9747 8.57273 16.9529 8.54 16.9202 8.48546C17.2802 8.48546 17.6074 8.48546 17.9456 8.48546C18.622 8.48546 19.3093 8.48546 19.9856 8.48546C20.902 8.48546 21.5893 9.16182 21.5893 10.0782C21.5893 12.0527 21.5893 14.0382 21.5893 16.0127C21.5893 16.7655 21.6002 17.5073 21.5893 18.26C21.5784 19.2309 20.9129 19.8636 19.9529 19.8636C17.0293 19.8636 14.0947 19.8636 11.1711 19.8636C8.77109 19.8636 6.37109 19.8636 3.982 19.8636C3.142 19.8636 2.44381 19.1764 2.44381 18.3036C2.4329 16.8636 2.44381 15.4345 2.44381 13.9945C2.44381 12.7073 2.44381 11.4091 2.44381 10.1218C2.44381 9.15091 3.10927 8.47455 4.06927 8.47455C6.01109 8.47455 7.9529 8.47455 9.89472 8.47455C10.0147 8.47455 10.0693 8.51818 10.1129 8.62728C10.4947 9.41273 10.9093 10.2091 11.3347 10.9945C11.422 11.1473 11.5311 11.3 11.6402 11.4745C8.95654 11.4745 6.29472 11.4745 3.61109 11.4745C3.61109 11.5618 3.61109 11.6273 3.61109 11.6927C3.61109 13.8745 3.61109 16.0673 3.61109 18.2491C3.61109 18.5546 3.73109 18.6745 4.03654 18.6745C9.32745 18.6745 14.6293 18.6745 19.9202 18.6745C20.2802 18.6745 20.4002 18.5545 20.4002 18.1945C20.4002 16.1327 20.4002 14.06 20.4002 11.9982C20.4002 11.8236 20.4002 11.66 20.4002 11.4745Z" fill="#A853FF"/>
<path d="M13.6582 9.95819C14.3891 9.54365 15.0982 9.14001 15.8182 8.72546C16.2546 9.6091 16.7127 10.4818 17.1164 11.3655C17.6291 12.5109 18.1309 13.6564 18.5782 14.8236C18.8291 15.4782 18.9818 16.1764 19.1673 16.8636C19.2 16.9946 19.1782 17.1473 19.1564 17.2891C19.1346 17.4527 19.0146 17.5073 18.8837 17.4309C18.6655 17.2891 18.4364 17.1473 18.2727 16.9509C17.7164 16.2746 17.1491 15.5982 16.6582 14.8673C15.9273 13.7873 15.2509 12.6636 14.5637 11.5509C14.2473 11.0382 13.9637 10.5036 13.6582 9.95819Z" fill="#A853FF"/>
<path d="M15.382 8.01635C14.6838 8.41998 13.9856 8.81271 13.2766 9.22726C13.2547 9.21635 13.2329 9.20544 13.222 9.17271C12.6329 8.01635 12.0438 6.85998 11.4766 5.6818C11.3456 5.39817 11.2693 5.0818 11.2366 4.76544C11.182 4.32908 11.4984 3.95817 12.022 3.75089C12.3929 3.60908 12.7747 3.70726 13.0693 4.11089C13.4511 4.62362 13.8111 5.15817 14.1384 5.71453C14.5638 6.43453 14.9566 7.18726 15.3602 7.91817C15.3602 7.93998 15.3711 7.97271 15.382 8.01635Z" fill="#A853FF"/>
<path d="M16.7455 16.8636C15.0545 16.8636 13.3855 16.8636 11.7273 16.8636C10.8982 16.8636 10.08 16.8636 9.25091 16.8636C9.03273 16.8636 9 16.8418 9 16.6127C9 16.3727 9 16.1218 9 15.8818C9 15.74 9.04364 15.6636 9.20727 15.6636C11.3891 15.6636 13.56 15.6636 15.7418 15.6636C15.7964 15.6636 15.8836 15.6964 15.9164 15.74C16.1891 16.1109 16.4618 16.4818 16.7455 16.8636Z" fill="#A853FF"/>
<path d="M6.01068 13.2309C6.01068 13.1327 6.01068 13.0127 6.01068 12.8818C6.01068 12.74 6.07614 12.6746 6.21795 12.6746C6.28341 12.6746 6.33796 12.6746 6.40341 12.6746C6.53432 12.6746 6.59977 12.74 6.59977 12.8709C6.59977 13.0018 6.56705 13.1764 6.6325 13.2637C6.68705 13.34 6.8725 13.3291 6.9925 13.3618C7.3525 13.4709 7.61432 13.6891 7.73432 14.06C7.81068 14.2782 7.75614 14.3437 7.52705 14.3546C7.43977 14.3546 7.3525 14.3437 7.26523 14.3546C7.09068 14.3764 6.95977 14.3437 6.90523 14.1473C6.89432 14.0927 6.82886 14.0491 6.77432 14.0164C6.44705 13.8309 6.09796 13.8309 5.77068 14.0055C5.6725 14.06 5.58523 14.2127 5.58523 14.3109C5.58523 14.3982 5.70523 14.54 5.80341 14.5727C6.08705 14.6709 6.38159 14.7255 6.66523 14.8127C6.85068 14.8673 7.04705 14.9218 7.2325 15.0091C7.54886 15.1509 7.77796 15.3691 7.78886 15.74C7.79977 16.1437 7.62523 16.4709 7.26523 16.6564C7.06886 16.7546 6.83977 16.8091 6.58886 16.8964C6.58886 16.9946 6.58886 17.1255 6.58886 17.2564C6.58886 17.3982 6.52341 17.4637 6.38159 17.4637C6.32705 17.4637 6.2725 17.4637 6.21795 17.4637C6.07614 17.4637 5.99977 17.3982 5.99977 17.2455C5.99977 17.1255 5.99977 16.9946 5.99977 16.8637C5.85796 16.8309 5.73796 16.8091 5.60705 16.7764C5.23614 16.6564 4.96341 16.4273 4.84341 16.0455C4.77796 15.8382 4.82159 15.7837 5.03977 15.7837C5.12705 15.7837 5.21432 15.7946 5.30159 15.7837C5.48705 15.7727 5.62886 15.7946 5.69432 15.9909C5.71614 16.0564 5.80341 16.1218 5.87977 16.1655C6.18523 16.2964 6.50159 16.2855 6.80705 16.1437C6.93795 16.0891 7.03614 15.98 7.00341 15.8382C6.98159 15.7291 6.89432 15.5982 6.79614 15.5655C6.5125 15.4673 6.21796 15.4127 5.93432 15.3255C5.72705 15.2709 5.50886 15.2055 5.32341 15.1182C5.03977 14.9873 4.81068 14.7691 4.81068 14.42C4.79977 14.0273 4.93068 13.6891 5.30159 13.5037C5.51977 13.3946 5.74886 13.3291 6.01068 13.2309Z" fill="#A853FF"/>
<path d="M15.0218 14.4746C14.6836 14.4746 14.3455 14.4746 14.0073 14.4746C12.4255 14.4746 10.8545 14.4746 9.27273 14.4746C9.02182 14.4746 9.01091 14.4636 9 14.2127C9 13.9727 9 13.7436 9 13.5036C9 13.3618 9.04364 13.2855 9.20727 13.2855C10.8655 13.2855 12.5236 13.2855 14.1818 13.2855C14.2364 13.2855 14.3127 13.3073 14.3345 13.3509C14.5636 13.7 14.7818 14.06 15 14.4091C15.0218 14.42 15.0218 14.4418 15.0218 14.4746Z" fill="#A853FF"/>
<path d="M13.429 10.9945C13.429 11.2782 13.2763 11.3873 13.069 11.2891C12.6872 11.1254 12.4581 10.7982 12.2726 10.4491C11.7599 9.47817 11.2581 8.50726 10.7563 7.52544C10.5817 7.17635 10.4072 6.81635 10.2544 6.44544C10.1235 6.17271 10.4072 5.81271 10.7126 5.86726C10.7999 5.88908 10.8981 5.97635 10.9417 6.05271C11.749 7.62362 12.5453 9.19453 13.3308 10.7654C13.3853 10.8527 13.4072 10.9509 13.429 10.9945Z" fill="#A853FF"/>
</g>
<defs>
<clipPath id="clip0_482_844">
<rect width="24" height="24" fill="white" transform="translate(0 0.5)"/>
</clipPath>
</defs>
</svg>
