<svg width="24" height="25" viewBox="0 0 24 25" fill="none" xmlns="http://www.w3.org/2000/svg">
<path fill-rule="evenodd" clip-rule="evenodd" d="M20.7753 10.9195V19.3432C20.7753 20.7557 19.6219 21.9029 18.1936 21.9114L15.0772 21.9296L12.7303 24.2496C12.5679 24.4101 12.3472 24.5 12.1167 24.5C11.8863 24.5 11.6655 24.408 11.5032 24.2453L9.16059 21.9018H2.59693C1.90766 21.9018 1.24761 21.6311 0.760686 21.1485C0.273765 20.668 0 20.0142 0 19.3336V3.06822C0 2.38656 0.27376 1.73274 0.760686 1.25228C1.24761 0.76967 1.90766 0.5 2.59693 0.5H18.1785C18.8678 0.5 19.5278 0.769664 20.0148 1.25228C20.5017 1.73274 20.7755 2.38656 20.7755 3.06822V3.25763C21.3782 3.3122 21.9473 3.57329 22.3791 4.00026L23.2393 4.85099C23.7262 5.33253 24 5.98635 24 6.66693C24 7.34858 23.7262 8.00134 23.2393 8.48287L20.7753 10.9195ZM19.0441 3.71777V3.06822C19.0441 2.84137 18.9532 2.62307 18.7909 2.46256C18.6275 2.30205 18.4078 2.21216 18.1784 2.21216H2.59683C2.36744 2.21216 2.14778 2.30205 1.9844 2.46256C1.82209 2.62308 1.7312 2.84137 1.7312 3.06822V19.3336C1.7312 19.5605 1.82209 19.7788 1.9844 19.9382C2.14779 20.0998 2.36744 20.1897 2.59683 20.1897H9.52198C9.75354 20.1897 9.97536 20.2806 10.1377 20.4433L12.1233 22.4294L14.1034 20.47C14.2646 20.3106 14.4832 20.2207 14.7104 20.2196L18.1827 20.1993C18.6588 20.1972 19.044 19.8141 19.044 19.3432V12.6316L16.5294 15.1185C16.1972 15.447 15.7806 15.6814 15.3229 15.7937L11.3766 16.7697C11.0812 16.8424 10.7696 16.7568 10.5542 16.5449C10.3389 16.332 10.2524 16.0238 10.327 15.7317L11.3139 11.828C11.4275 11.3764 11.6633 10.9644 11.9966 10.6359L18.7065 4.00014C18.8115 3.89527 18.925 3.80122 19.0441 3.71777ZM20.4204 8.84873L18.3364 6.78668L14.045 11.0295L16.1301 13.0926L20.4204 8.84873ZM19.5602 5.57648L21.6453 7.63853L22.0143 7.2715C22.1777 7.11206 22.2686 6.89483 22.2686 6.66691C22.2686 6.44005 22.1777 6.22282 22.0143 6.06125L21.154 5.21052C21.048 5.10565 20.9171 5.03074 20.7753 4.99115C20.6996 4.97082 20.6217 4.96011 20.5427 4.96011C20.3122 4.96011 20.0925 5.05 19.9302 5.21052L19.5602 5.57648ZM12.9586 12.3779L12.3559 14.7621L14.7678 14.1671L12.9586 12.3779ZM7.79077 3.86433C8.26905 3.86433 8.65641 4.24741 8.65641 4.7204C8.65641 5.19233 8.26905 5.57648 7.79077 5.57648C7.31249 5.57648 6.92512 5.19233 6.92512 4.7204C6.92512 4.24741 7.31249 3.86433 7.79077 3.86433ZM4.32819 3.86433C4.80647 3.86433 5.19384 4.24741 5.19384 4.7204C5.19384 5.19233 4.80647 5.57648 4.32819 5.57648C3.84991 5.57648 3.46255 5.19233 3.46255 4.7204C3.46255 4.24741 3.84991 3.86433 4.32819 3.86433ZM4.32819 15.9392C3.84991 15.9392 3.46255 15.5551 3.46255 15.0831C3.46255 14.6112 3.84991 14.2271 4.32819 14.2271H7.79077C8.26905 14.2271 8.65641 14.6112 8.65641 15.0831C8.65641 15.5551 8.26905 15.9392 7.79077 15.9392H4.32819ZM4.32819 9.09062C3.84991 9.09062 3.46255 8.70647 3.46255 8.23455C3.46255 7.76263 3.84991 7.37847 4.32819 7.37847H11.2533C11.7305 7.37847 12.119 7.76263 12.119 8.23455C12.119 8.70647 11.7305 9.09062 11.2533 9.09062H4.32819ZM4.32819 12.5149C3.84991 12.5149 3.46255 12.1308 3.46255 11.6588C3.46255 11.1869 3.84991 10.8028 4.32819 10.8028H9.08937C9.56765 10.8028 9.95502 11.1869 9.95502 11.6588C9.95502 12.1308 9.56765 12.5149 9.08937 12.5149H4.32819Z" fill="#A853FF"/>
</svg>
