<svg width="24" height="25" viewBox="0 0 24 25" fill="none" xmlns="http://www.w3.org/2000/svg">
<path d="M19.0493 3.16365C16.8331 1.61438 14.276 0.880521 11.7757 0.907701L12.1167 2.94621C14.1055 2.97339 16.1228 3.57135 17.856 4.79445C18.9641 5.58267 19.8448 6.53398 20.5267 7.594L16.549 8.38222L16.8615 9.38788C12.3724 7.40374 11.0938 8.0017 10.7245 8.46376L10.6108 8.57248L7.3434 8.89864L7.45705 8.38222L3.45091 7.594C3.62138 7.29502 3.82027 6.99604 4.04757 6.72424C4.84311 5.69139 5.83755 4.79445 6.97404 4.11495L6.54785 5.74575L8.28101 6.18063L9.07656 3.16365L9.53115 1.50566L7.798 1.1795L4.64423 0.5L4.30328 2.15798L5.86596 2.48415C4.50216 3.38109 3.33726 4.35957 2.37124 5.63703C-1.6065 10.8284 -0.470002 18.0855 4.95676 21.8907C7.17293 23.44 9.70163 24.1738 12.2303 24.1195L11.8894 22.081C9.90051 22.0538 7.88324 21.4558 6.15008 20.2327C4.47375 19.064 3.28043 17.4604 2.62695 15.6937H5.29771L5.35454 15.5034L10.6392 18.4117C10.7529 18.4932 11.4064 18.8737 12.1735 18.8737C12.3724 18.8737 12.5713 18.8465 12.7986 18.765C12.827 18.765 12.8838 18.765 12.9122 18.765C13.0259 18.765 13.0827 18.7378 13.1679 18.6835C13.5089 18.7106 14.0203 18.6835 14.4465 18.3845C14.617 18.2758 14.7874 18.1127 14.8727 17.9496C15.3841 17.9768 16.0092 17.8137 16.5206 17.1342C16.8331 17.107 17.2593 17.0255 17.5719 16.6721C17.856 16.3732 17.9696 16.0198 17.9412 15.5849L18.5379 15.3131L18.6515 15.6393H21.3507C21.0382 16.5634 20.5552 17.4604 19.9017 18.3029C19.1061 19.3358 18.1117 20.2327 16.9752 20.9122L17.4014 19.2814L15.6682 18.8465L14.8727 21.8635L14.4181 23.5215L16.1512 23.8477L19.3334 24.5L19.6744 22.842L18.1117 22.5159C19.4755 21.6189 20.6404 20.6404 21.6064 19.363C25.6126 14.1988 24.4761 6.96886 19.0493 3.16365ZM16.89 16.047C16.7763 16.1557 16.6058 16.1829 16.4922 16.1829L13.0259 13.03C12.827 12.8398 12.4576 12.8669 12.2872 13.0572C12.0883 13.2475 12.1167 13.6008 12.3156 13.7639L15.583 16.7809C15.2989 17.0527 15.0147 17.0527 14.9011 17.0255L12.2587 14.6065C12.0599 14.4162 11.6905 14.4162 11.4916 14.6336C11.2927 14.8239 11.3211 15.1772 11.52 15.3403L13.9919 17.5963C13.9635 17.6234 13.9351 17.6506 13.9067 17.6778C13.6509 17.8137 13.1679 17.7865 13.0543 17.7865L11.4632 16.3188C11.2643 16.1285 10.8949 16.1557 10.7245 16.346C10.5256 16.5362 10.554 16.8896 10.7529 17.0527L11.5768 17.8137C11.3495 17.705 11.2075 17.6506 11.2075 17.6506L5.66707 14.5249L7.05928 9.9043L9.21862 9.71404C8.11054 10.6653 7.76959 11.2089 8.33783 12.0787C8.59355 12.4592 8.93449 12.6767 9.38909 12.7854C10.3267 12.9213 11.3211 12.269 11.6621 12.0515L12.5997 11.8884L17.0036 15.5849C16.9752 15.748 16.9468 15.9111 16.89 16.047ZM17.5719 14.7424L12.8838 10.7741L11.2075 11.1002L11.0938 11.2089C10.7529 11.5079 10.0142 11.8884 9.55957 11.8069C9.38909 11.7797 9.27544 11.6982 9.21862 11.5623C9.01973 11.2361 9.04814 11.1274 11.0654 9.52378L11.6053 9.06172C11.6053 9.06172 12.6565 8.57248 16.5774 10.3664L17.1457 10.5838L17.1741 10.5023L18.3674 14.4162L17.5719 14.7424Z" fill="#A853FF"/>
</svg>
