<svg width="24" height="25" viewBox="0 0 24 25" fill="none" xmlns="http://www.w3.org/2000/svg">
<path d="M15.1254 12.5835H8.87562C6.0495 12.5835 3.75049 14.6643 3.75049 17.2221V19.2164C3.75049 20.1082 4.55359 20.8335 5.54064 20.8335H6.49614C6.88325 20.8335 7.19678 20.5497 7.19678 20.1994C7.19678 19.849 6.88325 19.5652 6.49614 19.5652H5.54064C5.32607 19.5652 5.15178 19.4083 5.15178 19.2164V17.2221C5.15178 15.3641 6.82281 13.8518 8.87562 13.8518H15.1254C17.1782 13.8518 18.8492 15.3642 18.8492 17.2221V19.2164C18.8492 19.4083 18.6749 19.5652 18.4603 19.5652H17.504C17.1168 19.5652 16.8033 19.849 16.8033 20.1994C16.8033 20.5497 17.1168 20.8335 17.504 20.8335H18.4603C19.4474 20.8335 20.2505 20.1082 20.2505 19.2164V17.2221C20.2505 14.6643 17.9515 12.5835 15.1254 12.5835Z" fill="#A853FF"/>
<path d="M12 11.0835C14.4815 11.0835 16.5005 9.23273 16.5005 6.95808C16.5005 4.68344 14.4815 2.8335 12 2.8335C9.5186 2.8335 7.50049 4.68426 7.50049 6.95808C7.50049 9.23191 9.51863 11.0835 12 11.0835ZM12 4.11799C13.7081 4.11799 15.099 5.39224 15.099 6.95788C15.099 8.5236 13.7089 9.7986 12 9.7986C10.292 9.7986 8.90197 8.52434 8.90197 6.95788C8.90197 5.39216 10.2921 4.11799 12 4.11799Z" fill="#A853FF"/>
<path d="M11.799 18.0168C11.5322 17.6611 11.0987 17.6611 10.8319 18.0168L9.3399 20.0061L9.51604 18.914C9.59555 18.4215 9.36042 17.9358 8.99106 17.831C8.62084 17.7261 8.25744 18.0384 8.1788 18.5309L7.51531 22.6465C7.46657 22.9497 7.53583 23.2644 7.69999 23.4832C7.82996 23.6565 8.00438 23.75 8.18393 23.75C8.23181 23.75 8.27969 23.7432 8.32757 23.7295L11.4143 22.8448C11.7837 22.7388 12.0188 22.2543 11.9393 21.7618C11.8598 21.2694 11.4964 20.9559 11.127 21.0619L10.3079 21.2967L11.7999 19.3074C12.0667 18.9517 12.0667 18.3738 11.7999 18.0181L11.799 18.0168Z" fill="#A853FF"/>
<path d="M15.6725 17.7722L12.5857 18.6568C12.2163 18.7628 11.9812 19.2472 12.0607 19.7397C12.1402 20.2321 12.5062 20.5445 12.873 20.4396L13.6921 20.2048L12.2001 22.194C11.9333 22.5496 11.9333 23.1276 12.2001 23.4833C12.3335 23.6611 12.5088 23.75 12.684 23.75C12.8593 23.75 13.0338 23.6611 13.168 23.4833L14.66 21.4941L14.4839 22.5861C14.4044 23.0786 14.6395 23.5642 15.0089 23.6691C15.0576 23.6827 15.1055 23.6896 15.1534 23.6896C15.4689 23.6896 15.7528 23.3966 15.8212 22.9691L16.4847 18.8538C16.5334 18.5506 16.4642 18.236 16.3 18.0171C16.1358 17.7982 15.8998 17.7047 15.6724 17.7709L15.6725 17.7722Z" fill="#A853FF"/>
</svg>
