<svg width="24" height="25" viewBox="0 0 24 25" fill="none" xmlns="http://www.w3.org/2000/svg">
<g clip-path="url(#clip0_482_836)">
<path d="M21.3053 16.2855V13.6673C21.3053 13.0455 20.7926 12.5436 20.1599 12.5436H19.3308V10.6782C19.3308 10.1764 18.9163 9.76182 18.4035 9.76182H15.3708C16.1235 8.79091 16.5599 7.56909 16.5599 6.26C16.5599 3.08545 13.9744 0.5 10.7999 0.5C7.62534 0.5 5.03989 3.08545 5.03989 6.26C5.03989 7.58 5.48716 8.79091 6.22898 9.76182H4.34171C3.28353 9.76182 2.43262 10.6018 2.43262 11.6273C2.43262 11.6818 2.43262 11.7364 2.44353 11.7909C2.44353 11.8236 2.43262 11.8455 2.43262 11.8782V23.3655C2.43262 23.9982 2.94534 24.5 3.57807 24.5H20.1599C20.7926 24.5 21.3053 23.9982 21.3053 23.3764V20.9436C21.8944 20.8455 22.3417 20.3436 22.3417 19.7218V17.4964C22.3417 16.8855 21.8944 16.3836 21.3053 16.2855ZM10.7999 1.46C13.4508 1.46 15.5999 3.60909 15.5999 6.26C15.5999 8.91091 13.4508 11.06 10.7999 11.06C8.14898 11.06 5.99989 8.91091 5.99989 6.26C5.99989 3.60909 8.14898 1.46 10.7999 1.46ZM4.34171 10.7327H7.02534C7.06898 10.7327 7.10171 10.7218 7.13443 10.7218C8.12716 11.54 9.40353 12.0309 10.789 12.0309C12.1963 12.0309 13.4835 11.5291 14.4763 10.6891C14.5417 10.7218 14.6072 10.7327 14.6835 10.7327H18.349V12.5436H4.34171C3.81807 12.5436 3.39262 12.14 3.39262 11.6382C3.39262 11.1364 3.81807 10.7327 4.34171 10.7327ZM20.1599 23.54H3.57807C3.47989 23.54 3.39262 23.4636 3.39262 23.3764V13.2527C3.67625 13.4164 4.00353 13.5036 4.34171 13.5036H18.829H18.8399H20.149C20.2472 13.5036 20.3344 13.58 20.3344 13.6673V16.2745H17.1381C15.8726 16.2745 14.8472 17.3 14.8472 18.5655V18.6745C14.8472 19.94 15.8726 20.9655 17.1381 20.9655H20.3344V23.3764C20.3453 23.4636 20.2581 23.54 20.1599 23.54ZM21.3817 19.7218C21.3817 19.8745 21.2508 19.9945 21.109 19.9945H17.149C16.4181 19.9945 15.8181 19.3945 15.8181 18.6636V18.5545C15.8181 17.8236 16.4181 17.2236 17.149 17.2236H21.109C21.2617 17.2236 21.3817 17.3545 21.3817 17.4964V19.7218ZM17.6726 18.5982V18.6309C17.6726 18.8927 17.4544 19.1109 17.1926 19.1109C16.9308 19.1109 16.7126 18.8927 16.7126 18.6309V18.5982C16.7126 18.3364 16.9308 18.1182 17.1926 18.1182C17.4544 18.1182 17.6726 18.3364 17.6726 18.5982ZM8.18171 6.26C8.18171 5.26727 8.72716 4.39455 9.53443 3.92545V3.10727C9.53443 2.84545 9.75262 2.62727 10.0144 2.62727C10.2763 2.62727 10.4944 2.84545 10.4944 3.10727V3.59818C10.6144 3.57636 10.7344 3.56545 10.8653 3.56545C10.9308 3.56545 11.0072 3.56545 11.0726 3.57636V3.10727C11.0726 2.84545 11.2908 2.62727 11.5526 2.62727C11.8144 2.62727 12.0326 2.84545 12.0326 3.10727V3.83818C12.2508 3.94727 12.4581 4.07818 12.6544 4.25273C12.8508 4.42727 12.8726 4.73273 12.6981 4.92909C12.5235 5.12545 12.2181 5.14727 12.0217 4.97273C11.7053 4.68909 11.3017 4.53636 10.8763 4.53636C9.92716 4.53636 9.15262 5.31091 9.15262 6.26C9.15262 7.20909 9.92716 7.98364 10.8763 7.98364C11.3017 7.98364 11.7053 7.83091 12.0217 7.54727C12.2181 7.37273 12.5235 7.38364 12.6981 7.59091C12.8726 7.79818 12.8617 8.09273 12.6544 8.26727C12.469 8.43091 12.2617 8.57273 12.0326 8.68182V9.41273C12.0326 9.67455 11.8144 9.89273 11.5526 9.89273C11.2908 9.89273 11.0726 9.67455 11.0726 9.41273V8.93273C11.0072 8.93273 10.9308 8.94364 10.8653 8.94364C10.7344 8.94364 10.6144 8.93273 10.4944 8.91091V9.40182C10.4944 9.66364 10.2763 9.88182 10.0144 9.88182C9.75262 9.88182 9.53443 9.66364 9.53443 9.40182V8.59455C8.73807 8.12545 8.18171 7.26364 8.18171 6.26Z" fill="#A853FF"/>
<path d="M12.382 18.5545C12.382 18.6418 12.382 18.7073 12.382 18.7727C12.382 19.82 12.382 20.8673 12.382 21.9036C12.382 22.1873 12.3057 22.2636 12.0329 22.2636C11.5639 22.2636 11.0839 22.2636 10.6148 22.2636C10.3748 22.2636 10.2875 22.1764 10.2875 21.9364C10.2875 20.8782 10.2875 19.82 10.2875 18.7618C10.2875 18.6964 10.2875 18.6309 10.2875 18.5545C10.222 18.5545 10.1675 18.5545 10.1239 18.5545C9.74204 18.5545 9.36022 18.5545 8.9784 18.5545C8.92386 18.5545 8.8475 18.5327 8.82568 18.5C8.80386 18.4564 8.82568 18.3691 8.8584 18.3254C9.62204 17.2454 10.3966 16.1545 11.1711 15.0745C11.2802 14.9218 11.4002 14.9218 11.5093 15.0745C12.2839 16.1545 13.0475 17.2345 13.8111 18.3254C13.8439 18.3691 13.8657 18.4564 13.8439 18.4891C13.822 18.5327 13.7348 18.5545 13.6802 18.5545C13.2657 18.5545 12.8402 18.5545 12.382 18.5545Z" fill="#A853FF"/>
</g>
<defs>
<clipPath id="clip0_482_836">
<rect width="24" height="24" fill="white" transform="translate(0 0.5)"/>
</clipPath>
</defs>
</svg>
