<svg width="72" height="72" viewBox="0 0 72 72" fill="none" xmlns="http://www.w3.org/2000/svg">
<path d="M67.7189 62.6062H65.7065V59.4617C65.7065 58.9879 65.3197 58.6029 64.8419 58.6029H62.3465V57.8564C62.3465 56.6986 61.5389 55.7251 60.4539 55.4628V29.6119C61.5389 29.3488 62.3465 28.3754 62.3465 27.2175V26.471H64.2909C64.7679 26.471 65.1555 26.0868 65.1555 25.6122V21.6088C65.1555 21.135 64.7687 20.75 64.2909 20.75H61.5101V17.618C61.5145 17.3153 61.3562 17.0258 61.0848 16.8664L36.274 2.32312C36.0033 2.16443 35.6668 2.16443 35.3954 2.32312L10.5853 16.8671C10.3139 17.0258 10.1564 17.3153 10.1601 17.618V20.7514H7.37848C6.90145 20.7514 6.51391 21.1357 6.51391 21.6103V25.6137C6.51391 26.0875 6.90071 26.4725 7.37848 26.4725H9.32284V27.219C9.32284 28.3768 10.1305 29.3503 11.2154 29.6133V55.4621C10.1305 55.7251 9.32284 56.6986 9.32284 57.8557V58.6021H6.82749C6.35046 58.6021 5.96292 58.9864 5.96292 59.461V62.6055H3.95051C3.47348 62.6055 3.08594 62.9897 3.08594 63.4644V67.4677C3.08594 67.9423 3.47348 68.3266 3.95051 68.3266H67.7189C68.1959 68.3266 68.5834 67.9423 68.5834 67.4677V63.4644C68.5834 62.9905 68.1959 62.6062 67.7189 62.6062ZM63.9773 60.3199V62.6055H43.2579C44.2201 61.9582 45.0928 61.189 45.8531 60.3199H63.9773ZM21.2553 55.4621V29.6119C22.3403 29.3488 23.1479 28.3754 23.1479 27.2175V26.471H25.3755C26.2778 29.2276 28.2554 31.5044 30.8144 32.8144V39.4729C25.9768 41.4434 22.5606 46.1719 22.5606 51.6791C22.5606 54.2168 23.2869 56.5883 24.542 58.6021H23.1479V57.8557C23.1479 56.6986 22.3403 55.7251 21.2553 55.4621ZM50.4141 29.6119V55.4621C49.3291 55.7251 48.5215 56.6986 48.5215 57.8557V58.6021H47.1274C48.3832 56.5883 49.1087 54.2168 49.1087 51.6791C49.1087 46.1719 45.6926 41.4434 40.855 39.4729V32.8144C43.4139 31.5044 45.3908 29.2269 46.2939 26.471H48.5222V27.2175C48.5215 28.3754 49.3291 29.3496 50.4141 29.6119ZM35.8347 34.0244C36.981 34.0244 38.086 33.8488 39.1258 33.5241V38.9035C38.0734 38.6361 36.9707 38.4928 35.8347 38.4928C34.6994 38.4928 33.5967 38.6354 32.5435 38.9035V33.5241C33.5834 33.8488 34.6883 34.0244 35.8347 34.0244ZM45.1024 23.1003C45.1024 28.177 40.9445 32.3067 35.8347 32.3067C30.7249 32.3067 26.567 28.1763 26.567 23.1003C26.567 18.0243 30.7242 13.8931 35.8347 13.8931C40.9452 13.8931 45.1024 18.0235 45.1024 23.1003ZM24.2898 51.6799C24.2898 45.3563 29.4691 40.2113 35.8347 40.2113C42.2003 40.2113 47.3796 45.3563 47.3796 51.6799C47.3796 58.0041 42.2003 63.1484 35.8347 63.1484C29.4691 63.1484 24.2898 58.0034 24.2898 51.6799ZM60.6174 57.8557V58.6021H50.2499V57.8557C50.2499 57.4443 50.5872 57.1092 51.0013 57.1092H59.866C60.2801 57.11 60.6174 57.4443 60.6174 57.8557ZM52.1432 55.3923V29.6817H58.7248V55.3923H52.1432ZM60.6174 27.2175C60.6174 27.6289 60.2801 27.9639 59.866 27.9639H51.0021C50.5879 27.9639 50.2506 27.6289 50.2506 27.2175V26.471H60.6181L60.6174 27.2175ZM63.4263 22.4684V24.7541H46.7058C46.7887 24.2148 46.8316 23.6623 46.8316 23.1003C46.8316 22.8879 46.8242 22.6778 46.8116 22.4684H63.4263ZM59.7802 20.7507H46.5727C46.3959 19.9528 46.1319 19.1873 45.7895 18.4651H59.7802V20.7507ZM35.8347 4.05994L57.4793 16.7474H44.7725C42.7749 13.982 39.5141 12.1754 35.8347 12.1754C32.1553 12.1754 28.8937 13.982 26.8968 16.7474H14.1908L35.8347 4.05994ZM11.8892 18.4651H25.8799C25.5375 19.1873 25.2734 19.9528 25.0967 20.7507H11.8892V18.4651ZM8.24305 24.7541V22.4684H24.8571C24.8452 22.6778 24.8371 22.8879 24.8371 23.1003C24.8371 23.6623 24.88 24.2148 24.9628 24.7541H8.24305ZM11.052 27.2175V26.471H21.4195V27.2175C21.4195 27.6289 21.0822 27.9639 20.6681 27.9639H11.8034C11.3885 27.9647 11.052 27.6297 11.052 27.2175ZM19.5261 29.6817V55.3923H12.9438V29.6817H19.5261ZM11.052 57.8557C11.052 57.4443 11.3892 57.1092 11.8034 57.1092H20.6681C21.0822 57.1092 21.4195 57.4443 21.4195 57.8557V58.6021H11.052V57.8557ZM7.69206 60.3199H25.8163C26.5766 61.189 27.4493 61.9582 28.4115 62.6055H7.69206V60.3199ZM66.8543 66.6088H4.81508V64.3232H32.065C33.2602 64.6759 34.5256 64.8654 35.8347 64.8654C37.1437 64.8654 38.4084 64.6751 39.6043 64.3232H66.8543V66.6088ZM36.6993 22.3119V18.7252C37.3627 18.8905 37.9218 19.2409 38.225 19.7097C38.4831 20.1086 39.0171 20.2247 39.4194 19.9683C39.821 19.7119 39.9379 19.1807 39.6798 18.7817C39.0667 17.8325 37.9676 17.1786 36.6993 16.9722V16.358C36.6993 15.8841 36.3125 15.4991 35.8347 15.4991C35.3569 15.4991 34.9701 15.8834 34.9701 16.358V16.9729C32.9888 17.2999 31.4926 18.7259 31.4926 20.4311C31.4926 22.1363 32.9888 23.5624 34.9701 23.8893V27.4761C34.3067 27.3108 33.7476 26.9603 33.4444 26.4916C33.1862 26.0927 32.6515 25.9766 32.2499 26.233C31.8483 26.4894 31.7315 27.0206 31.9896 27.4195C32.6027 28.3688 33.7017 29.0226 34.9701 29.2291V29.8433C34.9701 30.3172 35.3569 30.7021 35.8347 30.7021C36.3125 30.7021 36.6993 30.3179 36.6993 29.8433V29.2283C38.6806 28.9014 40.1768 27.4754 40.1768 25.7701C40.1768 24.0649 38.6806 22.6381 36.6993 22.3119ZM33.2217 20.4304C33.2217 19.6582 33.9643 18.9816 34.9701 18.7274V22.1327C33.9643 21.8792 33.2217 21.2033 33.2217 20.4304ZM36.6993 27.4724V24.0671C37.7058 24.3213 38.4476 24.9972 38.4476 25.7701C38.4476 26.5423 37.7051 27.219 36.6993 27.4724ZM31.923 53.4336L26.2489 49.2069C26.0315 49.0445 25.9028 48.7903 25.9028 48.5199C25.9028 48.2496 26.0308 47.9954 26.2489 47.833L31.923 43.6063C32.1848 43.4109 32.5354 43.38 32.8283 43.5255C33.1212 43.671 33.3061 43.9685 33.3061 44.2932V45.4599H39.3514C39.8284 45.4599 40.216 45.8442 40.216 46.3188C40.216 46.7934 39.8292 47.1777 39.3514 47.1777H32.4422C31.9652 47.1777 31.5776 46.7934 31.5776 46.3188V46.011L28.2088 48.5207L31.5776 51.0304V50.7218C31.5776 50.2479 31.9644 49.863 32.4422 49.863H36.6815C37.1585 49.863 37.5461 50.2472 37.5461 50.7218C37.5461 51.1957 37.1593 51.5807 36.6815 51.5807H33.3068V52.7474C33.3068 53.0728 33.1219 53.3697 32.829 53.5151C32.7062 53.5761 32.5739 53.6055 32.4422 53.6055C32.2581 53.6048 32.0754 53.5467 31.923 53.4336ZM39.7463 49.9261L45.4204 54.1528C45.6379 54.3152 45.7666 54.5694 45.7666 54.8398C45.7666 55.1101 45.6386 55.3643 45.4204 55.5267L39.7463 59.7534C39.594 59.8666 39.4113 59.9253 39.2279 59.9253C39.0962 59.9253 38.9639 59.8952 38.8411 59.835C38.5482 59.6895 38.3633 59.3919 38.3633 59.0672V57.9005H32.318C31.8409 57.9005 31.4534 57.5163 31.4534 57.0417C31.4534 56.5678 31.8402 56.1828 32.318 56.1828H39.2272C39.7042 56.1828 40.0917 56.567 40.0917 57.0417V57.3495L43.4605 54.8398L40.0917 52.3301V52.6379C40.0917 53.1118 39.7049 53.4968 39.2272 53.4968H34.9879C34.5108 53.4968 34.1233 53.1125 34.1233 52.6379C34.1233 52.164 34.5101 51.779 34.9879 51.779H38.3626V50.6131C38.3626 50.2876 38.5475 49.9908 38.8404 49.8453C39.1347 49.6991 39.4845 49.7314 39.7463 49.9261Z" fill="black"/>
</svg>
