<svg width="48" height="48" viewBox="0 0 48 48" fill="none" xmlns="http://www.w3.org/2000/svg">
<path d="M19.0473 28.5597C20.16 27.8615 21.2945 28.1888 22.32 28.5161C25.1782 29.4324 26.9018 31.4615 27.6436 34.3415C28.2982 36.9161 28.4291 39.5343 28.5164 42.1743C28.5382 42.7415 28.5382 43.3306 28.5382 43.8979C28.5382 44.5743 28.32 44.7706 27.6655 44.7706C25.7673 44.7706 23.8691 44.7706 21.9709 44.7706C15.8182 44.7706 9.66545 44.7706 3.51272 44.7706C2.4 44.7706 2.29091 44.6615 2.31272 43.527C2.35636 40.6252 2.48727 37.7234 3.07636 34.8652C3.62182 32.2906 4.90909 30.2834 7.26545 28.9961C8.31273 28.4288 9.42545 28.1452 10.6036 28.167C10.9527 28.167 11.3236 28.2979 11.6945 28.3634C12.0218 27.687 11.9127 27.0543 11.3236 26.5088C9.79636 25.0688 9.03273 23.2797 9.05454 21.1852C9.07636 19.6579 8.92363 18.1525 8.70545 16.647C8.46545 14.7488 9.16363 13.1997 10.6473 12.0434C13.0473 10.167 15.7527 9.447 18.7855 10.1015C19.6582 10.2979 20.2473 10.7997 20.5964 11.6506C20.7491 11.9997 21.0545 12.2834 21.2945 12.5888C21.7309 13.1343 22.2545 13.6361 22.6036 14.2252C23.1709 15.1852 23.2364 16.2761 22.6255 17.2143C21.8618 18.3925 21.84 19.6361 21.8836 20.9234C21.9273 22.7125 21.4473 24.327 20.3127 25.7452C20.0073 26.1379 19.6582 26.5088 19.2436 26.8143C18.9164 27.0543 18.8291 27.3379 18.8945 27.687C18.9164 27.9706 18.9818 28.2543 19.0473 28.5597ZM27.1855 43.4397C27.1855 43.287 27.2073 43.1997 27.2073 43.0906C27.1636 41.8906 27.1855 40.6906 27.0545 39.5125C26.8582 37.8106 26.6836 36.1088 26.2909 34.4506C25.6145 31.6579 23.5418 29.8906 20.7709 29.5197C20.4 29.4761 20.0509 29.4979 19.7236 29.7597C18.4582 30.6761 17.1491 31.5488 15.8836 32.4434C15.5345 32.6834 15.2291 32.727 14.8582 32.4652C13.7673 31.6579 12.6109 30.8943 11.5636 30.0434C10.9745 29.5634 10.3855 29.4106 9.66545 29.5852C9.62182 29.607 9.57818 29.607 9.53454 29.607C6.89454 30.2615 5.25818 31.9197 4.58182 34.5161C3.84 37.3961 3.73091 40.3415 3.70909 43.287C3.70909 43.3306 3.73091 43.3524 3.75272 43.3961C5.04 43.3961 6.30545 43.3961 7.59273 43.3961C7.59273 41.3888 7.59273 39.4252 7.59273 37.4615C7.59273 37.3088 7.57091 37.1779 7.59273 37.0252C7.65818 36.6761 7.87636 36.4579 8.24727 36.4579C8.61818 36.4579 8.83636 36.6324 8.90182 37.0034C8.92363 37.1561 8.92364 37.3088 8.92364 37.4834C8.92364 39.2943 8.92364 41.1052 8.92364 42.9161C8.92364 43.0906 8.92364 43.2434 8.92364 43.4179C13.3091 43.4179 17.6291 43.4179 21.9927 43.4179C21.9927 43.1561 21.9927 42.9379 21.9927 42.6979C21.9927 40.8652 21.9927 39.0543 21.9927 37.2215C21.9927 36.6761 22.3636 36.3488 22.8436 36.4797C23.2582 36.5888 23.3236 36.9161 23.3236 37.287C23.3236 39.1634 23.3236 41.0179 23.3236 42.8943C23.3236 43.0688 23.3236 43.2215 23.3236 43.4179C24.6327 43.4397 25.8764 43.4397 27.1855 43.4397ZM20.5309 20.5961C20.5309 19.9852 20.5309 19.5925 20.5309 19.1779C20.5309 18.567 19.7455 18.0215 19.1782 18.2397C17.0182 19.0688 14.8364 19.2652 12.6545 18.3488C12.1309 18.1306 11.7818 18.1961 11.28 18.4361C10.4945 18.807 10.3636 19.3088 10.4073 20.0725C10.4509 21.1415 10.3855 22.2106 10.7782 23.2143C11.5418 25.1997 12.8727 26.5743 15.0545 26.7925C17.0618 27.0106 18.5673 26.0288 19.6364 24.3706C20.4 23.1706 20.6182 21.8179 20.5309 20.5961ZM10.08 17.4761C10.1455 17.5197 10.2109 17.5415 10.2545 17.5634C10.6036 17.3015 10.9745 17.0397 11.3018 16.7561C11.6073 16.4943 11.9127 16.407 12.2618 16.647C13.3091 17.3452 14.4873 17.607 15.7309 17.5852C16.9964 17.5634 18.1745 17.2361 19.3091 16.7125C19.7455 16.5379 20.0727 16.5815 20.3782 16.9088C20.5527 17.1052 20.7709 17.2797 20.9673 17.4543C21.8618 16.1234 21.8836 15.2288 21.0109 14.1597C20.8364 13.9852 20.6618 13.7888 20.4436 13.6361C19.92 13.2434 19.5273 12.7634 19.3309 12.1306C19.2 11.6943 18.8727 11.4761 18.4364 11.3888C17.3236 11.127 16.2109 11.1488 15.0982 11.3888C13.8109 11.6725 12.6327 12.1525 11.6073 12.9815C10.8655 13.5488 10.2327 14.247 10.1018 15.207C9.99273 15.9488 10.08 16.7343 10.08 17.4761ZM17.52 27.9052C16.8 27.9925 16.1018 28.1452 15.4036 28.1452C14.6836 28.1234 13.9636 27.9488 13.2655 27.8397C13.1564 28.2543 13.0473 28.7125 12.9382 29.1706C12.9164 29.2579 12.96 29.4325 13.0473 29.4761C13.7455 29.9997 14.4436 30.5234 15.1636 31.0252C15.2509 31.0906 15.4255 31.0906 15.4909 31.047C16.32 30.5015 17.1273 29.9343 17.9127 29.3888C17.76 28.8652 17.6291 28.3634 17.52 27.9052Z" fill="#8D4CFF"/>
<path d="M27.6 19.178C27.0982 19.178 26.64 19.178 26.2036 19.178C25.6582 19.1562 25.4182 18.938 25.4182 18.3707C25.4182 13.5053 25.4182 8.66165 25.4182 3.7962C25.4182 3.25074 25.6582 3.01074 26.2036 3.01074C31.8982 3.01074 37.5927 3.01074 43.2654 3.01074C43.8109 3.01074 44.0509 3.25074 44.0509 3.7962C44.0509 8.66165 44.0509 13.5053 44.0509 18.3707C44.0509 18.9598 43.8109 19.1562 43.1782 19.1562C39.6872 19.1562 36.1963 19.1562 32.7054 19.1562C32.4 19.1562 32.1818 19.2435 31.9636 19.4835C30.96 20.7053 29.9345 21.9053 28.9091 23.1053C28.6691 23.3889 28.4291 23.6071 28.0363 23.4544C27.6436 23.3016 27.5782 22.9744 27.5782 22.6035C27.6 21.5126 27.6 20.378 27.6 19.178ZM28.9527 20.8798C28.9745 20.8798 29.0182 20.9016 29.04 20.9016C29.76 20.0507 30.5018 19.1998 31.2 18.3271C31.4836 17.978 31.8109 17.8253 32.2691 17.8253C35.5854 17.8471 38.88 17.8253 42.1963 17.8253C42.3709 17.8253 42.5236 17.8253 42.6982 17.8253C42.6982 13.2871 42.6982 8.8362 42.6982 4.34165C37.3745 4.34165 32.0727 4.34165 26.7709 4.34165C26.7709 8.8362 26.7709 13.3089 26.7709 17.8253C27.1854 17.8253 27.6 17.8253 27.9927 17.8253C28.7345 17.8253 28.9309 18.0217 28.9527 18.7635C28.9527 19.4835 28.9527 20.1816 28.9527 20.8798Z" fill="#8D4CFF"/>
<path d="M37.8545 40.6251C36.4364 40.5596 35.0618 40.4287 33.7527 39.8832C31.1564 38.7923 30.0218 36.5887 30.6545 33.8614C31.3309 31.0032 32.6618 28.4941 34.5818 26.2905C34.8 26.0505 34.8218 25.876 34.7127 25.5705C34.3418 24.6978 34.0145 23.8032 33.6655 22.9305C33.4036 22.2323 33.7745 21.7523 34.5164 21.8832C34.8436 21.9487 35.1491 22.0578 35.4327 22.2105C35.8473 22.4287 36.2182 22.4505 36.6109 22.2105C37.44 21.7087 38.2691 21.7305 39.0982 22.2105C39.4909 22.4287 39.84 22.4069 40.2327 22.2323C40.5818 22.0578 40.9745 21.9269 41.3673 21.8614C41.9345 21.796 42.2836 22.276 42.0873 22.8214C41.7382 23.7378 41.3891 24.6541 41.0182 25.5487C40.8873 25.8541 40.9091 26.0505 41.1491 26.3123C42.9382 28.3632 44.2036 30.6978 44.9236 33.3378C45.8836 36.8505 44.2691 39.556 40.6909 40.2978C39.7745 40.4723 38.7927 40.516 37.8545 40.6251ZM37.8764 26.8796C37.3309 26.8796 36.7855 26.9014 36.24 26.8796C35.9345 26.8578 35.7382 26.9669 35.5418 27.2069C33.9273 29.0832 32.7491 31.1996 32.1164 33.5996C31.92 34.3414 31.7891 35.1487 31.8764 35.8905C32.0727 37.396 33.1636 38.2251 34.4945 38.7487C35.5855 39.1851 36.7418 39.2287 37.8764 39.2287C38.9891 39.2287 40.1236 39.1632 41.1927 38.7705C43.3745 37.9851 44.2909 36.3051 43.7455 34.0578C43.1345 31.5705 41.9782 29.3887 40.3636 27.4032C40.0582 27.0105 39.7309 26.836 39.2291 26.8796C38.7709 26.9014 38.3345 26.8796 37.8764 26.8796ZM40.3418 23.6723C39.5782 23.8251 38.9455 23.6723 38.3345 23.3451C38.1164 23.2141 37.7236 23.1923 37.5273 23.3014C36.8727 23.6505 36.2182 23.8687 35.4109 23.6723C35.6509 24.3051 35.8473 24.8505 36.0873 25.396C36.1309 25.4832 36.2836 25.5487 36.3927 25.5487C37.3745 25.5705 38.3782 25.5705 39.36 25.5487C39.4691 25.5487 39.6436 25.4614 39.6873 25.3741C39.8836 24.8287 40.08 24.2832 40.3418 23.6723Z" fill="#8D4CFF"/>
<path d="M35.3018 12.6761C34.9091 12.6761 34.56 12.6761 34.1672 12.6761C34.1672 13.4615 34.1672 14.2034 34.1672 14.967C34.1672 16.2106 34.1018 16.2761 32.88 16.2761C32.2691 16.2761 31.6363 16.2761 31.0254 16.2761C30.4363 16.2543 30.2182 16.0361 30.2182 15.447C30.2182 14.247 30.2182 13.0252 30.2182 11.8252C30.2182 11.6725 30.2182 11.5197 30.2182 11.3234C30.1309 11.3452 30.0654 11.367 30.0218 11.3888C29.6727 11.5634 29.3454 11.5415 29.1054 11.1925C28.8872 10.887 28.9527 10.5161 29.3018 10.2543C30.9382 8.87973 32.5527 7.527 34.1891 6.17427C34.5818 5.847 34.8654 5.86882 35.2582 6.19609C36.8509 7.527 38.4436 8.83609 40.0145 10.167C40.4291 10.5161 40.5382 10.8652 40.32 11.1925C40.1454 11.5197 39.84 11.5634 39.2727 11.3234C39.2727 11.4979 39.2509 11.6288 39.2509 11.7815C39.2509 12.9815 39.2509 14.2034 39.2509 15.4034C39.2509 16.0361 39.0327 16.2543 38.4 16.2761C37.6363 16.2761 36.8727 16.2761 36.1091 16.2761C35.52 16.2761 35.3018 16.0579 35.3018 15.4688C35.3018 14.5306 35.3018 13.6361 35.3018 12.6761ZM32.8363 14.9015C32.8363 13.9415 32.8363 13.0252 32.8363 12.1088C32.8363 11.5415 33.0763 11.3015 33.6436 11.3015C34.2982 11.3015 34.9745 11.3015 35.6291 11.3015C36.4582 11.3015 36.6327 11.4761 36.6327 12.3052C36.6327 13.1561 36.6327 14.0288 36.6327 14.8797C37.0909 14.8797 37.4836 14.8797 37.92 14.8797C37.92 14.7052 37.92 14.5525 37.92 14.3997C37.92 13.2434 37.8763 12.0652 37.9418 10.9088C37.9636 10.3415 37.8109 9.94882 37.3309 9.59973C36.4363 8.92336 35.6072 8.18154 34.7345 7.46154C33.7091 8.31245 32.6836 9.16336 31.7018 10.0143C31.5927 10.1015 31.5709 10.3197 31.5491 10.4725C31.5491 11.8252 31.5491 13.1779 31.5491 14.5306C31.5491 14.6615 31.5709 14.7706 31.5709 14.9234C32.0072 14.9015 32.4 14.9015 32.8363 14.9015Z" fill="#8D4CFF"/>
<path d="M37.1563 30.9378C37.2436 30.1524 37.44 29.8906 37.8981 29.9124C38.3345 29.9342 38.5091 30.196 38.5745 30.9596C39.1636 31.156 39.6872 31.4833 39.8836 32.116C40.0363 32.5742 39.7309 33.0324 39.2945 32.9451C39.0981 32.9015 38.9018 32.7051 38.7927 32.5306C38.4872 32.0069 37.5709 31.8106 37.1127 32.1815C36.8291 32.4215 36.8727 32.7269 37.2654 32.8578C37.7891 33.0324 38.3563 33.1415 38.88 33.316C39.8181 33.6215 40.2545 34.2978 40.1236 35.1706C40.0145 35.8687 39.5563 36.3269 38.9018 36.5233C38.6618 36.6106 38.5745 36.6978 38.5527 36.9597C38.5527 37.3742 38.2472 37.6578 37.8763 37.636C37.5054 37.636 37.2218 37.3742 37.2218 36.9815C37.2218 36.6542 37.0691 36.5669 36.8072 36.4578C36.2618 36.2396 35.8691 35.8469 35.6945 35.2797C35.5636 34.8869 35.6945 34.5378 36.0218 34.4069C36.3491 34.2978 36.6763 34.4287 36.7854 34.8215C36.9818 35.5415 38.2691 35.6942 38.7927 35.2797C39.12 35.0178 39.0763 34.6251 38.6618 34.4724C38.16 34.276 37.6145 34.1669 37.0909 34.0142C36.1091 33.7087 35.6291 32.9887 35.8472 32.116C35.9345 31.5924 36.3272 31.2433 37.1563 30.9378Z" fill="#8D4CFF"/>
</svg>
