<svg width="186" height="186" viewBox="0 0 186 186" fill="none" xmlns="http://www.w3.org/2000/svg">
<path d="M94.4373 70.68C100.947 70.7646 107.119 72.2018 112.868 75.2455C114.136 75.9218 114.982 75.7527 116.081 75.0764C128.763 67.0446 141.36 59.0127 154.042 50.9809C154.38 50.7273 154.718 50.4737 155.141 50.3046C155.648 50.1355 156.24 49.9664 156.832 49.8818C156.663 50.4737 156.747 51.15 156.409 51.6573C150.068 60.9573 143.727 70.2573 137.302 79.4727C135.019 82.77 132.736 86.1518 130.454 89.4491C129.693 90.4636 129.608 91.2246 130.2 92.4082C142.966 117.518 127.748 146.855 99.9327 150.914C75.4991 154.549 52.9255 133.92 54.3627 109.233C55.5464 89.4491 69.5809 73.9773 89.1109 71.1027C90.8018 70.8491 92.5773 70.8491 94.4373 70.68ZM94.4373 76.3446C75.2455 76.3446 59.7737 91.8164 59.7737 111.008C59.7737 130.115 75.1609 145.587 94.2682 145.672C113.46 145.756 129.016 130.285 129.016 111.093C129.101 91.9009 113.629 76.3446 94.4373 76.3446Z" fill="#C8D3FF" fill-opacity="0.5"/>
<path d="M8.20093 108.218C9.21547 86.1521 17.1627 67.4676 31.62 51.8267C36.6082 56.5612 41.5118 61.2112 46.5846 65.9457C45.6546 67.0448 44.8091 67.9748 44.0482 68.9048C35.0018 79.8112 29.9291 92.3239 28.9146 106.528C28.83 107.119 28.1537 108.134 27.7309 108.134C21.3055 108.218 14.9646 108.218 8.20093 108.218Z" fill="#C8D3FF" fill-opacity="0.5"/>
<path d="M180.674 113.798C179.659 135.865 171.712 154.634 157.255 170.19C152.182 165.456 147.278 160.89 142.29 156.156C143.474 154.718 144.573 153.535 145.503 152.267C154.042 141.529 158.945 129.355 159.96 115.658C160.045 114.813 159.791 113.714 161.228 113.714C167.569 113.883 173.91 113.798 180.674 113.798Z" fill="#C8D3FF" fill-opacity="0.5"/>
<path d="M8.20093 114.052C8.87729 113.967 9.30002 113.883 9.80729 113.883C15.5564 113.883 21.3055 113.883 27.1391 113.883C28.3227 113.883 28.9146 114.052 28.9991 115.405C29.9291 130.285 35.4246 143.22 45.2318 154.465C45.4855 154.803 45.7391 155.141 45.8237 155.31C41.0046 160.129 36.27 164.864 31.2818 169.767C16.9091 154.042 9.21547 135.526 8.20093 114.052Z" fill="#C8D3FF" fill-opacity="0.5"/>
<path d="M91.5627 24.772C91.5627 31.5356 91.5627 37.8765 91.4782 44.2174C91.4782 44.6402 90.4636 45.4011 89.8718 45.4011C80.0645 46.0774 70.8491 48.7829 62.3945 53.602C58.3364 56.0538 54.4473 59.0129 50.9809 61.3801C46.1618 56.8147 41.2582 52.1647 36.1009 47.4302C51.9954 33.2265 70.2573 25.7865 91.5627 24.772Z" fill="#C8D3FF" fill-opacity="0.5"/>
<path d="M97.5655 24.772C117.941 25.702 135.78 32.7192 151.505 46.3311C149.476 47.6838 147.616 48.7829 145.841 49.9665C142.121 52.3338 138.401 54.6165 134.765 56.9838C133.582 57.7447 132.821 57.8292 131.637 56.9838C121.745 50.1356 110.839 46.3311 98.9182 45.4856C97.9037 45.4011 97.1428 45.4011 97.1428 44.0483C97.2273 37.8765 97.1428 31.7047 97.2273 25.5329C97.3119 25.3638 97.3964 25.1947 97.5655 24.772Z" fill="#C8D3FF" fill-opacity="0.5"/>
<path d="M160.045 55.3774C170.951 65.692 180.927 91.4784 180.505 107.965C180.251 108.049 179.913 108.218 179.575 108.218C173.572 108.218 167.485 108.218 161.482 108.218C160.298 108.218 159.96 107.711 159.875 106.612C159.199 94.8602 155.31 84.1229 148.885 74.3156C148.546 73.7238 148.293 72.6247 148.546 72.202C152.351 66.5374 156.155 61.042 160.045 55.3774Z" fill="#C8D3FF" fill-opacity="0.5"/>
<path d="M94.5219 81.7558C110.755 81.8403 123.69 94.8603 123.69 111.093C123.69 127.41 110.501 140.43 94.1837 140.346C77.9509 140.261 65.0155 127.157 65.1 110.924C65.1846 94.6067 78.2891 81.6712 94.5219 81.7558ZM97.3964 129.609C100.525 128.256 103.568 127.495 106.02 125.804C111.769 122.084 111.685 115.32 106.02 111.347C105.09 110.67 103.991 109.994 102.892 109.74C99.8482 109.064 96.8046 108.472 93.7609 108.134C90.8864 107.796 88.0964 107.373 85.8137 105.513C83.9537 103.991 83.8691 102.3 85.8982 101.117C87.5046 100.102 89.3646 99.3412 91.2246 99.0031C96.2128 97.9885 101.032 99.0031 105.682 100.779C107.373 101.37 108.81 101.455 109.909 99.764C110.839 98.1576 110.163 96.2976 108.134 95.6212C104.667 94.5221 101.116 93.5921 97.4809 92.5776C96.9737 89.2803 96.2973 88.1812 94.5219 88.1812C92.6618 88.1812 91.9855 89.1958 91.3937 92.8312C89.3646 93.423 87.3355 93.9303 85.4755 94.7758C81.7555 96.3821 78.8809 98.9185 78.7964 103.315C78.7118 107.711 81.5018 110.501 85.3064 111.854C88.4346 113.038 91.9009 113.207 95.1982 113.968C97.8191 114.559 100.525 115.067 102.892 116.25C105.344 117.519 105.259 119.801 102.892 121.323C101.455 122.169 99.7637 122.845 98.0728 123.183C93.1691 124.198 88.4346 123.268 83.7846 121.577C81.0791 120.647 79.4728 121.069 78.8809 122.845C78.0355 124.62 78.9655 125.973 81.7555 126.819C84.8837 127.833 88.1809 128.509 91.3937 129.355C91.9009 132.737 92.5773 133.836 94.4373 133.836C96.2973 133.92 97.0582 132.737 97.3964 129.609Z" fill="#C8D3FF" fill-opacity="0.5"/>
</svg>
