<svg width="56" height="57" viewBox="0 0 56 57" fill="none" xmlns="http://www.w3.org/2000/svg">
<path d="M18.0472 26.0056C19.7527 26.6165 21.4581 26.7947 23.2145 26.642C23.6218 26.6165 24.029 26.5402 24.4363 26.4893C25.2254 26.3874 25.9381 26.1329 26.5999 25.5983C28.3818 24.1474 30.4436 23.7911 32.6581 24.3765C34.0836 24.7583 35.509 25.2165 36.9345 25.5729C37.6218 25.7511 38.36 25.7765 39.1745 25.8783C39.0218 25.3947 38.8945 25.0129 38.7672 24.6311C38.589 24.122 38.7163 23.8165 39.1999 23.6129C43.069 21.9838 47.0909 21.4493 51.2399 22.2383C51.749 22.3402 51.9527 22.5693 51.9527 23.0783C51.9527 28.882 51.9527 34.6602 51.9527 40.4638C51.9527 41.0493 51.7236 41.3038 51.1127 41.3038C49.1272 41.3038 47.1672 41.3038 45.1818 41.3038C44.6981 41.3038 44.4181 41.1002 44.2909 40.642C44.2145 40.4129 44.1381 40.1583 44.0363 39.9038C42.9672 40.3874 41.8981 40.8711 40.8545 41.3547C42.3818 43.6456 40.549 46.2929 37.9781 45.9365C37.8763 46.802 37.4945 47.5147 36.7818 48.0493C36.069 48.5583 35.2545 48.6856 34.3636 48.5074C34.1854 49.4747 33.7272 50.2383 32.8363 50.722C31.9454 51.1802 31.0545 51.1547 30.1381 50.722C30.0872 50.8238 30.0363 50.9002 29.9854 50.9765C29.1454 52.6056 27.2363 52.9111 25.9636 51.6129C23.4181 49.042 20.8981 46.4456 18.3781 43.8493C17.2836 42.7293 16.1636 41.6347 14.8145 40.8202C14.3054 40.5147 13.7963 40.2856 13.2109 39.9802C13.109 40.2602 13.0072 40.4893 12.9309 40.7183C12.8036 41.1002 12.549 41.2783 12.1672 41.2783C10.1563 41.2783 8.11995 41.2783 6.10904 41.2783C5.52358 41.2783 5.31995 41.0238 5.31995 40.3365C5.31995 35.2202 5.31995 30.1038 5.31995 24.9874C5.31995 24.3511 5.31995 23.6893 5.31995 23.0529C5.31995 22.5438 5.52358 22.3147 6.03267 22.2129C10.1818 21.4238 14.1527 21.9583 18.0218 23.562C18.5309 23.7911 18.6836 24.0711 18.5054 24.6056C18.3527 25.0893 18.1999 25.522 18.0472 26.0056ZM13.6436 38.682C16.0363 39.5983 17.8436 41.2529 19.5745 43.0347C21.9672 45.5292 24.3854 47.9983 26.829 50.4674C27.0072 50.6456 27.2363 50.8238 27.4654 50.9256C27.8981 51.0783 28.3818 50.8747 28.6109 50.4929C28.8909 50.0602 28.8145 49.5765 28.4327 49.1438C27.1599 47.8456 25.8872 46.5474 24.6399 45.2493C24.5127 45.122 24.3854 44.9693 24.2836 44.8165C24.1054 44.5365 24.1563 44.1802 24.4363 44.0274C24.6654 43.9002 24.9963 43.9002 25.2509 43.9511C25.4036 43.9765 25.5054 44.1547 25.6327 44.282C27.1854 45.8602 28.7381 47.4638 30.3163 49.042C31.0036 49.7292 31.8436 49.8056 32.4545 49.2202C33.0654 48.6347 33.0399 47.7438 32.3527 47.0311C31.2836 45.9365 30.2145 44.842 29.1454 43.7474C28.8909 43.4674 28.5854 43.2129 28.3563 42.9329C28.1018 42.6274 28.1272 42.2711 28.4072 41.9911C28.6872 41.7111 29.0181 41.7111 29.349 41.9402C29.4509 42.0165 29.5527 42.1438 29.6545 42.2456C31.0545 43.6711 32.4545 45.122 33.8545 46.5474C34.0327 46.7256 34.2109 46.9038 34.4399 47.0311C35.0509 47.3365 35.8145 47.1583 36.2218 46.5983C36.629 46.0383 36.5781 45.2747 36.069 44.7402C34.7709 43.3911 33.4472 42.042 32.149 40.6929C31.7418 40.2856 31.7163 39.8529 32.0472 39.5474C32.3527 39.242 32.7854 39.3183 33.1672 39.7002C33.8545 40.3874 34.5418 41.1002 35.229 41.7874C35.9927 42.5765 36.7309 43.3656 37.5199 44.1292C38.029 44.6383 38.8181 44.6893 39.3781 44.2565C39.9127 43.8747 40.1672 43.1111 39.7854 42.5256C39.429 41.9656 38.9199 41.482 38.4363 41.0493C38.0036 40.6674 37.469 40.3874 37.0618 39.9802C34.669 37.6383 32.3272 35.2456 29.9599 32.9038C29.8327 32.7765 29.7054 32.6747 29.5781 32.5474C28.6872 33.2856 28.0254 34.0493 27.9999 35.2965C27.9999 36.442 27.4909 37.4347 26.6763 38.2493C25.4036 39.522 23.8509 40.082 22.069 40.1583C21.3054 40.1838 21.0763 39.9802 21.0763 39.1911C21.0763 37.1038 21.1272 34.9911 21.0509 32.9038C20.9999 31.3765 21.509 30.1293 22.6799 29.162C23.0618 28.8311 23.4181 28.4747 23.7999 28.1183C21.6363 28.322 19.549 28.0674 17.5127 27.3802C16.2399 31.1729 14.9672 34.8893 13.6436 38.682ZM22.5527 38.7583C23.1127 38.5802 23.6218 38.4783 24.1054 38.2747C25.6581 37.6129 26.6509 36.5183 26.6509 34.7111C26.6509 33.8965 27.0072 33.1838 27.5418 32.5729C27.9745 32.0893 28.4581 31.6565 28.9418 31.2493C29.5781 30.7147 29.7818 30.7147 30.3672 31.3256C32.9636 33.922 35.5599 36.4929 38.1309 39.0893C39.0981 40.0565 39.9636 40.2347 41.2109 39.6747C41.8727 39.3947 42.509 39.0383 43.1709 38.7329C43.4509 38.6056 43.5018 38.4783 43.3999 38.1983C42.1781 34.6856 40.9563 31.1474 39.7345 27.6093C39.6581 27.3547 39.5309 27.2783 39.2763 27.2783C38.6145 27.2529 37.9272 27.2783 37.2909 27.1256C35.6872 26.7438 34.0836 26.3111 32.5054 25.8529C30.3672 25.242 28.509 25.6493 26.9054 27.1765C25.7345 28.2711 24.5636 29.3911 23.3927 30.4856C22.7818 31.0456 22.5018 31.7074 22.5018 32.5474C22.5272 34.4565 22.5018 36.3656 22.5018 38.2747C22.5272 38.3765 22.5527 38.5038 22.5527 38.7583ZM16.9781 24.7329C13.6436 23.4347 10.2581 22.9765 6.7454 23.5874C6.7454 29.0347 6.7454 34.4565 6.7454 39.8783C6.89813 39.8783 7.05086 39.9038 7.17813 39.9038C8.52722 39.9038 9.90177 39.9038 11.2509 39.9038C11.6072 39.9038 11.7599 39.7765 11.8618 39.4456C13.0072 36.1111 14.1781 32.7765 15.3236 29.442C15.8836 27.8638 16.4181 26.3111 16.9781 24.7329ZM50.5018 23.562C46.9636 22.9765 43.6036 23.4093 40.32 24.682C40.32 24.7329 40.2945 24.7583 40.2945 24.7838C42 29.722 43.7054 34.6602 45.4363 39.5983C45.4872 39.7256 45.7418 39.8529 45.8945 39.8529C47.32 39.8783 48.7709 39.8529 50.1963 39.8529C50.2981 39.8529 50.3745 39.8274 50.4763 39.8274C50.5018 34.4311 50.5018 29.0347 50.5018 23.562Z" fill="#8D4CFF"/>
<path d="M35.5346 21.0674C35.5346 21.7292 35.5346 22.3147 35.5346 22.9001C35.5346 23.511 35.28 23.791 34.6946 23.791C30.6473 23.791 26.6255 23.791 22.5782 23.791C21.9673 23.791 21.7382 23.5365 21.7128 22.9256C21.7128 22.3401 21.7128 21.7292 21.7128 21.0928C21.4837 21.0928 21.28 21.0928 21.1019 21.0928C18.2509 21.0928 15.4 21.0928 12.5237 21.0928C11.5309 21.0928 11.3782 20.9147 11.3782 19.9219C11.3782 18.8274 11.3273 17.7328 11.4546 16.6638C11.7091 14.5256 12.8546 12.9983 14.7382 12.031C14.7891 11.9801 14.84 11.9547 14.8909 11.9292C14.9164 11.9292 14.9164 11.9038 14.9419 11.8783C14.0764 10.8092 13.6691 9.58739 13.9491 8.18739C14.1273 7.1183 14.6619 6.25285 15.5019 5.56557C17.2328 4.16557 19.7782 4.26739 21.3819 5.82012C22.8582 7.22012 23.3673 9.74012 21.6364 11.9038C22.9855 12.5656 24.0291 13.5328 24.6655 14.9328C24.8691 14.831 25.0728 14.7292 25.2509 14.6274C23.7237 12.1838 23.9019 9.9183 25.7346 8.36557C27.44 6.91466 29.9091 6.94012 31.5891 8.41648C32.9382 9.58739 33.9309 12.1328 31.9964 14.6274C32.1746 14.7292 32.3528 14.8056 32.5055 14.8819C32.9637 14.2965 33.3455 13.6601 33.88 13.151C34.3891 12.6419 35.0255 12.2856 35.5855 11.8528C33.8291 9.68921 34.4655 7.14376 35.9419 5.79466C37.5964 4.29285 40.1164 4.21648 41.8219 5.64194C43.2473 6.81285 44.2655 9.40921 42.4073 11.8019C43.12 12.4128 43.8837 12.9728 44.52 13.6601C45.4364 14.6783 45.8437 15.951 45.8691 17.3256C45.8946 18.2674 45.8691 19.2092 45.8691 20.1765C45.8691 20.8638 45.64 21.1183 44.9273 21.1183C42 21.1183 39.0982 21.1183 36.1709 21.1183C35.9673 21.0674 35.7891 21.0674 35.5346 21.0674ZM34.1091 22.3401C34.1091 21.4492 34.16 20.5838 34.1091 19.7438C33.9564 17.8856 32.6837 16.3074 30.9273 15.7728C30.7237 15.7219 30.4437 15.7219 30.24 15.7983C29.1455 16.1801 28.0764 16.1801 27.0073 15.7983C26.7782 15.7219 26.4982 15.6965 26.2946 15.7728C24.7673 16.2819 23.6982 17.2747 23.3419 18.8274C23.0873 19.9474 23.1382 21.1183 23.0364 22.3147C26.8037 22.3401 30.4182 22.3401 34.1091 22.3401ZM12.88 19.6165C12.9055 19.6165 12.9564 19.6419 13.0073 19.6419C15.8073 19.6419 18.6073 19.6419 21.4328 19.6419C21.7637 19.6419 21.7637 19.4638 21.8146 19.2347C21.9673 18.0383 22.4764 16.9692 23.2909 16.0783C23.4946 15.8747 23.4946 15.6965 23.3673 15.4674C22.7819 14.271 21.8655 13.4565 20.5928 13.0492C20.3891 12.9728 20.1346 12.9983 19.9309 13.0492C18.8364 13.4565 17.7419 13.4565 16.6473 13.0492C16.4691 12.9983 16.2146 12.9728 16.0109 13.0492C14.28 13.6347 13.16 14.8056 12.9055 16.6128C12.7528 17.5801 12.88 18.5983 12.88 19.6165ZM44.4182 19.6165C44.4182 18.751 44.4691 17.8856 44.4182 17.0456C44.3164 15.1619 42.9928 13.5328 41.2109 13.0238C41.0073 12.9728 40.7782 12.9728 40.5746 13.0492C39.48 13.4565 38.3855 13.4565 37.2909 13.0492C37.1128 12.9728 36.8582 12.9728 36.6546 13.0238C35.3564 13.431 34.44 14.271 33.8546 15.4674C33.7273 15.7219 33.7528 15.8747 33.9564 16.0783C34.7709 16.9692 35.28 17.9874 35.4328 19.1838C35.4837 19.5401 35.6364 19.6419 35.9673 19.6419C38.64 19.6165 41.2873 19.6419 43.96 19.6419C44.1128 19.6419 44.2655 19.6419 44.4182 19.6165ZM28.6364 14.6783C30.2909 14.6783 31.64 13.3547 31.6655 11.7256C31.6655 10.0965 30.2909 8.72194 28.6364 8.72194C26.9819 8.72194 25.6328 10.071 25.6073 11.6747C25.5819 13.3292 26.9564 14.6783 28.6364 14.6783ZM18.3019 11.9292C19.9564 11.9292 21.3055 10.6056 21.3309 8.97648C21.3564 7.32194 19.9819 5.97285 18.3019 5.97285C16.6219 5.9983 15.2728 7.34739 15.2728 9.00194C15.2728 10.631 16.6473 11.9292 18.3019 11.9292ZM38.9455 11.9292C40.6 11.9292 41.9491 10.6056 41.9746 8.97648C41.9746 7.32194 40.6255 5.97285 38.9455 5.97285C37.2655 5.97285 35.9164 7.32194 35.9164 8.95103C35.9419 10.631 37.2909 11.9292 38.9455 11.9292Z" fill="#8D4CFF"/>
</svg>
