<svg width="45" height="45" viewBox="0 0 45 45" fill="none" xmlns="http://www.w3.org/2000/svg">
<rect width="45" height="45" rx="10" fill="#7289DA"/>
<rect x="0.5" y="0.5" width="44" height="44" rx="9.5" stroke="#9C9C9C" stroke-opacity="0.467"/>
<g clipPath="url(#clip0_296_371)">
<path d="M29.94 15.7111C29.9338 15.6993 29.9234 15.6902 29.9109 15.6856C28.524 15.0491 27.0604 14.5951 25.5567 14.3349C25.529 14.3298 25.5012 14.343 25.4876 14.3677C25.2881 14.7297 25.1071 15.1015 24.9451 15.4817C23.3234 15.2356 21.6738 15.2356 20.0521 15.4817C19.8895 15.1005 19.706 14.7286 19.5024 14.3677C19.488 14.3438 19.4607 14.3309 19.4332 14.3349C17.9269 14.594 16.4608 15.048 15.0717 15.6856C15.0595 15.6908 15.0493 15.6997 15.0426 15.7111C12.2685 19.8577 11.5076 23.8988 11.8789 27.8926C11.881 27.9129 11.8916 27.9314 11.908 27.9436C13.524 29.1388 15.3311 30.051 17.2525 30.6413C17.2808 30.65 17.3115 30.6398 17.3289 30.6158C17.7412 30.0546 18.1065 29.4604 18.4211 28.8392C18.4296 28.8219 18.4305 28.8019 18.4236 28.7839C18.4166 28.7659 18.4026 28.7517 18.3847 28.7445C17.8075 28.5233 17.2487 28.2567 16.7137 27.9472C16.6945 27.9355 16.6822 27.9151 16.6807 27.8927C16.6793 27.8702 16.6889 27.8485 16.7064 27.8344C16.8192 27.7506 16.9321 27.6632 17.0377 27.5759C17.0567 27.5592 17.0836 27.5549 17.1068 27.565C20.6091 29.1632 24.4027 29.1632 27.8649 27.565C27.8874 27.5539 27.9143 27.5568 27.9341 27.5722C28.0396 27.6596 28.1525 27.7506 28.2654 27.8344C28.2829 27.8485 28.2924 27.8702 28.291 27.8927C28.2895 27.9151 28.2773 27.9355 28.2581 27.9472C27.7244 28.2583 27.1654 28.5238 26.587 28.7409C26.5692 28.748 26.5551 28.7623 26.5482 28.7803C26.5413 28.7982 26.5422 28.8183 26.5506 28.8355C26.8708 29.4536 27.2358 30.0474 27.6428 30.6122C27.6602 30.6362 27.691 30.6464 27.7193 30.6376C29.6461 30.05 31.4585 29.1377 33.0783 27.9399C33.0951 27.9281 33.1057 27.9094 33.1074 27.889C33.5515 23.2763 32.3574 19.268 29.94 15.7111ZM18.9454 25.4607C17.8896 25.4607 17.0231 24.4923 17.0231 23.3054C17.0231 22.1186 17.875 21.1465 18.9454 21.1465C20.0266 21.1465 20.8858 22.1222 20.8676 23.3018C20.8676 24.4923 20.0157 25.4607 18.9454 25.4607ZM26.0591 25.4607C25.0034 25.4607 24.1369 24.4923 24.1369 23.3054C24.1369 22.1186 24.9852 21.1465 26.0591 21.1465C27.1404 21.1465 27.9996 22.1222 27.9814 23.3018C27.9814 24.4923 27.1368 25.4607 26.0591 25.4607Z" fill="white"/>
</g>
<defs>
<clipPath id="clip0_296_371">
<rect width="23.31" height="18.64" fill="white" transform="translate(10.84 13.1699)"/>
</clipPath>
</defs>
</svg>
