<svg width="211" height="178" viewBox="0 0 211 178" fill="none" xmlns="http://www.w3.org/2000/svg">
<g opacity="0.1">
<path d="M86.5741 123.03C89.4817 123.574 92.3712 121.998 93.4876 119.259L139.961 9.10513C134.451 6.58571 128.105 6.51716 122.668 9.49994L-24.7098 90.3486C-29.2545 92.8417 -32.0282 97.3744 -32.67 102.408C-32.5498 102.395 -32.4287 102.393 -32.3081 102.4L86.5741 123.03Z" stroke="#7F56D9" stroke-width="2"/>
<path d="M98.7945 122.015C96.735 127.086 91.3882 130.003 86.0095 128.992L67.9679 125.859L38.1983 221.897C38.1751 221.968 38.1237 222.015 38.099 222.083C39.8411 221.961 41.5359 221.462 43.0668 220.622L199.165 134.989C200.027 134.506 200.827 133.918 201.546 133.24L105.106 107.098L98.7945 122.015Z" stroke="#7F56D9" stroke-width="2"/>
<path d="M62.0919 124.837L-32.4304 108.427C-32.0465 110.275 -31.3905 112.056 -30.484 113.711L24.794 214.477C26.5031 217.63 29.3026 220.054 32.6688 221.293C32.5278 220.765 32.5289 220.21 32.6721 219.683L62.0919 124.837Z" stroke="#7F56D9" stroke-width="2"/>
<path d="M204.229 127.841C204.436 127.915 204.634 128.013 204.818 128.133C206.173 124.217 205.795 119.91 203.779 116.289L150.304 18.8096C148.963 16.3608 147.188 14.1767 145.065 12.3645L107.418 101.595L204.229 127.841Z" stroke="#7F56D9" stroke-width="2"/>
</g>
</svg>
