<svg width="178" height="178" viewBox="0 0 178 178" fill="none" xmlns="http://www.w3.org/2000/svg">
<path d="M171.527 171.042C170.637 172.337 169.343 172.66 167.805 172.66C115.295 172.66 62.7854 172.66 10.2754 172.66C9.87085 172.66 9.54722 172.66 9.14267 172.66C7.6054 172.498 6.55358 171.447 6.63449 170.071C6.63449 168.777 7.6054 167.725 9.06176 167.563C9.46631 167.482 9.87085 167.482 10.4372 167.482C10.4372 166.835 10.4372 166.268 10.4372 165.702C10.4372 158.097 10.4372 150.491 10.4372 142.805C10.4372 140.135 11.2463 139.326 13.9163 139.326C17.6381 139.326 21.4409 139.326 25.1627 139.326C27.5899 139.326 28.4799 140.216 28.4799 142.643C28.4799 150.815 28.4799 159.067 28.4799 167.401C30.179 167.401 31.7972 167.401 33.6581 167.401C33.6581 166.835 33.6581 166.187 33.6581 165.54C33.6581 152.918 33.6581 140.297 33.6581 127.675C33.6581 124.6 34.3054 123.953 37.4609 123.953C41.1018 123.953 44.7427 123.953 48.3836 123.953C50.8109 123.953 51.7009 124.843 51.7009 127.27C51.7009 139.973 51.7009 152.676 51.7009 165.459C51.7009 166.107 51.7009 166.754 51.7009 167.482C53.3999 167.482 55.0181 167.482 56.879 167.482C56.879 166.916 56.879 166.268 56.879 165.702C56.879 145.394 56.879 125.005 56.879 104.697C56.879 101.703 57.6072 100.975 60.6009 100.975C64.1609 100.975 67.8018 100.975 71.3618 100.975C74.1127 100.975 74.9218 101.784 74.9218 104.535C74.9218 124.843 74.9218 145.232 74.9218 165.54C74.9218 166.187 74.9218 166.835 74.9218 167.563C76.7018 167.563 78.3199 167.563 80.0999 167.563C80.0999 166.835 80.0999 166.268 80.0999 165.621C80.0999 148.307 80.0999 131.073 80.0999 113.758C80.0999 110.684 80.8281 109.956 83.9027 109.956C87.5436 109.956 91.1845 109.956 94.8254 109.956C97.2527 109.956 98.1427 110.846 98.1427 113.273C98.1427 130.749 98.1427 148.145 98.1427 165.621C98.1427 166.268 98.1427 166.916 98.1427 167.563C99.9227 167.563 101.46 167.563 103.321 167.563C103.321 166.916 103.321 166.349 103.321 165.702C103.321 138.193 103.321 110.603 103.321 83.0938C103.321 79.8574 104.049 79.2102 107.124 79.2102C110.603 79.2102 114.082 79.2102 117.561 79.2102C120.554 79.2102 121.283 79.9383 121.283 82.932C121.283 110.522 121.283 138.112 121.283 165.702C121.283 166.268 121.283 166.835 121.283 167.563C122.982 167.563 124.6 167.563 126.461 167.563C126.461 166.916 126.461 166.349 126.461 165.702C126.461 139.002 126.461 112.383 126.461 85.6829C126.461 82.5274 127.108 81.7992 130.344 81.7992C133.904 81.7992 137.464 81.7992 140.944 81.7992C143.694 81.7992 144.504 82.6083 144.504 85.3593C144.504 112.059 144.504 138.84 144.504 165.54C144.504 166.187 144.504 166.835 144.504 167.563C146.203 167.563 147.821 167.563 149.682 167.563C149.682 166.916 149.682 166.268 149.682 165.621C149.682 136.494 149.682 107.447 149.682 78.3202C149.682 76.8638 150.086 76.1356 151.543 76.0547C157.125 75.6502 162.061 73.7083 166.511 70.3102C166.673 70.1483 166.915 70.0674 167.077 69.9865C167.239 69.9056 167.401 69.9056 167.724 69.8247C167.724 102.431 167.724 134.957 167.724 166.835C169.343 167.806 170.475 168.534 171.608 169.181C171.527 169.747 171.527 170.395 171.527 171.042ZM139.244 167.401C139.244 140.539 139.244 113.758 139.244 87.0583C136.655 87.0583 134.228 87.0583 131.72 87.0583C131.72 113.92 131.72 140.62 131.72 167.401C134.228 167.401 136.655 167.401 139.244 167.401ZM92.8027 167.401C92.8027 149.925 92.8027 132.529 92.8027 115.134C90.2136 115.134 87.7863 115.134 85.2781 115.134C85.2781 132.61 85.2781 149.925 85.2781 167.401C87.7863 167.401 90.2945 167.401 92.8027 167.401ZM46.4418 167.401C46.4418 154.617 46.4418 141.915 46.4418 129.212C43.8527 129.212 41.4254 129.212 38.9172 129.212C38.9172 141.996 38.9172 154.617 38.9172 167.401C41.4254 167.401 43.8527 167.401 46.4418 167.401Z" fill="#C8D3FF" fill-opacity="0.5"/>
<path d="M171.527 52.5102C171.204 53.7238 170.961 55.0184 170.556 56.232C167.482 66.6693 156.721 73.3038 146.122 71.362C134.956 69.2584 127.189 59.4684 128.079 48.3838C128.888 37.2993 137.788 28.7229 149.035 28.2374C159.795 27.752 169.424 35.6811 171.204 46.442C171.285 46.7656 171.365 47.0084 171.527 47.332C171.527 49.0311 171.527 50.7302 171.527 52.5102ZM147.174 50.7302C145.96 49.5165 144.908 48.5456 143.856 47.5747C142.643 46.442 141.186 46.442 140.135 47.4938C139.164 48.4647 139.083 49.9211 140.135 51.1347C141.753 52.8338 143.371 54.5329 145.07 56.232C146.041 57.2029 147.335 57.3647 148.387 56.4747C152.028 53.4811 155.588 50.4065 159.148 47.332C160.2 46.442 160.281 45.1474 159.391 44.0147C158.582 42.882 157.206 42.7202 155.993 43.4484C155.507 43.772 155.184 44.0956 154.779 44.4193C152.19 46.442 149.682 48.6265 147.174 50.7302Z" fill="#C8D3FF" fill-opacity="0.5"/>
<path d="M171.527 14.8062C171.446 16.9098 171.285 19.0944 171.123 21.198C171.042 22.4116 170.476 23.5444 169.262 23.7062C168.372 23.7871 167.239 23.4635 166.592 22.8162C166.026 22.2498 166.025 21.1171 165.702 20.0653C164.326 22.0071 162.951 23.868 161.656 25.8098C160.038 25.1625 158.42 24.5962 156.721 23.9489C158.258 21.7644 159.715 19.6607 161.333 17.3144C160.686 17.5571 160.362 17.638 160.038 17.7189C158.582 18.2853 157.287 17.7998 156.64 16.5862C155.993 15.2916 156.397 13.9162 157.854 13.188C160.766 11.6507 163.679 10.1944 166.511 8.65709C166.996 8.41436 167.482 8.00982 167.967 7.76709C169.181 7.76709 170.314 7.76709 171.527 7.76709C171.527 10.0325 171.527 12.4598 171.527 14.8062Z" fill="#C8D3FF" fill-opacity="0.5"/>
<path d="M50.3255 21.2791C49.2736 16.7482 54.8564 11.4891 58.9018 12.3791C59.7109 12.5409 60.2773 12.46 60.7627 11.6509C63.2709 7.84816 71.0382 7.92907 73.4655 11.6509C73.9509 12.3791 74.5173 12.5409 75.3264 12.3791C79.3718 11.4891 84.9546 16.7482 84.2264 20.9554C84.0646 21.9263 84.2264 22.5736 85.1164 23.2209C88.5955 25.6482 88.6764 33.1727 85.0355 35.6C84.2264 36.1663 83.9836 36.7327 84.2264 37.6227C85.1164 41.9918 79.3718 47.4127 75.1646 46.4418C74.76 46.3609 73.87 46.7654 73.6273 47.17C71.0382 50.8109 63.2709 50.8918 60.8436 47.17C60.3582 46.3609 59.7918 46.28 58.9827 46.4418C54.9373 47.3318 49.3546 42.0727 50.0827 37.8654C50.2446 36.8136 50.0018 36.2473 49.1118 35.6C45.6327 33.1727 45.6327 25.81 49.0309 23.2209C49.5973 22.8163 49.9209 21.9263 50.3255 21.2791ZM67.0736 37.0563C71.3618 37.0563 74.76 33.6582 74.76 29.4509C74.76 25.2436 71.3618 21.8454 67.0736 21.8454C62.9473 21.8454 59.4682 25.2436 59.4682 29.37C59.3873 33.6582 62.7855 37.0563 67.0736 37.0563Z" fill="#C8D3FF" fill-opacity="0.5"/>
<path d="M10.4373 73.3846C10.0327 72.7373 9.70911 71.8473 9.14275 71.4428C5.66366 68.9346 5.66366 61.4101 9.22366 58.9828C10.0327 58.4164 10.2755 57.931 10.0327 56.9601C9.14275 52.7528 14.7255 47.251 18.8518 48.141C19.7418 48.3028 20.2273 48.0601 20.8746 47.3319C23.9491 43.691 30.5837 43.691 33.5773 47.4937C34.1437 48.2219 34.6291 48.3837 35.4382 48.2219C39.6455 47.3319 45.2282 52.7528 44.3382 56.9601C44.1764 57.8501 44.3382 58.4164 45.1473 58.9828C48.8691 61.4101 48.7882 69.0964 45.1473 71.4428C44.3382 71.9282 44.0955 72.4946 44.3382 73.4655C45.2282 77.9155 39.2409 83.3364 35.1146 82.2846C34.71 82.2037 33.9009 82.5273 33.7391 82.851C31.3118 86.7346 23.2209 86.7346 20.7127 82.9319C20.47 82.5273 19.6609 82.2037 19.1755 82.2846C15.0491 83.2555 9.38548 77.8346 10.4373 73.3846ZM26.9427 72.8182C31.2309 72.8992 34.71 69.6628 34.7909 65.3746C34.8718 61.2482 31.5546 57.6882 27.4282 57.6073C23.14 57.4455 19.58 60.7628 19.4991 64.9701C19.4182 69.2582 22.7355 72.7373 26.9427 72.8182Z" fill="#C8D3FF" fill-opacity="0.5"/>
<path d="M86.6537 83.822C89.1618 79.1293 91.67 74.5984 94.0973 69.9866C98.0618 62.8666 101.945 55.6657 105.748 48.5457C106.962 46.2802 107.933 45.8757 110.279 46.9275C114.001 48.5457 117.723 50.2447 121.445 51.8629C122.335 52.2675 122.739 52.7529 122.82 53.7238C122.982 55.2611 123.386 56.7175 123.791 58.4975C118.936 56.3938 114.325 54.2902 109.551 52.1866C109.227 52.8338 108.904 53.3193 108.58 53.8857C102.593 65.0511 96.5246 76.1357 90.5373 87.3011C89.2427 89.7284 88.3527 90.052 85.6827 89.0811C79.6955 86.8157 73.6273 84.5502 67.64 82.2038C66.5073 81.7184 65.86 81.9611 65.1318 82.932C56.96 93.1266 48.7073 103.321 40.3737 113.435C39.6455 114.244 38.5937 114.972 37.5418 115.296C28.48 117.804 19.4182 120.15 10.3564 122.497C9.6282 122.658 8.57638 122.901 8.09093 122.497C7.36275 122.011 6.71547 121.04 6.55366 120.15C6.39184 118.856 7.36275 118.047 8.65729 117.723C11.9746 116.833 15.2918 115.943 18.6091 115.053C24.03 113.597 29.5318 112.221 34.9527 110.765C35.8427 110.522 36.7327 109.956 37.2991 109.308C45.8755 98.8711 54.3709 88.3529 62.8664 77.8347C64.3227 75.9738 64.97 75.812 67.1546 76.702C73.3037 78.9675 79.3718 81.3138 85.5209 83.5793C85.8446 83.5793 86.1682 83.6602 86.6537 83.822Z" fill="#C8D3FF" fill-opacity="0.5"/>
<path d="M22.0882 31.9593C17.8 31.9593 14.3209 28.642 14.3209 24.4348C14.3209 20.1466 17.7191 16.7484 21.9264 16.6675C26.2955 16.6675 29.7746 20.0657 29.7746 24.2729C29.7746 28.5611 26.3764 31.9593 22.0882 31.9593Z" fill="#C8D3FF" fill-opacity="0.5"/>
</svg>
