<svg width="56" height="57" viewBox="0 0 56 57" fill="none" xmlns="http://www.w3.org/2000/svg">
<path d="M52.4109 29.7474C52.1055 42.7292 41.4655 53.1146 28.3055 52.8601C15.2727 52.6055 4.88727 41.9146 5.16727 28.7292C5.44727 15.6456 16.2145 5.31101 29.3491 5.59101C42.28 5.89646 52.6655 16.6128 52.4109 29.7474ZM26.4982 26.1837C26.4982 27.7619 26.5491 29.2892 26.4727 30.8165C26.4473 31.2746 26.1418 31.7074 25.9891 32.1655C25.9127 32.3946 25.76 32.6237 25.76 32.8528C25.7345 34.4819 25.76 36.0855 25.76 37.7146C25.76 39.0637 25.7345 40.4128 25.76 41.7619C25.76 42.6783 26.6509 43.2128 27.4145 42.8055C27.8727 42.551 28.0255 42.1692 28.0255 41.6601C28.0255 39.471 28.0255 37.2819 28.0255 35.0928C28.0255 34.6601 28 34.2274 28.0255 33.7946C28.0509 33.3365 28.3564 33.031 28.7891 33.031C29.1964 33.031 29.5018 33.3365 29.5527 33.7946C29.5527 33.9219 29.5527 34.0492 29.5527 34.1765C29.5527 36.671 29.5527 39.1655 29.5527 41.6601C29.5527 42.4237 30.0364 42.9583 30.7236 42.9328C31.3855 42.9328 31.8436 42.4237 31.8436 41.6601C31.8436 38.6819 31.8436 35.7292 31.8436 32.751C31.8436 32.6237 31.8436 32.4455 31.7418 32.3437C31.1309 31.7328 31.0545 30.9437 31.0545 30.1292C31.08 28.8055 31.0545 27.5074 31.0545 26.1837C31.5891 26.1837 32.0727 26.1837 32.5818 26.1837C32.5818 26.3874 32.5818 26.5655 32.5818 26.7183C32.5818 28.0419 32.5818 29.3655 32.5818 30.6637C32.5818 31.1219 32.8873 31.4528 33.2945 31.4783C33.7018 31.5037 34.0836 31.1983 34.0836 30.7655C34.0836 29.1874 34.16 27.5837 33.9818 26.0056C33.7018 23.4601 31.36 21.5765 28.7636 21.5765C26.1673 21.5765 23.8255 23.4855 23.5455 26.0056C23.3673 27.5074 23.4436 29.0092 23.4436 30.511C23.4436 31.1219 23.7236 31.4528 24.2073 31.4528C24.6909 31.4528 24.9709 31.0965 24.9709 30.511C24.9709 29.4419 24.9709 28.3474 24.9709 27.2783C24.9709 26.8965 24.9709 26.5401 24.9709 26.1583C25.5055 26.1837 25.9891 26.1837 26.4982 26.1837ZM37.8509 17.911C37.8509 17.7837 37.8509 17.7328 37.8255 17.6565C37.1636 15.4928 36.3236 13.4056 35.0764 11.5219C34.2364 10.2237 33.2436 9.02737 31.9455 8.16192C30.4945 7.19464 28.9418 6.81283 27.2364 7.37283C25.7091 7.85646 24.5636 8.84919 23.5455 10.0456C21.6873 12.2856 20.5673 14.9328 19.7018 17.6819C19.6764 17.7328 19.7018 17.8092 19.7018 17.8856C19.8036 17.8856 19.88 17.8856 19.9564 17.8856C21.56 17.6565 23.1636 17.4528 24.7673 17.1983C24.8945 17.1728 25.0218 16.9946 25.0727 16.8674C25.6073 15.0856 27.0327 13.9656 28.7636 13.9656C30.52 13.9656 31.9455 15.0601 32.4545 16.8419C32.5309 17.0965 32.6327 17.1983 32.8873 17.2237C33.6509 17.3001 34.4145 17.3765 35.1527 17.4783C36.0436 17.6056 36.9345 17.7583 37.8509 17.911ZM19.7273 40.5401C19.7527 40.6419 19.7527 40.7437 19.7782 40.8201C20.3127 42.6019 21 44.3074 21.9164 45.9365C22.8582 47.6165 23.9782 49.1437 25.5818 50.2383C26.9818 51.2056 28.5091 51.5874 30.1891 51.1037C31.8182 50.6455 33.0145 49.5765 34.0582 48.3037C35.7636 46.2419 36.8073 43.8237 37.6473 41.3292C37.7236 41.0746 37.8 40.8201 37.8764 40.5401C36.3236 40.7692 34.8473 40.9983 33.3455 41.2274C33.4218 42.4746 33.0909 43.5183 31.9455 44.1292C30.8 44.7401 29.7309 44.4855 28.7891 43.6965C27.7964 44.511 26.7273 44.7401 25.6073 44.1292C24.4618 43.4928 24.1309 42.4492 24.2073 41.2274C22.7055 40.9983 21.2291 40.7692 19.7273 40.5401ZM7.38182 34.5074C8.34909 38.4783 10.2836 41.9146 13.16 44.8165C15.9345 47.591 21.2291 50.5692 23.4436 50.5946C22.8836 49.9328 22.2727 49.2965 21.7382 48.5837C19.9309 46.1401 18.8364 43.391 18.0473 40.4892C17.9455 40.1837 17.8182 40.031 17.5127 39.9546C13.7455 38.8855 10.2073 37.3583 7.38182 34.5074ZM50.2727 34.4565C49.5345 35.0928 48.8727 35.7037 48.16 36.2383C45.7418 38.0455 42.9673 39.1401 40.0909 39.9546C39.7855 40.031 39.6582 40.1837 39.5818 40.4637C38.9709 42.6783 38.1818 44.8165 37.0364 46.8019C36.2473 48.2019 35.28 49.4746 34.1345 50.6201C38.0545 49.6528 41.4655 47.7692 44.3418 44.9183C47.2691 42.0165 49.2291 38.5292 50.2727 34.4565ZM50.1964 23.8419C48.4909 16.1546 41.7964 9.48555 34.1345 7.80555C34.6691 8.44192 35.28 9.05283 35.7891 9.7401C37.6473 12.2092 38.7418 15.0092 39.5564 17.9365C39.6327 18.2419 39.76 18.3692 40.0655 18.4456C42.7636 19.1837 45.3345 20.1765 47.6509 21.7801C48.5418 22.4419 49.3818 23.1801 50.1964 23.8419ZM7.38182 23.9437C7.89091 23.4855 8.32364 23.0528 8.80727 22.671C11.3782 20.5837 14.3564 19.3619 17.4873 18.4965C17.8182 18.3946 17.9709 18.2674 18.0727 17.9365C18.7091 15.4674 19.6 13.1001 20.9745 10.9874C21.7127 9.86737 22.5782 8.84919 23.3164 7.85646C16.1127 9.40919 9.18909 15.8492 7.38182 23.9437ZM41.1091 28.4237C44.2909 28.4237 47.5236 28.4237 50.7818 28.4237C50.7818 28.3474 50.7818 28.2965 50.7818 28.2455C50.7818 28.1692 50.7564 28.0928 50.7309 28.0165C50.3491 26.4637 49.4327 25.2419 48.2618 24.1983C46.7855 22.8746 45.0545 21.9074 43.2473 21.1692C42.2291 20.7619 41.1855 20.4056 40.1927 20.0492C40.4982 22.8746 40.8036 25.6237 41.1091 28.4237ZM17.4618 20.0746C15.0436 20.7874 12.7782 21.7037 10.7164 23.1037C9.52 23.9183 8.42546 24.8855 7.63637 26.1328C7.20364 26.8455 6.84727 27.5837 6.74546 28.4237C10.0291 28.4237 13.2873 28.4237 16.52 28.4237C16.6218 27.0237 16.6982 25.6492 16.8509 24.2746C17.0291 22.9001 17.2582 21.5256 17.4618 20.0746ZM41.1091 30.0019C40.8036 32.8019 40.4982 35.551 40.2182 38.3001C42.3055 37.8674 45.92 36.1365 47.7782 34.6092C48.9236 33.6928 49.8909 32.6237 50.4509 31.2746C50.6036 30.8674 50.7055 30.4601 50.8582 30.0019C47.5236 30.0019 44.2909 30.0019 41.1091 30.0019ZM17.36 38.351C17.0545 35.5255 16.7491 32.7765 16.4691 30.0019C13.2873 30.0019 10.0291 30.0019 6.77091 30.0019C6.79637 30.1546 6.82182 30.2819 6.84727 30.4092C7.17818 31.8092 7.96727 32.9037 8.98546 33.871C10.5891 35.4237 12.5236 36.4928 14.5855 37.3328C15.5018 37.7146 16.4691 38.0201 17.36 38.351ZM18.1745 30.0019C18.1491 30.0783 18.1236 30.1037 18.1236 30.1292C18.1745 32.9801 18.5055 35.7801 19.1673 38.5546C19.1927 38.6819 19.3709 38.8346 19.4982 38.8601C20.4655 39.0637 21.4327 39.2419 22.4 39.4201C22.9855 39.5219 23.5709 39.5728 24.1818 39.6492C24.1818 37.4092 24.1818 35.2201 24.1818 33.0565C22.3745 32.8019 21.7891 31.631 21.9164 30.0019C20.6436 30.0019 19.4218 30.0019 18.1745 30.0019ZM33.3964 39.7255C35.0255 39.4201 36.5782 39.1655 38.1309 38.8601C38.2582 38.8346 38.4109 38.631 38.4364 38.4783C38.7673 36.4165 39.0727 34.3546 39.3527 32.2674C39.4545 31.5292 39.4291 30.7655 39.4545 30.0019C38.1564 30.0019 36.9091 30.0019 35.6873 30.0019C35.4073 32.2674 35.0509 32.751 33.3709 33.0565C33.3964 35.2455 33.3964 37.4092 33.3964 39.7255ZM26.0909 20.6092C25.7855 20.1001 25.4545 19.6419 25.2509 19.1328C25.1236 18.7765 24.9455 18.7001 24.6145 18.751C22.9345 19.0056 21.2545 19.2601 19.5745 19.5401C19.2945 19.5656 19.1927 19.6928 19.1418 19.9728C18.8873 21.6528 18.5564 23.3328 18.3273 25.0128C18.1745 26.1328 18.1745 27.2783 18.0982 28.4237C19.4218 28.4237 20.6691 28.4237 21.9673 28.4237C21.6618 24.8855 22.8582 22.1874 26.0909 20.6092ZM39.3782 28.4492C39.4036 28.3983 39.4291 28.3728 39.4291 28.3728C39.4036 25.4965 39.0473 22.6455 38.3855 19.8456C38.36 19.7437 38.2073 19.6165 38.1055 19.591C36.3236 19.311 34.5418 19.031 32.76 18.751C32.6582 18.7256 32.48 18.7765 32.4291 18.8528C32.0982 19.4383 31.7927 20.0237 31.4873 20.6346C31.6145 20.711 31.8182 20.7874 31.9964 20.8892C34.3127 22.2128 35.5345 24.1983 35.6364 26.8456C35.6618 27.3801 35.6364 27.9146 35.6364 28.4492C36.9345 28.4492 38.1564 28.4492 39.3782 28.4492ZM31.08 17.7837C31.08 16.5365 30.0618 15.5183 28.8145 15.4928C27.5418 15.4928 26.5236 16.511 26.5236 17.7837C26.5236 19.031 27.5418 20.0492 28.7891 20.0746C30.0364 20.0746 31.08 19.0565 31.08 17.7837Z" fill="#8D4CFF"/>
</svg>
