<svg width="45" height="45" viewBox="0 0 45 45" fill="none" xmlns="http://www.w3.org/2000/svg">
<rect width="45" height="45" rx="10" fill="#181818"/>
<rect width="45" height="45" rx="10" fill="white" fill-opacity="0.01"/>
<rect x="0.5" y="0.5" width="44" height="44" rx="9.5" stroke="#9C9C9C" stroke-opacity="0.467"/>
<g clipPath="url(#clip0_296_351)">
<path d="M19.0736 28.3789C19.0736 28.4621 18.9779 28.5287 18.8572 28.5287C18.7199 28.5412 18.6242 28.4746 18.6242 28.3789C18.6242 28.2957 18.7199 28.2291 18.8406 28.2291C18.9654 28.2166 19.0736 28.2832 19.0736 28.3789ZM17.7795 28.1917C17.7503 28.2749 17.8336 28.3706 17.9584 28.3956C18.0666 28.4372 18.1914 28.3956 18.2164 28.3123C18.2414 28.2291 18.1623 28.1334 18.0375 28.0959C17.9293 28.0668 17.8086 28.1084 17.7795 28.1917ZM19.6188 28.1209C19.4981 28.15 19.4149 28.2291 19.4273 28.3248C19.4398 28.408 19.548 28.4621 19.6729 28.433C19.7935 28.4039 19.8768 28.3248 19.8643 28.2416C19.8518 28.1625 19.7394 28.1084 19.6188 28.1209ZM22.3569 12.1748C16.5852 12.1748 12.17 16.5567 12.17 22.3284C12.17 26.9433 15.0746 30.8923 19.2234 32.2822C19.7561 32.3779 19.9433 32.0492 19.9433 31.7787C19.9433 31.5207 19.9309 30.0975 19.9309 29.2236C19.9309 29.2236 17.0179 29.8478 16.4062 27.9836C16.4062 27.9836 15.9319 26.7726 15.2494 26.4606C15.2494 26.4606 14.2965 25.8072 15.316 25.8197C15.316 25.8197 16.3521 25.9029 16.9222 26.8933C17.8336 28.4996 19.3608 28.0377 19.9558 27.763C20.0515 27.0972 20.322 26.6353 20.6216 26.3607C18.2955 26.1027 15.9485 25.7656 15.9485 21.7625C15.9485 20.6181 16.2648 20.0438 16.9306 19.3115C16.8224 19.041 16.4687 17.9257 17.0388 16.4859C17.9085 16.2155 19.91 17.6095 19.91 17.6095C20.7423 17.3765 21.637 17.2558 22.5233 17.2558C23.4097 17.2558 24.3044 17.3765 25.1366 17.6095C25.1366 17.6095 27.1382 16.2113 28.0079 16.4859C28.578 17.9299 28.2243 19.041 28.1161 19.3115C28.7819 20.048 29.1897 20.6223 29.1897 21.7625C29.1897 25.7781 26.7387 26.0985 24.4126 26.3607C24.7954 26.6894 25.12 27.3136 25.12 28.2915C25.12 29.6939 25.1075 31.4291 25.1075 31.7704C25.1075 32.0408 25.2989 32.3696 25.8274 32.2739C29.9887 30.8923 32.81 26.9433 32.81 22.3284C32.81 16.5567 28.1286 12.1748 22.3569 12.1748ZM16.2148 26.5271C16.1607 26.5687 16.1732 26.6645 16.2439 26.7435C16.3105 26.8101 16.4062 26.8392 16.4603 26.7851C16.5144 26.7435 16.5019 26.6478 16.4312 26.5687C16.3646 26.5022 16.2689 26.473 16.2148 26.5271ZM15.7654 26.1901C15.7363 26.2442 15.7779 26.3107 15.8611 26.3524C15.9277 26.394 16.0109 26.3815 16.04 26.3232C16.0692 26.2691 16.0276 26.2026 15.9443 26.1609C15.8611 26.136 15.7945 26.1485 15.7654 26.1901ZM17.1137 27.6715C17.0471 27.7256 17.072 27.8504 17.1678 27.9295C17.2635 28.0252 17.3841 28.0377 17.4382 27.9711C17.4923 27.917 17.4674 27.7922 17.3841 27.7131C17.2926 27.6174 17.1678 27.6049 17.1137 27.6715ZM16.6393 27.0598C16.5727 27.1014 16.5727 27.2096 16.6393 27.3053C16.7059 27.401 16.8182 27.4426 16.8723 27.401C16.9389 27.3469 16.9389 27.2387 16.8723 27.143C16.814 27.0473 16.7059 27.0057 16.6393 27.0598Z" fill="white"/>
</g>
<defs>
<clipPath id="clip0_296_351">
<rect width="20.64" height="21.31" fill="white" transform="translate(12.17 11.8398)"/>
</clipPath>
</defs>
</svg>
