<svg width="56" height="56" viewBox="0 0 56 56" fill="none" xmlns="http://www.w3.org/2000/svg">
<path d="M55.0073 44.1638C54.5237 45.4365 53.6073 46.022 52.1818 45.9202C52.2328 46.3784 52.3091 46.8111 52.3346 47.2183C52.4364 48.7456 51.3928 49.8656 49.8655 49.8911C48.7964 49.9165 47.7273 49.8911 46.6328 49.8911C45.9964 49.8911 45.6146 49.5856 45.64 49.102C45.64 48.6184 46.0218 48.3383 46.6328 48.3383C47.6764 48.3383 48.72 48.3383 49.7637 48.3383C50.5273 48.3383 50.8328 47.982 50.7818 47.2438C50.6291 45.182 49 43.6802 46.8364 43.6802C41.7709 43.6802 36.7055 43.6547 31.64 43.7056C30.1382 43.7311 28.9418 43.2474 27.8473 42.2293C24.7673 39.3274 21.6364 36.502 18.5055 33.6256C17.9709 33.142 17.92 32.6583 18.3528 32.302C18.6837 32.022 19.0909 32.0474 19.5237 32.4293C21.0255 33.8038 22.5528 35.2038 24.0546 36.5784C25.7855 38.182 27.5164 39.7856 29.2728 41.3638C30.3928 42.382 31.8946 42.382 32.8618 41.3638C33.8037 40.3711 33.7782 38.8693 32.7346 37.8256C31.2582 36.3238 29.7818 34.8474 28.3055 33.3456C28.1018 33.142 27.9237 32.8111 27.9491 32.5565C27.9746 32.3274 28.2291 31.9965 28.4582 31.9456C28.7128 31.8693 29.0946 31.9965 29.2728 32.1747C30.0364 32.8874 30.7491 33.6511 31.4873 34.3638C31.6909 34.5674 31.9964 34.7202 32.2764 34.7711C37.0618 35.4838 41.72 32.0474 42.4328 27.3129C43.1964 22.2474 39.9128 17.6147 35.0255 16.8511C29.7818 15.9602 25.1237 19.3965 24.4364 24.6147C24.3346 25.3274 24.3855 26.0656 24.4364 26.8038C24.4618 27.1093 24.6655 27.4402 24.8691 27.6947C25.3782 28.2802 25.9637 28.8147 26.4982 29.3747C26.88 29.782 26.9055 30.2402 26.6 30.5711C26.2691 30.902 25.8109 30.8511 25.4037 30.4693C23.6728 28.6874 21.9164 26.982 20.2109 25.2002C18.0473 22.9347 15.4255 21.8402 12.2946 21.8911C10.8437 21.9165 9.39276 21.8911 7.86548 21.8911C7.86548 22.3238 7.86548 22.7311 7.86548 23.1129C7.86548 23.7238 7.58548 24.0802 7.07639 24.0547C6.59276 24.0547 6.31276 23.6984 6.31276 23.0874C6.31276 22.2474 6.2873 21.382 6.31276 20.542C6.31276 20.1093 6.18548 19.9565 5.75276 19.9565C4.70912 19.982 3.66548 19.982 2.62185 19.9565C2.01094 19.9565 1.62912 19.5747 1.70548 19.0911C1.78185 18.7093 2.03639 18.4547 2.44366 18.4547C3.71639 18.4547 4.98912 18.4293 6.23639 18.4547C7.1273 18.4802 7.6873 19.1165 7.91639 20.3384C8.09457 20.3384 8.29821 20.3384 8.50185 20.3384C10.2837 20.3638 12.0655 20.3384 13.8473 20.4147C15.4509 20.4911 16.9273 21.0002 18.3273 21.7893C18.4291 21.8402 18.5055 21.8656 18.6582 21.942C18.76 21.7638 18.8364 21.5856 18.8618 21.4074C20.5673 15.5529 25.7346 11.2765 31.7673 10.6147C33.5237 10.4365 35.2546 10.5384 36.9855 10.9202C37.2146 10.9711 37.5455 10.9202 37.7491 10.8184C38.8946 10.2329 39.7346 9.34199 40.3455 8.22199C40.4473 8.04381 40.5237 7.89108 40.6255 7.7129C41.0328 7.05108 41.7455 7.00017 42.0764 7.7129C42.84 9.26562 43.9855 10.4111 45.5382 11.1747C46.2 11.5056 46.1746 12.2184 45.5382 12.6002C45.1055 12.8802 44.6218 13.1093 44.2146 13.4147C43.9091 13.6184 43.6291 13.8984 43.3746 14.1274C44.1128 14.942 44.8509 15.6802 45.4873 16.4947C47.1418 18.6074 48.1091 21.0256 48.4909 23.6984C48.5673 24.2074 48.3128 24.5893 47.8546 24.6656C47.4218 24.742 47.0909 24.4365 46.9382 23.9529C46.5818 22.6802 46.2255 21.382 45.8437 20.1093C45.8182 19.9311 45.7164 19.7783 45.6146 19.6002C44.7491 20.1093 43.9091 20.5929 43.0437 21.0765C44.4437 24.182 44.4437 27.262 43.0437 30.3674C43.9091 30.8511 44.7491 31.3347 45.6146 31.8438C46.2509 30.5965 46.6582 29.3238 46.8873 28.0002C46.9128 27.822 46.9382 27.6183 46.9891 27.4402C47.0909 26.9565 47.4473 26.702 47.9055 26.7784C48.3382 26.8547 48.5928 27.2365 48.5418 27.7202C48.2364 29.8584 47.5491 31.8438 46.4037 33.702C46.3018 33.8547 46.2 34.0329 46.0728 34.2365C48.0073 34.822 49.2037 36.0693 49.56 38.1056C49.9673 38.1311 50.3746 38.1311 50.7818 38.2074C52.9709 38.5638 54.4473 39.9893 54.9309 42.1783C54.9564 42.2547 54.9818 42.3311 55.0073 42.4074C55.0073 42.9929 55.0073 43.5784 55.0073 44.1638ZM34.2873 42.102C34.5673 42.102 34.7709 42.102 34.9746 42.102C38.92 42.102 42.8655 42.102 46.8364 42.102C48.5673 42.102 49.9928 42.7383 51.1382 44.062C51.4691 44.4438 52.8946 44.4947 53.2509 44.1384C53.3528 44.0365 53.4291 43.8838 53.4546 43.7311C53.8109 41.5929 52.2073 39.7093 50.0437 39.6838C46.6328 39.6838 43.2218 39.6838 39.8109 39.6838C39.6328 39.6838 39.48 39.7093 39.3018 39.7602C37.9273 40.1165 36.5528 40.4729 35.2037 40.8293C35.0764 40.8547 34.9237 40.9565 34.8473 41.0583C34.6182 41.3638 34.4655 41.6947 34.2873 42.102ZM24.64 19.7529C26.6255 17.0038 29.2728 15.4511 32.6073 15.1202C32.6073 14.102 32.6073 13.1347 32.6073 12.1674C27.8473 12.3965 23.7237 15.4256 22.12 18.3274C22.9346 18.7602 23.7746 19.2438 24.64 19.7529ZM35.0509 39.2511C39.2764 38.8438 43.12 36.0693 44.7746 33.1929C43.9346 32.7093 43.0946 32.2256 42.2546 31.742C40.0909 34.6947 37.2146 36.2474 33.4982 36.4002C34.3891 37.2147 34.9237 38.1056 35.0509 39.2511ZM42.4837 15.4256C42.3309 15.6802 42.2546 15.8074 42.1782 15.9347C42 16.2656 41.7709 16.622 41.3637 16.5202C41.0582 16.4438 40.7782 16.1638 40.5746 15.8838C40.2437 15.4765 40.04 14.9674 39.7091 14.5347C38.3346 12.7529 36.4 12.1674 34.2364 12.1165C34.2364 13.1093 34.2364 14.0765 34.2364 15.0693C37.6218 15.4002 40.2946 16.9529 42.2546 19.702C43.12 19.1929 43.96 18.7093 44.9018 18.1747C44.0873 17.2584 43.3237 16.3674 42.4837 15.4256ZM23.7237 21.0256C22.9855 20.5929 22.1455 20.1093 21.1782 19.5747C20.8218 20.6438 20.4909 21.6365 20.1855 22.6547C20.1346 22.782 20.2109 23.0365 20.3128 23.1384C21 23.8511 21.7128 24.5384 22.4255 25.2256C22.5273 25.3274 22.6546 25.4038 22.6546 25.4038C23.0109 23.9529 23.3418 22.5274 23.7237 21.0256ZM43.1455 11.8874C42.6364 11.3784 41.8982 10.6147 41.4146 10.1311C40.88 10.6402 40.1418 11.3784 39.6328 11.8874C40.1673 12.3965 40.9055 13.1347 41.3891 13.6184C41.8982 13.1347 42.6364 12.3965 43.1455 11.8874ZM42.4073 38.1056C44.24 38.1056 46.0728 38.1056 47.9055 38.1056C47.88 37.0365 46.6582 35.6874 45.1055 35.7383C45.0037 35.7383 44.8509 35.7893 44.7746 35.8656C43.9855 36.6038 43.1964 37.342 42.4073 38.1056Z" fill="#8D4CFF"/>
<path d="M7.94182 37.5201C7.63637 38.9711 7.07637 39.4547 5.65092 39.4547C4.63273 39.4547 3.64001 39.4547 2.62182 39.4547C2.16364 39.4547 1.80728 39.2765 1.70546 38.7929C1.6291 38.3092 1.98546 37.902 2.54546 37.902C3.61455 37.8765 4.65819 37.8765 5.72728 37.902C6.18546 37.902 6.31273 37.7492 6.31273 37.2911C6.28728 34.0329 6.31273 30.7747 6.31273 27.5165C6.31273 27.3892 6.31273 27.2365 6.31273 27.1092C6.33819 26.5492 6.64364 26.1929 7.10182 26.1929C7.56001 26.1929 7.86546 26.5492 7.86546 27.1092C7.86546 29.782 7.89091 32.4547 7.86546 35.1274C7.86546 35.6111 7.96728 35.8656 8.42546 36.0692C9.08728 36.3747 9.72364 36.782 10.3346 37.2147C15.5527 40.6511 20.7709 44.0874 25.9891 47.5492C26.8036 48.1092 27.6946 48.3638 28.6618 48.3638C33.2182 48.3383 37.7746 48.3638 42.3564 48.3638C42.5345 48.3638 42.7127 48.3383 42.8655 48.3892C43.2473 48.4656 43.4764 48.6947 43.5018 49.102C43.5273 49.5347 43.2982 49.7892 42.9164 49.9165C42.7382 49.9674 42.5345 49.942 42.3564 49.942C37.7746 49.942 33.1927 49.942 28.6109 49.942C27.3382 49.942 26.1927 49.611 25.1491 48.8983C19.8546 45.3347 14.5091 41.7965 9.16364 38.2838C8.78182 38.0292 8.37455 37.8001 7.94182 37.5201Z" fill="#8D4CFF"/>
<path d="M34.1855 20.5926C34.6946 20.898 35.1273 21.1271 35.5346 21.4326C35.9418 21.738 35.9927 22.2471 35.7127 22.578C35.4073 22.9344 34.9746 22.9089 34.5418 22.6544C34.1855 22.4508 33.7782 22.2726 33.3709 22.2217C32.8109 22.1708 32.3527 22.5526 32.2255 23.0362C32.0982 23.5453 32.3018 24.1053 32.8109 24.3599C33.2437 24.5889 33.7273 24.7417 34.2109 24.9199C35.6873 25.4289 36.4509 26.2689 36.5273 27.5417C36.6037 28.8653 35.8909 29.9853 34.5673 30.6217C34.44 30.698 34.3127 30.8762 34.2873 31.0289C34.2364 31.2835 34.2873 31.5635 34.2109 31.7926C34.1346 32.1744 33.8291 32.378 33.4473 32.3526C33.0655 32.3271 32.7091 32.098 32.76 31.7162C32.8364 30.9526 32.5055 30.7235 31.8182 30.5962C31.4618 30.5453 31.1309 30.2908 30.8 30.0871C30.4182 29.8326 30.3164 29.3999 30.5455 29.0435C30.7746 28.6617 31.2073 28.5344 31.6146 28.7889C32.1746 29.1453 32.7855 29.298 33.4473 29.2471C34.1091 29.1962 34.5927 28.8908 34.8727 28.2799C35.2036 27.5162 34.9236 26.8544 34.16 26.5489C33.5236 26.2944 32.8364 26.1162 32.2255 25.8108C30.9782 25.1999 30.3927 23.7999 30.8 22.5271C31.0291 21.7635 31.5127 21.2035 32.2509 20.9235C32.6327 20.7708 32.7346 20.5671 32.7091 20.1853C32.6837 20.0071 32.7091 19.8035 32.76 19.6253C32.8873 19.2435 33.1673 19.0653 33.5491 19.0908C33.9309 19.1162 34.1855 19.3453 34.2364 19.7526C34.2109 20.0835 34.1855 20.3889 34.1855 20.5926Z" fill="#8D4CFF"/>
<path d="M54.2182 15.2984C53.9637 15.6038 53.8109 15.8838 53.5818 15.9857C52.4618 16.5457 51.6473 17.3857 51.0618 18.5057C50.7309 19.142 49.9927 19.142 49.6618 18.5057C49.0764 17.3857 48.2618 16.5457 47.1418 15.9857C46.48 15.6548 46.5055 14.8911 47.1673 14.5602C48.2618 14.0002 49.0764 13.2111 49.6109 12.1166C49.9673 11.4038 50.7309 11.4038 51.0873 12.1166C51.6218 13.1857 52.4109 14.0002 53.5055 14.5348C53.7855 14.6875 53.9637 14.9929 54.2182 15.2984ZM50.4 16.4693C50.7564 16.0875 51.1891 15.6548 51.52 15.3238C51.1891 14.942 50.7564 14.4838 50.4255 14.1275C50.0182 14.5348 49.5855 14.9675 49.2291 15.3238C49.5855 15.6548 49.9927 16.062 50.4 16.4693Z" fill="#8D4CFF"/>
<path d="M23.6473 12.0401C23.4182 12.3201 23.2655 12.6255 23.0109 12.7528C21.9164 13.3128 21.1018 14.1528 20.5418 15.2473C20.2109 15.9092 19.4473 15.9092 19.1164 15.2473C18.5564 14.1273 17.7418 13.3128 16.6473 12.7528C15.96 12.3964 15.96 11.6837 16.6218 11.3273C17.7418 10.7673 18.5564 9.92735 19.1418 8.80735C19.4727 8.17099 20.2109 8.17099 20.5418 8.80735C21.1018 9.92735 21.9164 10.7673 23.0618 11.3273C23.2909 11.4546 23.4182 11.7601 23.6473 12.0401ZM18.7091 12.0401C19.0655 12.3964 19.4982 12.8546 19.8291 13.1855C20.2109 12.8037 20.6182 12.3964 20.9491 12.0655C20.6182 11.7092 20.2109 11.251 19.8546 10.8692C19.4727 11.251 19.04 11.6837 18.7091 12.0401Z" fill="#8D4CFF"/>
</svg>
