<svg width="45" height="45" viewBox="0 0 45 45" fill="none" xmlns="http://www.w3.org/2000/svg">
<rect width="45" height="45" rx="10" fill="#0077B5"/>
<rect x="0.5" y="0.5" width="44" height="44" rx="9.5" stroke="#9C9C9C" stroke-opacity="0.467"/>
<g clipPath="url(#clip0_296_361)">
<path d="M17.3432 30.4834H13.4779V18.0387H17.3432M15.4085 16.3411C14.1728 16.3411 13.17 15.3176 13.17 14.0819C13.17 12.8464 14.1731 11.8434 15.4085 11.8434C16.644 11.8434 17.647 12.8464 17.647 14.0819C17.647 15.3176 16.6442 16.3411 15.4085 16.3411ZM31.8059 30.4834H27.9489V24.4254C27.9489 22.9816 27.9198 21.1301 25.9393 21.1301C23.9297 21.1301 23.6218 22.6987 23.6218 24.3214V30.4834H19.7606V18.0387H23.4678V19.7363H23.5219C24.0378 18.7585 25.2985 17.7267 27.1792 17.7267C31.0902 17.7267 31.81 20.3021 31.81 23.6474V30.4834" fill="white"/>
</g>
<defs>
<clipPath id="clip0_296_361">
<rect width="18.64" height="21.31" fill="white" transform="translate(13.17 11.8398)"/>
</clipPath>
</defs>
</svg>
