<svg width="49" height="48" viewBox="0 0 49 48" fill="none" xmlns="http://www.w3.org/2000/svg">
<g clipPath="url(#clip0_336_473)">
<path d="M33.8599 44.8582C33.2053 44.6618 32.6599 44.3127 32.3326 43.68C31.9835 42.96 32.0926 42.24 32.5726 41.52C32.4199 40.9746 32.1799 40.5164 32.1799 40.0364C32.1799 39.5564 32.398 39.0982 32.5508 38.4873C31.9835 37.7236 31.9399 36.7855 32.6599 35.8473C32.0053 34.9527 31.9399 34.0146 32.638 33.0982C31.7217 31.1346 32.1362 30.1527 34.0999 29.5418C33.6853 29.1055 33.2271 28.6909 32.878 28.2109C31.198 25.8982 30.9144 23.3891 32.2235 20.8582C33.5108 18.3491 35.6708 17.0618 38.5071 17.0836C41.9762 17.1055 44.7908 19.6364 45.2926 23.1055C45.2926 23.1709 45.3362 23.2364 45.358 23.28C45.358 23.76 45.358 24.2618 45.358 24.7418C45.3362 24.7855 45.2926 24.8291 45.2926 24.8946C45.0526 26.7055 44.2235 28.1891 42.8053 29.3673C42.7617 29.4109 42.718 29.4764 42.6526 29.5418C44.5944 30.0436 45.118 31.3309 44.1362 33.0764C44.8126 33.9927 44.8126 34.9309 44.1362 35.8255C44.8126 36.8727 44.8126 37.5055 44.1362 38.6182C44.8344 39.5346 44.8126 40.4727 44.1362 41.3891C45.2271 42.7855 44.4199 44.5091 43.0453 44.7927C43.0235 44.7927 43.0017 44.8364 42.9799 44.8364C39.9471 44.8582 36.9144 44.8582 33.8599 44.8582ZM38.398 29.5418C41.4744 29.5418 43.9835 27.0546 43.9835 23.9782C43.9835 20.9236 41.518 18.4364 38.4417 18.4146C35.3653 18.3927 32.8562 20.8582 32.8344 23.9564C32.8126 27.0327 35.3217 29.5418 38.398 29.5418ZM38.3762 35.1273C39.6635 35.1273 40.9508 35.1273 42.238 35.1273C42.3908 35.1273 42.5435 35.1273 42.6744 35.1055C43.0235 35.04 43.2417 34.7782 43.2417 34.4291C43.2417 34.08 43.0235 33.8182 42.6526 33.7527C42.5435 33.7309 42.4344 33.7309 42.3253 33.7309C39.7071 33.7309 37.0889 33.7309 34.4708 33.7309C34.318 33.7309 34.1653 33.7309 34.0344 33.7746C33.7289 33.8618 33.5544 34.08 33.5326 34.4073C33.5108 34.7346 33.6853 34.9746 34.0126 35.0836C34.1653 35.1273 34.3399 35.1273 34.4926 35.1273C35.8017 35.1273 37.0889 35.1273 38.3762 35.1273ZM38.4417 39.2946C37.3726 39.2946 36.3035 39.2946 35.2344 39.2946C34.8853 39.2946 34.558 39.2946 34.2089 39.2946C33.838 39.3164 33.5762 39.5782 33.5544 39.9273C33.5326 40.2764 33.7726 40.5818 34.1435 40.6473C34.2526 40.6691 34.3617 40.6691 34.4708 40.6691C37.1108 40.6691 39.7289 40.6691 42.3689 40.6691C42.5217 40.6691 42.6962 40.6691 42.8489 40.6036C43.1762 40.4727 43.3289 40.2109 43.2853 39.8618C43.2417 39.5346 43.0235 39.3382 42.6962 39.2946C42.5653 39.2727 42.4562 39.2946 42.3253 39.2946C41.0162 39.2946 39.7289 39.2946 38.4417 39.2946ZM38.398 42.0873C37.1544 42.0873 35.9108 42.0873 34.6671 42.0873C34.5799 42.0873 34.4708 42.0873 34.3835 42.0873C33.8599 42.0873 33.5544 42.3491 33.5544 42.7855C33.5544 43.2 33.8599 43.4836 34.3835 43.4836C37.0671 43.4836 39.7508 43.4836 42.4344 43.4836C42.9799 43.4836 43.2853 43.2218 43.2853 42.7636C43.2853 42.3273 42.9799 42.0873 42.4562 42.0873C41.0817 42.0873 39.7289 42.0873 38.398 42.0873ZM38.4199 32.3346C39.7726 32.3346 41.1035 32.3346 42.4562 32.3346C42.9799 32.3346 43.2417 32.0946 43.2635 31.68C43.2853 31.2436 42.9799 30.96 42.478 30.96C41.4089 30.96 40.3617 30.96 39.2926 30.96C37.678 30.96 36.0635 30.96 34.4489 30.96C34.078 30.96 33.7508 31.0473 33.598 31.44C33.4235 31.92 33.7726 32.3564 34.3617 32.3564C35.6926 32.3346 37.0671 32.3346 38.4199 32.3346ZM38.4199 36.5236C37.5908 36.5236 36.7617 36.5236 35.9326 36.5236C35.3653 36.5236 34.798 36.5236 34.2308 36.5236C33.838 36.5455 33.5762 36.7855 33.5544 37.1564C33.5326 37.5273 33.7726 37.8327 34.1653 37.8982C34.2744 37.92 34.4053 37.92 34.5362 37.92C37.1326 37.92 39.7289 37.92 42.3253 37.92C42.478 37.92 42.6526 37.92 42.8053 37.8764C43.1544 37.7673 43.3071 37.5055 43.2635 37.1564C43.2417 36.8073 43.0453 36.6109 42.6962 36.5455C42.5653 36.5236 42.4344 36.5236 42.2817 36.5236C40.9944 36.5236 39.7071 36.5236 38.4199 36.5236Z" fill="black"/>
<path d="M45.3582 5.25813C45.271 6.10904 45.1837 6.95995 45.1182 7.81086C45.0746 8.24722 45.0528 8.72722 45.0091 9.1854C44.9437 9.88358 44.5946 10.429 43.9182 10.669C43.2419 10.9309 42.631 10.7563 42.1291 10.2545C41.9764 10.1018 41.8673 9.9054 41.6928 9.70904C41.0164 10.4072 40.4055 10.9963 39.8164 11.6072C38.42 13.0036 37.0455 14.3999 35.6491 15.7963C34.0128 17.4327 31.9619 17.4327 30.3255 15.7963C29.3655 14.8363 28.4055 13.8763 27.4455 12.8945C27.3146 13.0254 27.2055 13.1127 27.0964 13.2218C23.8237 16.4945 20.5728 19.7454 17.3 23.0181C15.7946 24.5236 13.7 24.5018 12.1946 22.9963C11.7582 22.5599 11.3219 22.1236 10.9073 21.6872C10.82 21.5999 10.7328 21.469 10.6019 21.2945C10.2746 21.6654 10.0346 21.949 9.75096 22.2327C8.92186 23.0836 8.07096 23.9345 7.22005 24.7636C6.36914 25.5927 5.10368 25.5927 4.29641 24.7854C3.46732 23.9781 3.42368 22.7127 4.25277 21.8618C5.56187 20.509 6.87096 19.1781 8.22368 17.8909C9.59823 16.5599 11.6491 16.6036 13.0455 17.9345C13.6128 18.4799 14.18 19.069 14.7691 19.6799C14.8782 19.5272 15.0091 19.4181 15.1182 19.309C18.3473 16.0799 21.5764 12.8509 24.7837 9.62176C26.3982 8.00722 28.4491 8.00722 30.0637 9.62176C31.0237 10.5818 31.9837 11.5418 32.9 12.4581C34.7982 10.5599 36.6964 8.66177 38.6819 6.67631C38.5728 6.61086 38.3982 6.50177 38.2455 6.37086C37.7219 5.86904 37.5255 5.25813 37.7873 4.55995C38.0491 3.86176 38.5946 3.53449 39.3146 3.46904C40.3837 3.38177 41.4528 3.29449 42.5219 3.22904C42.7619 3.20722 43.0019 3.20722 43.2419 3.1854C44.3764 3.05449 44.8346 3.31631 45.3146 4.36358C45.3582 4.64722 45.3582 4.95267 45.3582 5.25813ZM10.6019 18.3054C10.0128 18.3272 9.53277 18.5236 9.11823 18.9163C7.85277 20.1818 6.60914 21.4472 5.34368 22.7127C5.27823 22.7999 5.19096 22.8654 5.1255 22.9527C4.95096 23.2363 4.97277 23.4981 5.19096 23.7381C5.40914 23.9781 5.69277 24.0654 5.99823 23.9127C6.15096 23.8254 6.28187 23.7163 6.41277 23.5854C7.46005 22.5599 8.4855 21.5127 9.53277 20.4872C10.2091 19.8327 10.9946 19.8327 11.6491 20.4872C12.1291 20.9672 12.6091 21.4472 13.0891 21.9272C14.1582 22.9963 15.3582 22.9963 16.4491 21.9054C19.7219 18.6327 22.9728 15.3818 26.2455 12.109C27.0746 11.2799 27.7946 11.2799 28.6237 12.1309C29.5182 13.0254 30.4128 13.9199 31.3073 14.8145C32.3982 15.9054 33.5982 15.8836 34.6891 14.7927C36.7837 12.6981 38.9 10.5818 40.9946 8.48722C41.4964 7.9854 41.8237 7.9854 42.3473 8.48722C42.5873 8.72722 42.8273 8.98904 43.0673 9.20722C43.1764 9.29449 43.351 9.38176 43.4382 9.35995C43.5473 9.31631 43.6346 9.14177 43.6346 9.01086C43.7437 7.63631 43.8528 6.23995 43.9619 4.8654C43.9837 4.6254 43.9182 4.51631 43.6564 4.53813C42.26 4.64722 40.8637 4.75631 39.4673 4.8654C39.3582 4.8654 39.1619 4.97449 39.14 5.03995C39.1182 5.14904 39.1837 5.32358 39.271 5.41086C39.5328 5.69449 39.8164 5.95631 40.0782 6.21813C40.4928 6.65449 40.4928 6.98177 40.0782 7.41813C38.0928 9.4254 36.0855 11.4109 34.1 13.4181C33.4019 14.1163 32.5946 14.1163 31.8746 13.3963C30.9146 12.4363 29.9982 11.4763 29.0164 10.5599C28.711 10.2763 28.2964 10.0145 27.8819 9.9054C27.0746 9.68722 26.3982 9.99267 25.831 10.5818C22.3619 14.0509 18.8928 17.5199 15.4455 20.989C14.9655 21.469 14.6382 21.469 14.1582 20.989C13.4382 20.2909 12.7619 19.6145 12.0855 18.9381C11.671 18.5236 11.1691 18.3272 10.6019 18.3054Z" fill="black"/>
<path d="M19.9402 44.8582C19.7657 44.7928 19.5911 44.7273 19.4166 44.64C18.4348 44.1819 17.7148 42.7637 18.7402 41.3891C18.0421 40.211 18.0421 39.6219 18.7402 38.6182C17.5839 37.0473 18.5875 35.2582 20.2675 35.1055C18.0857 33.251 17.1693 30.96 17.6711 28.1673C17.9984 26.4219 18.893 25.0255 20.333 23.9564C23.2784 21.7964 27.293 22.211 29.693 24.9164C32.093 27.6001 32.2239 32.291 28.733 35.0837C29.6057 35.1928 30.2384 35.5855 30.5875 36.371C30.9148 37.1564 30.7621 37.8764 30.2384 38.5746C30.9366 39.5128 30.9366 40.451 30.2384 41.3673C31.2202 42.6546 30.653 43.9419 29.8675 44.4655C29.6275 44.6182 29.3439 44.7273 29.0602 44.8364C26.0275 44.8582 22.973 44.8582 19.9402 44.8582ZM24.4784 35.1273C27.533 35.1491 30.0202 32.6619 30.0421 29.6073C30.0639 26.5091 27.5984 24.0219 24.5221 24.0001C21.4457 23.9782 18.9366 26.4437 18.9366 29.5419C18.9366 32.6182 21.4021 35.1055 24.4784 35.1273ZM24.5221 36.5237C23.1475 36.5237 21.773 36.5237 20.4202 36.5237C19.9621 36.5237 19.6566 36.7855 19.6348 37.1782C19.613 37.571 19.9184 37.8764 20.3984 37.8982C20.4857 37.8982 20.5511 37.8982 20.6384 37.8982C23.213 37.8982 25.7875 37.8982 28.3621 37.8982C28.5148 37.8982 28.6893 37.8982 28.8421 37.8546C29.2348 37.7455 29.4311 37.3746 29.3221 37.0037C29.213 36.611 28.9075 36.5019 28.5366 36.5019C27.2057 36.5237 25.853 36.5237 24.5221 36.5237ZM24.5221 39.2946C23.1693 39.2946 21.8166 39.2946 20.4639 39.2946C20.093 39.2946 19.8311 39.4037 19.7002 39.7528C19.5257 40.2546 19.8748 40.6691 20.5075 40.6691C23.1693 40.6691 25.853 40.6691 28.5148 40.6691C29.0602 40.6691 29.3875 40.4073 29.3875 39.971C29.3875 39.5346 29.0602 39.2728 28.5148 39.2728C27.1839 39.2946 25.853 39.2946 24.5221 39.2946ZM24.5002 42.0873C23.1693 42.0873 21.8384 42.0873 20.5075 42.0873C19.9621 42.0873 19.6348 42.3491 19.6348 42.7637C19.6348 43.2001 19.9621 43.4619 20.5075 43.4619C23.1693 43.4619 25.853 43.4619 28.5148 43.4619C29.0384 43.4619 29.3875 43.1782 29.3657 42.7419C29.3657 42.3273 29.0384 42.0655 28.5148 42.0655C27.1839 42.0873 25.8311 42.0873 24.5002 42.0873Z" fill="black"/>
<path d="M5.99831 44.8581C5.88922 44.8145 5.78013 44.749 5.67104 44.7054C4.77649 44.3563 4.25286 43.5054 4.34013 42.5454C4.4274 41.629 5.10376 40.8872 6.04195 40.7127C6.12922 40.6909 6.21649 40.6909 6.39104 40.669C4.44922 39.0545 3.48922 37.0472 3.66376 34.5818C3.79467 32.7054 4.62376 31.1345 6.02013 29.869C8.72558 27.469 12.9365 27.6436 15.511 30.2181C18.0856 32.7709 18.5001 37.7236 14.8565 40.6472C15.1619 40.7563 15.511 40.8218 15.8165 40.9963C16.5583 41.4327 16.9074 42.1309 16.8201 42.9818C16.7329 43.8109 16.2747 44.3781 15.511 44.7054C15.4019 44.749 15.2929 44.8145 15.1838 44.8581C12.151 44.8581 9.07467 44.8581 5.99831 44.8581ZM16.1656 34.9963C16.0347 31.8545 13.4819 29.4327 10.4274 29.5636C7.3074 29.6945 4.9074 32.2909 5.03831 35.4109C5.16922 38.4218 7.7874 40.8218 10.7983 40.7127C13.831 40.56 16.2747 37.9636 16.1656 34.9963ZM10.6238 42.0872C9.24922 42.0872 7.87467 42.0872 6.52195 42.0872C5.97649 42.0872 5.6274 42.5018 5.78013 42.9818C5.91104 43.3527 6.21649 43.4618 6.5874 43.4618C9.27104 43.4618 11.9547 43.4618 14.6383 43.4618C15.1619 43.4618 15.4674 43.2 15.4674 42.7636C15.4674 42.3272 15.1619 42.0654 14.6601 42.0654C13.3074 42.0654 11.9547 42.0872 10.6238 42.0872Z" fill="black"/>
<path d="M11.3005 36.5891C11.2568 36.1527 11.0823 35.9127 10.7332 35.8473C10.515 35.8037 10.275 35.8036 10.0568 35.7382C9.18411 35.4764 8.68229 34.8873 8.55138 33.9927C8.42047 33.2073 8.83502 32.3564 9.5332 31.9418C9.75138 31.8109 9.92593 31.7237 9.96956 31.4182C10.035 31.0691 10.3187 30.9164 10.6677 30.9382C11.0168 30.96 11.1914 31.1782 11.3005 31.4837C11.3441 31.6364 11.4968 31.7673 11.6059 31.8764C11.8459 32.1164 12.1514 32.3127 12.3696 32.5964C12.6096 32.9018 12.5223 33.3164 12.2168 33.5346C11.9114 33.7527 11.5405 33.7091 11.2787 33.4255C11.2132 33.3382 11.1477 33.2509 11.0605 33.1855C10.8205 32.9891 10.515 32.9237 10.275 33.12C10.1005 33.2727 9.94774 33.5346 9.94774 33.7527C9.92593 34.0582 10.1441 34.2764 10.4496 34.3637C10.6023 34.4073 10.755 34.4073 10.8859 34.4291C11.7587 34.5382 12.4787 35.1927 12.6532 36.0437C12.8496 36.9164 12.435 37.8327 11.6496 38.2691C11.4314 38.3782 11.3005 38.4873 11.2568 38.7709C11.2132 39.0982 10.9514 39.2727 10.6241 39.2727C10.275 39.2946 10.0132 39.12 9.94774 38.7927C9.88229 38.5091 9.72956 38.3782 9.48956 38.2473C9.24956 38.0946 9.03138 37.8764 8.85683 37.6364C8.59502 37.3091 8.68229 36.8946 8.98774 36.6546C9.2932 36.4146 9.68593 36.48 9.96956 36.8073C10.3623 37.2437 10.755 37.3309 11.0823 36.9818C11.1914 36.8727 11.235 36.6764 11.3005 36.5891Z" fill="black"/>
<path d="M37.6125 25.5272C36.9143 25.3963 36.2816 25.309 35.6488 25.1781C35.4088 25.1345 35.1688 25.0254 34.9725 24.9163C34.5579 24.6763 34.5361 24.349 34.9725 24.1527C35.4525 23.9345 35.9543 23.8254 36.4779 23.6945C36.827 23.6072 37.1979 23.6072 37.5906 23.5418C37.5906 23.3018 37.5906 23.0618 37.5906 22.7781C36.8925 22.7781 36.1943 22.7781 35.4961 22.7781C35.4961 22.2545 35.4961 21.7527 35.4961 21.2509C37.4161 21.2509 39.3361 21.2509 41.2997 21.2509C41.2997 21.7309 41.2997 22.2327 41.2997 22.7563C40.6234 22.7563 39.9252 22.7563 39.2052 22.7563C39.2052 23.0399 39.2052 23.2799 39.2052 23.4981C39.8161 23.6072 40.427 23.6727 41.0161 23.8036C41.3216 23.869 41.627 23.9999 41.9106 24.1527C42.2816 24.349 42.3034 24.6763 41.9106 24.8509C41.4306 25.069 40.9288 25.1999 40.427 25.309C40.0343 25.3963 39.6197 25.4181 39.2052 25.4618C39.2052 26.3563 39.2052 27.229 39.2052 28.1236C38.6816 28.1236 38.1797 28.1236 37.6561 28.1236C37.6125 27.2945 37.6125 26.3999 37.6125 25.5272ZM37.5906 23.6727C36.827 23.8036 36.1506 23.9345 35.4525 24.0654C35.387 24.0872 35.3216 24.109 35.2561 24.1527C35.0161 24.2836 35.0161 24.4581 35.2561 24.5672C35.4743 24.6763 35.6925 24.7418 35.9325 24.7854C37.2416 25.0472 38.5506 25.069 39.8597 24.9381C40.427 24.8945 40.9725 24.7199 41.5179 24.589C41.6052 24.5672 41.7143 24.4363 41.7361 24.349C41.7579 24.2836 41.627 24.1745 41.5397 24.1309C40.7979 23.8036 39.9906 23.7818 39.1616 23.7163C39.1616 24.0436 39.1616 24.3272 39.1616 24.6109C38.6379 24.6109 38.1361 24.6109 37.6125 24.6109C37.5906 24.3272 37.5906 24.0654 37.5906 23.6727Z" fill="black"/>
<path d="M74.2234 -553.898C332.856 -553.68 541.394 -343.418 540.936 -83.3018C540.5 173.433 330.063 382.32 71.9106 381.6C-189.275 380.88 -396.482 166.931 -394.475 -91.5709C-392.511 -345.425 -182.402 -554.116 74.2234 -553.898ZM73.067 361.571C319.067 361.789 520.252 161.738 520.776 -83.5854C521.3 -332.029 321.336 -533.782 74.747 -533.651C-171.449 -533.498 -372.569 -334.364 -374.337 -91.8545C-376.169 155.28 -179.042 360.567 73.067 361.571Z" fill="black"/>
<path d="M481.023 -87.5564C481.372 135.447 298.798 318.218 74.8561 318.371C-150.504 318.545 -335.042 135.731 -332.162 -94.2546C-329.413 -312.938 -151.944 -494.116 73.8088 -494.727C298.863 -495.295 480.652 -312.96 481.023 -87.5564ZM73.4815 298.211C286.383 298.473 461.147 124.822 460.645 -86.4655C460.122 -302.356 289.22 -473.804 73.5252 -474.175C-136.824 -474.567 -308.664 -304.582 -311.827 -94.7564C-315.1 122.204 -141.755 297.076 73.4815 298.211Z" fill="black"/>
<path d="M28.8208 29.9345C28.8208 30.3055 28.7553 30.5455 28.5808 30.7418C28.0789 31.3091 27.4244 31.5709 26.6826 31.5491C26.1371 31.5273 25.8535 31.2655 25.7444 30.7418C25.6789 30.4364 25.7008 30.1091 25.7008 29.7818C25.7008 29.7164 25.7662 29.6509 25.8098 29.6073C25.8535 29.6509 25.9408 29.6727 25.9626 29.7382C26.028 29.8691 26.0935 30 26.1589 30.1309C26.268 30.3709 26.4426 30.48 26.7044 30.5018C27.0753 30.5455 27.4244 30.5018 27.7735 30.3927C28.1444 30.2618 28.2753 30 28.1008 29.6509C27.9917 29.4327 27.8171 29.2145 27.6208 29.04C27.2062 28.6909 26.7698 28.3636 26.3117 28.0582C26.2026 27.9709 26.1808 27.9055 26.2462 27.7745C26.3553 27.6 26.4644 27.4255 26.5735 27.2509C26.6389 27.1418 26.7698 27.0764 26.8789 27.1855C27.6426 27.7527 28.4062 28.3636 28.6898 29.3236C28.7553 29.5636 28.7989 29.8036 28.8208 29.9345Z" fill="black"/>
<path d="M23.2131 28.0145C23.2131 28.7564 23.2131 29.4764 23.2131 30.2182C23.2131 30.7418 22.9949 31.1782 22.5803 31.4836C22.5149 31.5273 22.4494 31.5273 22.384 31.5491C22.3622 31.4836 22.3185 31.4182 22.3185 31.3527C22.5367 29.76 22.4058 28.1673 22.2531 26.5745V26.5527C22.0349 25.9636 22.4931 25.7236 22.8203 25.3964C22.9294 25.2873 23.0385 25.3527 23.0603 25.5273C23.0822 25.8764 23.104 26.2473 23.1258 26.5963C23.1476 27.0545 23.1694 27.5345 23.1913 27.9927C23.1913 28.0145 23.1913 28.0145 23.2131 28.0145Z" fill="black"/>
<path d="M22.2968 32.4872C22.4495 32.6182 22.6459 32.6836 22.8422 32.6836C23.0604 32.6836 23.2786 32.6618 23.4968 32.6618C23.5622 32.6618 23.6713 32.6836 23.6932 32.7272C23.715 32.7927 23.6713 32.88 23.6495 32.9454C23.475 33.2072 23.2786 33.3818 22.9077 33.3382C22.755 33.3163 22.6022 33.4036 22.4495 33.4472C22.2532 33.5127 22.0568 33.5782 21.8386 33.6436C21.7513 33.3818 21.8822 33.2291 22.035 33.12C21.9477 33.0109 21.8386 32.9236 21.7732 32.7927C21.6859 32.5963 21.7295 32.4 21.8168 32.2036C21.9913 31.8327 22.4495 31.5709 22.8422 31.5927C23.0168 31.6145 23.1695 31.7018 23.2132 31.8763C23.2786 32.0509 23.2132 32.2036 23.0822 32.3345C23.0386 32.3782 22.9513 32.3782 22.9077 32.3563C22.8204 32.3345 22.755 32.2254 22.6895 32.2254C22.5368 32.2472 22.4059 32.3127 22.275 32.3563C22.275 32.4436 22.2968 32.4654 22.2968 32.4872Z" fill="black"/>
<path d="M24.4352 31.5054C23.977 31.5054 23.6279 31.1563 23.6279 30.6981C23.6279 30.2618 23.977 29.8909 24.4352 29.8909C24.8934 29.8909 25.2425 30.24 25.2425 30.6981C25.2425 31.1563 24.8934 31.5054 24.4352 31.5054Z" fill="black"/>
</g>
<defs>
<clipPath id="clip0_336_473">
<rect width="48" height="48" fill="white" transform="translate(0.5)"/>
</clipPath>
</defs>
</svg>
