<svg width="73" height="72" viewBox="0 0 73 72" fill="none" xmlns="http://www.w3.org/2000/svg">
<g clipPath="url(#clip0_234_493)">
<path d="M61.8661 32.9236C60.197 32.9236 58.5933 32.8581 56.9897 32.9563C56.1715 32.989 55.7788 32.7272 55.4188 31.9745C54.2079 29.389 52.8988 26.869 51.6224 24.3163C51.5897 24.2181 51.5242 24.1199 51.4261 23.9563C52.5061 23.9563 53.4879 23.9563 54.5024 23.9563C56.5315 23.9563 58.5933 23.9563 60.6224 23.9563C63.3715 23.9563 65.4333 25.9854 65.4333 28.7345C65.4333 34.6581 65.4333 40.6145 65.4333 46.5381C65.4333 48.7963 65.4661 51.0218 65.4333 53.28C65.4006 56.1927 63.4042 58.0909 60.5242 58.0909C51.7533 58.0909 42.9497 58.0909 34.1788 58.0909C26.9788 58.0909 19.7788 58.0909 12.6115 58.0909C10.0915 58.0909 7.99697 56.029 7.99697 53.4109C7.96424 49.0909 7.99697 44.8036 7.99697 40.4836C7.99697 36.6218 7.99697 32.7272 7.99697 28.8654C7.99697 25.9527 9.99333 23.9236 12.8733 23.9236C18.6988 23.9236 24.5242 23.9236 30.3497 23.9236C30.7097 23.9236 30.8733 24.0545 31.0042 24.3818C32.1497 26.7381 33.3933 29.1272 34.6697 31.4836C34.9315 31.9418 35.2588 32.3999 35.5861 32.9236C27.5352 32.9236 19.5497 32.9236 11.4988 32.9236C11.4988 33.1854 11.4988 33.3818 11.4988 33.5781C11.4988 40.1236 11.4988 46.7018 11.4988 53.2472C11.4988 54.1636 11.8588 54.5236 12.7751 54.5236C28.6479 54.5236 44.5533 54.5236 60.4261 54.5236C61.5061 54.5236 61.8661 54.1636 61.8661 53.0836C61.8661 46.8981 61.8661 40.6799 61.8661 34.4945C61.8661 33.9709 61.8661 33.4799 61.8661 32.9236Z" fill="black"/>
<path d="M41.6406 28.3745C43.8334 27.1308 45.9606 25.9199 48.1206 24.6763C49.4297 27.3272 50.8043 29.9454 52.0152 32.5963C53.5533 36.0326 55.0588 39.469 56.4006 42.9708C57.1534 44.9345 57.6115 47.029 58.1679 49.0908C58.2661 49.4835 58.2006 49.9417 58.1352 50.3672C58.0697 50.8581 57.7097 51.0217 57.317 50.7926C56.6624 50.3672 55.9752 49.9417 55.4843 49.3526C53.8152 47.3235 52.1134 45.2945 50.6406 43.1017C48.4479 39.8617 46.4188 36.4908 44.357 33.1526C43.4079 31.6145 42.557 30.0108 41.6406 28.3745Z" fill="black"/>
<path d="M46.812 22.549C44.7175 23.7599 42.6229 24.9381 40.4957 26.1817C40.4302 26.149 40.3648 26.1163 40.332 26.0181C38.5648 22.549 36.7975 19.0799 35.0957 15.5453C34.7029 14.6944 34.4739 13.7453 34.3757 12.7963C34.212 11.4872 35.1611 10.3744 36.732 9.75262C37.8448 9.32717 38.9902 9.62171 39.8738 10.8326C41.0193 12.3708 42.0993 13.9744 43.0811 15.6435C44.3575 17.8035 45.5357 20.0617 46.7466 22.2544C46.7466 22.3199 46.7793 22.4181 46.812 22.549Z" fill="black"/>
<path d="M50.9024 49.091C45.8297 49.091 40.8224 49.091 35.8478 49.091C33.3606 49.091 30.906 49.091 28.4187 49.091C27.7642 49.091 27.666 49.0255 27.666 48.3382C27.666 47.6182 27.666 46.8655 27.666 46.1455C27.666 45.7201 27.7969 45.491 28.2878 45.491C34.8333 45.491 41.346 45.491 47.8915 45.491C48.0551 45.491 48.3169 45.5892 48.4151 45.7201C49.2333 46.8328 50.0515 47.9455 50.9024 49.091Z" fill="black"/>
<path d="M18.6995 38.1928C18.6995 37.8982 18.6995 37.5382 18.6995 37.1455C18.6995 36.72 18.8959 36.5237 19.3213 36.5237C19.5177 36.5237 19.6813 36.5237 19.8777 36.5237C20.2704 36.5237 20.4668 36.72 20.4668 37.1128C20.4668 37.5055 20.3686 38.0291 20.565 38.291C20.7286 38.52 21.285 38.4873 21.645 38.5855C22.725 38.9128 23.5104 39.5673 23.8704 40.68C24.0995 41.3346 23.9359 41.531 23.2486 41.5637C22.9868 41.5637 22.725 41.531 22.4632 41.5637C21.9395 41.6291 21.5468 41.531 21.3832 40.9419C21.3504 40.7782 21.1541 40.6473 20.9904 40.5491C20.0086 39.9928 18.9613 39.9928 17.9795 40.5164C17.685 40.68 17.4232 41.1382 17.4232 41.4328C17.4232 41.6946 17.7832 42.12 18.0777 42.2182C18.9286 42.5128 19.8123 42.6764 20.6632 42.9382C21.2195 43.1019 21.8086 43.2655 22.365 43.5273C23.3141 43.9528 24.0013 44.6073 24.0341 45.72C24.0668 46.931 23.5432 47.9128 22.4632 48.4691C21.8741 48.7637 21.1868 48.9273 20.4341 49.1891C20.4341 49.4837 20.4341 49.8764 20.4341 50.2691C20.4341 50.6946 20.2377 50.891 19.8123 50.891C19.6486 50.891 19.485 50.891 19.3213 50.891C18.8959 50.891 18.6668 50.6946 18.6668 50.2364C18.6668 49.8764 18.6668 49.4837 18.6668 49.091C18.2413 48.9928 17.8813 48.9273 17.4886 48.8291C16.3759 48.4691 15.5577 47.7819 15.1977 46.6364C15.0013 46.0146 15.1323 45.851 15.7868 45.851C16.0486 45.851 16.3104 45.8837 16.5723 45.851C17.1286 45.8182 17.5541 45.8837 17.7504 46.4728C17.8159 46.6691 18.0777 46.8655 18.3068 46.9964C19.2232 47.3891 20.1723 47.3564 21.0886 46.931C21.4813 46.7673 21.7759 46.44 21.6777 46.0146C21.6123 45.6873 21.3504 45.2946 21.0559 45.1964C20.205 44.9019 19.3213 44.7382 18.4704 44.4764C17.8486 44.3128 17.1941 44.1164 16.6377 43.8546C15.7868 43.4619 15.0995 42.8073 15.0995 41.76C15.0668 40.5819 15.4595 39.5673 16.5723 39.011C17.2268 38.6837 17.9141 38.4873 18.6995 38.1928Z" fill="black"/>
<path d="M45.7315 41.9237C44.7169 41.9237 43.7024 41.9237 42.6878 41.9237C37.9424 41.9237 33.2297 41.9237 28.4842 41.9237C27.7315 41.9237 27.6987 41.891 27.666 41.1383C27.666 40.4183 27.666 39.731 27.666 39.011C27.666 38.5855 27.7969 38.3564 28.2878 38.3564C33.2624 38.3564 38.2369 38.3564 43.2115 38.3564C43.3751 38.3564 43.6042 38.4219 43.6697 38.5528C44.3569 39.6001 45.0115 40.6801 45.666 41.7274C45.7315 41.7601 45.7315 41.8255 45.7315 41.9237Z" fill="black"/>
<path d="M40.9539 31.4836C40.9539 32.3345 40.4958 32.6618 39.8739 32.3673C38.7285 31.8764 38.0412 30.8945 37.4848 29.8473C35.9467 26.9345 34.4412 24.0218 32.9358 21.0764C32.4121 20.0291 31.8885 18.9491 31.4303 17.8364C31.0376 17.0182 31.8885 15.9382 32.8048 16.1018C33.0667 16.1673 33.3612 16.4291 33.4921 16.6582C35.9139 21.3709 38.303 26.0836 40.6594 30.7964C40.823 31.0582 40.8885 31.3527 40.9539 31.4836Z" fill="black"/>
</g>
<defs>
<clipPath id="clip0_234_493">
<rect width="72" height="72" fill="white" transform="translate(0.666016)"/>
</clipPath>
</defs>
</svg>
