<svg width="49" height="48" viewBox="0 0 49 48" fill="none" xmlns="http://www.w3.org/2000/svg">
<path d="M32.0704 17.4662H26.3949C26.2277 17.4662 26.0675 17.5325 25.9492 17.6506C25.831 17.7687 25.7644 17.9288 25.7641 18.096V32.1744C25.7641 32.2572 25.7803 32.3393 25.812 32.4159C25.8437 32.4924 25.8901 32.562 25.9487 32.6207C26.0073 32.6793 26.0768 32.7258 26.1534 32.7575C26.2299 32.7892 26.312 32.8056 26.3949 32.8056H32.0704C32.2377 32.8054 32.3981 32.7389 32.5164 32.6205C32.6347 32.5022 32.7011 32.3417 32.7011 32.1744V18.096C32.7007 17.9289 32.6341 17.7688 32.5159 17.6507C32.3977 17.5327 32.2375 17.4663 32.0704 17.4662ZM31.4392 31.5451H27.0261V18.7291H31.4392V31.5451ZM45.3112 24.2932C45.3126 24.2701 45.3126 24.2468 45.3112 24.2236C45.3112 24.2083 45.3078 24.1939 45.3054 24.179C45.3054 24.1732 45.3054 24.1675 45.303 24.1617C45.295 24.1202 45.2829 24.0795 45.267 24.0403C45.2632 24.0302 45.2579 24.0211 45.2536 24.0115C45.2493 24.0019 45.2459 23.9937 45.2411 23.9851C45.2363 23.9764 45.2248 23.9563 45.2161 23.9428L45.2104 23.9328C45.2013 23.9193 45.1917 23.9068 45.1821 23.8939L45.1744 23.8833C45.1657 23.8728 45.1561 23.8627 45.1465 23.8521C45.1369 23.8416 45.1384 23.8425 45.1336 23.8377L45.1096 23.8152L45.0885 23.796L45.0697 23.7816C45.0597 23.7739 45.0501 23.7657 45.0395 23.759L45.0261 23.7504C45.0136 23.7422 45.0011 23.734 44.9877 23.7268L44.9781 23.722C44.9632 23.7144 44.9488 23.7067 44.9329 23.7L44.9224 23.6956C44.907 23.6894 44.8921 23.6836 44.8744 23.6784C44.8566 23.6731 44.8499 23.6716 44.8379 23.6688L44.8158 23.6625C44.7743 23.6534 44.732 23.6486 44.6896 23.6481H44.6809H44.6579H44.6233C44.6089 23.6481 44.5945 23.652 44.5806 23.6539L44.5643 23.6563H44.5581H44.5533L42.1643 24.1104V21.4252C43.6523 18.5452 44.9963 15.1372 44.6459 11.9908V11.9808V11.9668L44.643 11.9505C44.643 11.938 44.6397 11.9256 44.6368 11.9131C44.6339 11.9006 44.6325 11.8929 44.6296 11.8828C44.6267 11.8728 44.6248 11.8636 44.6219 11.854C44.619 11.8444 44.6137 11.8296 44.6089 11.8176L44.6041 11.8027L44.6008 11.796C44.5955 11.783 44.5897 11.7705 44.5835 11.758L44.5734 11.7384C44.5672 11.7268 44.5609 11.7163 44.5542 11.7052L44.5403 11.6836L44.5211 11.6577C44.5149 11.6496 44.5091 11.6414 44.5024 11.6332C44.4957 11.6251 44.4904 11.6203 44.4841 11.6136C44.4779 11.6068 44.4688 11.5963 44.4606 11.5881L44.4419 11.5713C44.4333 11.5632 44.4241 11.5555 44.415 11.5478C44.4059 11.5401 44.4006 11.5372 44.3934 11.532C44.3862 11.5267 44.3761 11.5185 44.367 11.5128C44.3579 11.507 44.3488 11.5017 44.3397 11.496L44.3157 11.482C44.3051 11.4763 44.2941 11.4715 44.283 11.4662L44.2614 11.4566C44.2497 11.4514 44.2377 11.4469 44.2254 11.4432L44.2048 11.436C44.1928 11.4321 44.1803 11.4292 44.1683 11.4264C44.1563 11.4235 44.1529 11.422 44.1448 11.4206C44.1366 11.4192 44.1227 11.4168 44.1117 11.4153C44.1006 11.4139 44.0925 11.412 44.0829 11.411H44.0545H44.019H43.995H43.9552H43.947L43.9307 11.4134L43.8937 11.4196C43.8832 11.4196 43.8731 11.4244 43.8635 11.4268L43.8347 11.4345C43.8222 11.4384 43.8097 11.4427 43.7977 11.4475L43.7829 11.4523L42.1643 12.1056V5.84732C42.1643 5.68004 42.0978 5.51961 41.9796 5.40133C41.8613 5.28305 41.7009 5.2166 41.5336 5.2166H35.859C35.7762 5.21653 35.6941 5.2328 35.6175 5.26447C35.5409 5.29614 35.4713 5.34258 35.4127 5.40116C35.3541 5.45973 35.3076 5.52928 35.2759 5.60584C35.2442 5.68239 35.2278 5.76445 35.2278 5.84732V6.16172C32.1234 4.29465 28.5855 3.26982 24.9638 3.18848C21.342 3.10714 17.7617 3.97209 14.5766 5.6979C11.3914 7.42371 8.71164 9.95064 6.80195 13.0291C4.89226 16.1075 3.81876 19.6309 3.6875 23.2512V23.255C3.6875 23.268 3.6875 23.2814 3.6875 23.2948C3.6875 23.3083 3.6875 23.3121 3.6875 23.3203C3.6875 23.3284 3.6875 23.3395 3.69086 23.3491C3.69422 23.3587 3.69374 23.3736 3.69566 23.3856V23.3899C3.69566 23.3985 3.6995 23.4062 3.70142 23.4148C3.70334 23.4235 3.70526 23.434 3.70814 23.4436C3.71102 23.4532 3.7163 23.47 3.7211 23.4835L3.72638 23.4988C3.73314 23.5172 3.741 23.5352 3.7499 23.5526L3.75518 23.5622C3.76226 23.5767 3.77011 23.5908 3.7787 23.6044L3.78638 23.6164C3.79454 23.6284 3.8027 23.6409 3.81182 23.6524L3.8219 23.6659C3.83054 23.6764 3.83918 23.687 3.8483 23.6971L3.86174 23.711C3.87038 23.7201 3.8795 23.7288 3.88862 23.7374L3.90494 23.7518C3.91406 23.7595 3.9227 23.7667 3.9323 23.7734L3.9515 23.7883C3.96014 23.7945 3.96974 23.8003 3.97886 23.806L3.99998 23.8195C4.01054 23.8257 4.02158 23.831 4.03262 23.8368L4.05854 23.8492C4.07342 23.856 4.0883 23.8617 4.10318 23.8675L4.12238 23.8732C4.13486 23.8776 4.14782 23.8814 4.1603 23.8848L4.17998 23.8891L4.2203 23.8968L4.23902 23.8992L4.2827 23.903H4.31486C4.33502 23.903 4.35518 23.903 4.37582 23.8996C4.38734 23.8996 4.39838 23.8968 4.4099 23.8948C4.42142 23.8929 4.42478 23.8948 4.43198 23.892H4.43678H4.4411L6.83438 23.4417V25.031C5.1755 28.0843 3.48494 31.8854 3.87374 35.3678V35.3779V35.3918C3.87374 35.398 3.87374 35.4038 3.87662 35.41C3.8795 35.4163 3.87998 35.4316 3.8819 35.4427C3.88382 35.4537 3.88718 35.4657 3.89006 35.4768C3.89294 35.4878 3.8939 35.4926 3.8963 35.5003C3.9011 35.5171 3.90686 35.5329 3.9131 35.5483V35.555C3.92418 35.5827 3.93734 35.6095 3.95246 35.6352L3.95966 35.6472C3.97423 35.6708 3.99026 35.6936 4.00766 35.7153L4.01774 35.7268C4.03407 35.7461 4.05154 35.7644 4.07006 35.7816L4.07726 35.7888C4.09769 35.8061 4.11918 35.8221 4.14158 35.8368L4.1555 35.8464C4.17826 35.8612 4.202 35.8745 4.22654 35.8862L4.2347 35.89C4.25939 35.9011 4.28471 35.9107 4.31054 35.9188H4.31678C4.34357 35.9266 4.37083 35.9327 4.39838 35.9371H4.41374C4.44124 35.9411 4.46899 35.9432 4.49678 35.9433C4.51939 35.9432 4.54198 35.942 4.56446 35.9395H4.5683L4.58366 35.9371C4.5971 35.9371 4.61102 35.9332 4.62446 35.9304L4.6523 35.9236L4.68254 35.9155L4.71662 35.9035L4.73294 35.8982L6.8363 35.0592V37.4155C6.8363 37.5828 6.90275 37.7432 7.02103 37.8615C7.13932 37.9797 7.29974 38.0462 7.46702 38.0462H9.11918C10.0484 39.0668 11.0797 39.9896 12.1969 40.8C16.3373 43.831 21.4511 45.2262 26.5571 44.718C31.6631 44.2098 36.4015 41.8339 39.8632 38.0462H41.5341C41.7013 38.0461 41.8616 37.9796 41.9797 37.8613C42.0979 37.743 42.1643 37.5827 42.1643 37.4155V35.0107C44.1743 31.7934 45.2634 28.0865 45.3131 24.2932H45.3112ZM35.4712 33.8966C35.8053 33.5251 36.1208 33.1369 36.4177 32.7321C36.4542 32.6841 36.4893 32.6304 36.5253 32.5795C36.545 32.5558 36.5628 32.5306 36.5785 32.5041C37.9471 30.5616 38.827 28.3177 39.1437 25.9627L41.6603 25.488L44.0248 25.043C43.8612 28.1645 42.9486 31.2007 41.3641 33.8952L35.4712 33.8966ZM15.2809 33.8966C14.738 33.392 14.2379 32.8433 13.7857 32.256L14.9689 31.7788L15.0011 31.7635C15.0083 31.7601 15.016 31.7572 15.0232 31.7534C15.0438 31.743 15.0637 31.7313 15.0827 31.7184L15.0889 31.714C15.1062 31.702 15.123 31.6891 15.1393 31.6756L15.1537 31.6627C15.1672 31.6507 15.1801 31.6382 15.1921 31.6252L15.2056 31.6104C15.2185 31.5955 15.231 31.5806 15.2425 31.5648L15.2488 31.5566L15.2512 31.5528C15.2593 31.5412 15.2661 31.5292 15.2733 31.5177C15.2805 31.5062 15.2814 31.5048 15.2848 31.4985C15.2881 31.4923 15.2949 31.4784 15.2997 31.4688C15.3045 31.4592 15.3088 31.451 15.3126 31.4419C15.3165 31.4328 15.3179 31.428 15.3203 31.4212C15.3227 31.4145 15.3304 31.3968 15.3342 31.3838L15.3371 31.3728C15.3419 31.3569 15.3467 31.3416 15.3501 31.3248C15.3501 31.3176 15.3501 31.3099 15.3534 31.3022C15.3568 31.2945 15.3582 31.2777 15.3597 31.2657C15.3657 31.2103 15.3646 31.1543 15.3563 31.0992V31.0838C15.3546 31.0728 15.3522 31.0619 15.3491 31.0512C15.3491 31.0416 15.3453 31.032 15.3424 31.0219C15.3395 31.0118 15.3376 31.007 15.3347 30.9988C15.3318 30.9907 15.3265 30.9739 15.3217 30.9614V30.9571C15.3217 30.9518 15.3169 30.947 15.315 30.9422C15.3093 30.9292 15.3035 30.9163 15.2973 30.9038C15.291 30.8913 15.2896 30.8908 15.2862 30.8841C15.2829 30.8774 15.2733 30.8611 15.2661 30.85L15.2517 30.8294C15.2445 30.8198 15.2377 30.8097 15.2301 30.8001C15.2224 30.7905 15.2181 30.7857 15.2118 30.779C15.2056 30.7723 15.1974 30.7622 15.1893 30.754C15.1823 30.7466 15.1749 30.7396 15.1672 30.7329C15.1595 30.7257 15.1523 30.7185 15.1441 30.7118C15.136 30.7051 15.1269 30.6984 15.1182 30.6916C15.1096 30.6849 15.1062 30.6816 15.0995 30.6768C14.5816 30.3124 14.0507 29.9088 13.5155 29.4768C13.596 29.4184 13.6616 29.3419 13.7068 29.2534C13.752 29.1649 13.7756 29.0669 13.7757 28.9675V20.7748C13.7757 20.6074 13.7092 20.4469 13.5908 20.3285C13.4724 20.2101 13.3119 20.1436 13.1445 20.1436H11.5355C12.3574 17.4004 14.0251 14.9869 16.3005 13.248V32.1758C16.3004 32.2587 16.3167 32.3407 16.3483 32.4173C16.38 32.4939 16.4265 32.5635 16.485 32.6221C16.5436 32.6807 16.6131 32.7272 16.6897 32.7589C16.7663 32.7907 16.8483 32.807 16.9312 32.807H22.6062C22.7736 32.807 22.9342 32.7405 23.0525 32.6221C23.1709 32.5037 23.2374 32.3432 23.2374 32.1758V10.5427C26.5271 10.2282 29.8173 11.1364 32.4798 13.0939C33.2884 13.6862 34.0289 14.3661 34.6878 15.1214L33.5526 15.5798L33.5377 15.5865C33.5248 15.5923 33.5118 15.5976 33.4993 15.6043L33.4787 15.6158C33.4677 15.622 33.4566 15.6283 33.4461 15.635L33.4235 15.6504L33.3961 15.671C33.388 15.6773 33.3801 15.684 33.3726 15.6912C33.3649 15.6975 33.3575 15.7042 33.3505 15.7113C33.3419 15.7195 33.3337 15.7281 33.3256 15.7368L33.3083 15.756C33.2997 15.766 33.2915 15.7766 33.2838 15.7872L33.2728 15.8016L33.2699 15.8059C33.2627 15.8164 33.256 15.8275 33.2493 15.8385C33.2425 15.8496 33.2401 15.8529 33.2363 15.8601C33.2325 15.8673 33.2272 15.8779 33.2229 15.8865C33.2185 15.8952 33.2128 15.9067 33.2085 15.9168L33.2022 15.9326C33.1969 15.9465 33.1912 15.9604 33.1869 15.9744V15.9792C33.1811 15.9968 33.1763 16.0148 33.1725 16.0329V16.0473C33.1696 16.0622 33.1667 16.0771 33.1653 16.0924C33.1587 16.1483 33.1598 16.2049 33.1686 16.2604V16.2739C33.1686 16.2854 33.1734 16.2964 33.1763 16.308C33.1792 16.3195 33.1801 16.3262 33.1825 16.3353C33.1849 16.3444 33.1883 16.3516 33.1907 16.3603C33.1931 16.3689 33.1984 16.3843 33.2032 16.3958V16.4006L33.2065 16.4083C33.2171 16.4331 33.2291 16.4573 33.2425 16.4808L33.2488 16.4918C33.2633 16.5155 33.2793 16.5383 33.2968 16.56L33.3097 16.5753C33.3249 16.5921 33.3409 16.6082 33.3577 16.6233L33.3712 16.6358C33.3886 16.6514 33.4068 16.666 33.4259 16.6795C34.0149 17.0942 34.6201 17.5574 35.2269 18.0556V32.1758C35.2269 32.1897 35.2269 32.2027 35.2269 32.2161C34.7668 32.8175 34.2573 33.3794 33.7038 33.8961L15.2809 33.8966ZM8.2763 24.3566C8.24528 24.3199 8.21017 24.2869 8.17166 24.2582C8.14887 24.2361 8.12449 24.2157 8.0987 24.1972V21.408H12.5147V28.6396C10.9946 27.3223 9.57767 25.8904 8.2763 24.3566ZM17.5619 31.5451V9.90284H21.9779V31.5451H17.5619ZM38.4573 24.8083H38.4539C38.4395 24.8112 38.4251 24.815 38.4107 24.8188L38.3915 24.8236L38.3598 24.8347L38.3315 24.8452L38.3185 24.851C38.211 24.8986 38.1189 24.9752 38.0526 25.0723C38.0449 25.0838 38.0377 25.0958 38.0305 25.1078C38.0233 25.1198 38.0238 25.1184 38.0209 25.1236C38.0181 25.1289 38.0094 25.1472 38.0037 25.1587C37.9979 25.1702 37.9969 25.1716 37.9941 25.1788C37.9912 25.186 37.9873 25.1966 37.984 25.2057C37.9806 25.2148 37.9758 25.2264 37.9725 25.2374C37.9691 25.2484 37.9691 25.2499 37.9672 25.2561C37.9633 25.27 37.9595 25.2844 37.9561 25.2984V25.3132C37.9533 25.3296 37.9509 25.3454 37.9489 25.3612V25.3641C37.7767 27.0642 37.2824 28.716 36.4926 30.2313V19.1404C37.8322 20.3398 39.0876 21.6299 40.2501 23.0016C40.2816 23.039 40.3174 23.0727 40.3566 23.1019C40.4734 23.2152 40.6298 23.2784 40.7925 23.278C40.8305 23.2776 40.8684 23.2737 40.9057 23.2665V24.348L38.4573 24.8083ZM36.4897 6.47996H40.9029V11.1801C39.7224 9.67187 38.3393 8.33394 36.7926 7.20428C36.6923 7.13084 36.591 7.06028 36.4897 6.98828V6.47996ZM4.99262 22.5043C5.30891 18.4214 6.89829 14.5407 9.53681 11.409C12.1753 8.27723 15.73 6.05229 19.6999 5.04765C23.6698 4.04301 27.8549 4.30933 31.6655 5.80907C35.4761 7.30881 38.72 9.96638 40.9403 13.4073C40.9531 13.4271 40.9671 13.4462 40.9821 13.4644L40.9907 13.4745C41.007 13.4932 41.0243 13.511 41.0421 13.5278L41.0541 13.5388C41.0751 13.5578 41.0976 13.5751 41.1213 13.5907H41.1251C41.1476 13.6056 41.1712 13.6189 41.1957 13.6305L41.2077 13.6363C41.233 13.6483 41.2591 13.6584 41.2859 13.6665H41.295C41.3191 13.6737 41.3436 13.6791 41.3685 13.6828L41.3848 13.6857C41.4118 13.6895 41.4391 13.6916 41.4664 13.692H41.4712H41.4937H41.5254C41.5336 13.692 41.5417 13.692 41.5499 13.6891C41.5581 13.6862 41.5739 13.6862 41.5864 13.6838L41.6051 13.6795C41.619 13.6766 41.6325 13.6732 41.6464 13.6694L41.6613 13.6646C41.6757 13.6598 41.6905 13.655 41.7049 13.6492L41.7741 13.6214L41.7803 13.6209L43.4392 12.9518C43.4661 15.8208 42.0707 18.9518 40.6667 21.5587C39.3162 20.0349 37.8549 18.6129 36.2949 17.3044C36.2735 17.2838 36.2507 17.2648 36.2267 17.2473C35.8427 16.9267 35.4563 16.6176 35.0747 16.3262L35.9574 15.97C35.9771 15.9622 35.9963 15.9534 36.015 15.9436H36.0179C36.0464 15.9281 36.0736 15.9104 36.0995 15.8908L36.1057 15.887L36.111 15.8822C36.1221 15.8736 36.1326 15.8644 36.1432 15.8553L36.16 15.84C36.1691 15.8313 36.1777 15.8217 36.1864 15.8126C36.195 15.8035 36.1984 15.8001 36.2037 15.7934C36.2089 15.7867 36.2171 15.7771 36.2233 15.7689C36.2296 15.7608 36.2363 15.7521 36.2421 15.7435L36.256 15.7214C36.2622 15.7113 36.2689 15.7012 36.2742 15.6912L36.2853 15.6696C36.2905 15.659 36.2963 15.648 36.3011 15.6369L36.3107 15.6124C36.3145 15.6019 36.3189 15.5913 36.3222 15.5808C36.3256 15.5702 36.328 15.5606 36.3309 15.55C36.3337 15.5395 36.3361 15.5323 36.3381 15.5232C36.34 15.514 36.3424 15.4992 36.3443 15.4867C36.3462 15.4742 36.3472 15.4718 36.3481 15.4641C36.3491 15.4564 36.3481 15.4382 36.3515 15.4248V15.4041C36.3515 15.3912 36.3515 15.3787 36.3515 15.3657C36.3515 15.3528 36.3515 15.3504 36.3515 15.3422C36.3515 15.334 36.3515 15.3201 36.3481 15.3091C36.3448 15.298 36.3457 15.2894 36.3443 15.2798L36.3385 15.2529C36.3357 15.2409 36.3333 15.2294 36.3299 15.2174C36.3265 15.2054 36.3256 15.2025 36.3232 15.1953C36.3208 15.1881 36.315 15.1694 36.3097 15.1569V15.1502C36.3097 15.1449 36.3049 15.1401 36.3025 15.1348C36.3001 15.1296 36.2925 15.1113 36.2867 15.1003C36.2809 15.0892 36.2771 15.082 36.2718 15.0729C36.2665 15.0638 36.2617 15.0556 36.2565 15.047C36.2512 15.0384 36.2416 15.0254 36.2339 15.0144L36.2253 15.0019L36.2171 14.9918L36.2109 14.9836C34.6982 13.0231 32.7181 11.4733 30.4516 10.4759C28.1852 9.47851 25.7048 9.06545 23.2374 9.27452V9.27164C23.2375 9.18869 23.2213 9.10653 23.1896 9.02986C23.158 8.9532 23.1115 8.88353 23.0529 8.82486C22.9942 8.76618 22.9246 8.71965 22.848 8.68792C22.7713 8.65619 22.6892 8.63989 22.6062 8.63996H16.9312C16.7639 8.63996 16.6035 8.70641 16.4852 8.82469C16.3669 8.94297 16.3005 9.1034 16.3005 9.27067V11.6956C13.3212 13.6854 11.1628 16.6862 10.2241 20.1436H7.4675C7.38459 20.1436 7.30248 20.1599 7.22588 20.1916C7.14927 20.2233 7.07966 20.2697 7.02103 20.3284C6.96241 20.387 6.91592 20.4566 6.88422 20.5332C6.85252 20.6098 6.83624 20.6919 6.8363 20.7748V22.1572L4.99262 22.5043ZM12.9424 39.7814C10.7925 38.2366 9.00509 36.2419 7.70462 33.936C7.70174 33.9307 7.69838 33.9259 7.6955 33.9211C7.69262 33.9163 7.68206 33.8995 7.67486 33.8889C7.66766 33.8784 7.66478 33.875 7.6595 33.8683C7.65422 33.8616 7.64462 33.8491 7.63694 33.84L7.61822 33.8188L7.59518 33.7953C7.58798 33.7881 7.5803 33.7814 7.57262 33.7747L7.54958 33.7555L7.52414 33.7363L7.50014 33.72C7.4915 33.7142 7.48238 33.7089 7.47278 33.7036C7.46457 33.6984 7.45608 33.6936 7.44734 33.6892L7.41998 33.6758L7.39166 33.6638C7.38302 33.66 7.3739 33.6571 7.36526 33.6537C7.35662 33.6504 7.34414 33.6465 7.33358 33.6436L7.30814 33.6369L7.27406 33.6292L7.24958 33.6254C7.23742 33.6235 7.22542 33.622 7.21358 33.6211H7.1891H7.1531H7.1267H7.09262L7.06382 33.6249L7.03214 33.6302L7.00094 33.6379L6.97214 33.6456L6.94046 33.6566C6.93422 33.659 6.9275 33.6604 6.92078 33.6633L5.08286 34.4064C5.05598 31.5374 6.45134 28.4064 7.85534 25.7995C9.55053 27.7156 11.4228 29.4674 13.4473 31.0315L13.3384 31.0752C13.2751 31.0547 13.209 31.0442 13.1425 31.044C13.028 31.0441 12.9156 31.0754 12.8175 31.1346C12.7193 31.1938 12.6392 31.2786 12.5857 31.38L12.5646 31.3886C12.5526 31.3934 12.5411 31.3992 12.5296 31.4049C12.5181 31.4107 12.5133 31.4121 12.5051 31.4164L12.4849 31.4284C12.4729 31.4352 12.4609 31.4424 12.4494 31.45L12.4379 31.4587C12.4249 31.4678 12.4125 31.4769 12.4005 31.487L12.3851 31.5009C12.375 31.51 12.3645 31.5192 12.3553 31.5288C12.3462 31.5384 12.3429 31.5427 12.3366 31.5494L12.3145 31.5739L12.2949 31.6003C12.2896 31.608 12.2838 31.6152 12.279 31.6228C12.2742 31.6305 12.2665 31.6425 12.2608 31.6526L12.2478 31.6752C12.2427 31.6851 12.2379 31.6952 12.2334 31.7054C12.2296 31.714 12.2253 31.7222 12.2219 31.7308C12.2185 31.7395 12.2147 31.7496 12.2113 31.7596C12.208 31.7697 12.2041 31.7788 12.2013 31.7884C12.1984 31.798 12.1965 31.8057 12.1941 31.8144C12.1917 31.823 12.1883 31.8369 12.1864 31.8484C12.1846 31.856 12.1834 31.8637 12.1825 31.8715C12.1825 31.884 12.1787 31.8964 12.1773 31.9084C12.1758 31.9204 12.1773 31.9238 12.1773 31.9315C12.1773 31.9392 12.1773 31.9564 12.1773 31.9694C12.1773 31.9824 12.1773 31.9857 12.1773 31.9939C12.1773 32.002 12.1773 32.0179 12.1773 32.0299C12.1773 32.0419 12.1773 32.0496 12.1811 32.0596C12.1849 32.0697 12.184 32.0798 12.1859 32.0894C12.1878 32.099 12.1917 32.1148 12.1945 32.1278C12.1974 32.1408 12.1979 32.1422 12.2003 32.1494C12.2046 32.1643 12.2099 32.1787 12.2152 32.1931L12.22 32.207C12.2308 32.2337 12.2437 32.2595 12.2584 32.2843L12.2699 32.3035C12.2747 32.3107 12.2785 32.3179 12.2829 32.3246C12.3275 32.3899 12.3731 32.4542 12.4187 32.519L12.4302 32.5358C13.0669 33.4354 13.8029 34.2605 14.6243 34.9953L14.643 35.0121C15.0021 35.3321 15.3771 35.6361 15.7681 35.9241C16.9677 36.8035 18.2935 37.4963 19.7003 37.979C19.7539 38.0057 19.8109 38.0248 19.8697 38.0356C22.8667 39.0221 26.1004 39.0258 29.0997 38.0462H38.1102C34.8053 41.2784 30.4575 43.2282 25.8457 43.5462C21.2339 43.8642 16.6596 42.5295 12.9424 39.7814ZM40.9029 36.7848H20.1059C18.9566 36.3912 17.8658 35.8442 16.863 35.1585H40.9029V36.7848Z" fill="black"/>
</svg>
