<svg width="69" height="59" viewBox="0 0 69 59" fill="none" xmlns="http://www.w3.org/2000/svg">
<path d="M34.5721 19.1202C37.1621 19.1539 39.6175 19.7257 41.9048 20.9366C42.4094 21.2057 42.7457 21.1384 43.183 20.8693C48.2285 17.6739 53.2403 14.4784 58.2857 11.283C58.4203 11.1821 58.5548 11.0812 58.723 11.0139C58.9248 10.9466 59.1603 10.8793 59.3957 10.8457C59.3285 11.0812 59.3621 11.3502 59.2275 11.5521C56.7048 15.2521 54.1821 18.9521 51.6257 22.6184C50.7175 23.9302 49.8094 25.2757 48.9012 26.5875C48.5985 26.9912 48.5648 27.2939 48.8003 27.7648C53.8794 37.7548 47.8248 49.4266 36.7585 51.0411C27.0375 52.4875 18.0566 44.2802 18.6285 34.4584C19.0994 26.5875 24.683 20.4321 32.453 19.2884C33.1257 19.1875 33.8321 19.1875 34.5721 19.1202ZM34.5721 21.3739C26.9366 21.3739 20.7812 27.5293 20.7812 35.1648C20.7812 42.7666 26.903 48.9221 34.5048 48.9557C42.1403 48.9893 48.3294 42.8339 48.3294 35.1984C48.363 27.563 42.2075 21.3739 34.5721 21.3739Z" fill="#DEBD00"/>
<path d="M0.262695 34.0546C0.666332 25.2755 3.82815 17.8419 9.57997 11.6191C11.5645 13.5028 13.5154 15.3528 15.5336 17.2364C15.1636 17.6737 14.8272 18.0437 14.5245 18.4137C10.9254 22.7528 8.90724 27.731 8.5036 33.3819C8.46997 33.6173 8.20088 34.021 8.03269 34.021C5.47633 34.0546 2.9536 34.0546 0.262695 34.0546Z" fill="#DEBD00"/>
<path d="M68.8813 36.2744C68.4776 45.0534 65.3158 52.5207 59.564 58.7098C57.5458 56.8262 55.5949 55.0098 53.6104 53.1262C54.0813 52.5544 54.5185 52.0834 54.8885 51.5789C58.2858 47.3071 60.2367 42.4635 60.6404 37.0144C60.674 36.678 60.5731 36.2407 61.1449 36.2407C63.6676 36.308 66.1904 36.2744 68.8813 36.2744Z" fill="#DEBD00"/>
<path d="M0.262695 36.3754C0.531786 36.3417 0.699968 36.3081 0.901786 36.3081C3.18906 36.3081 5.47633 36.3081 7.79724 36.3081C8.26815 36.3081 8.5036 36.3754 8.53724 36.9136C8.90724 42.8336 11.0936 47.9799 14.9954 52.4536C15.0963 52.5881 15.1972 52.7227 15.2309 52.7899C13.3136 54.7072 11.43 56.5908 9.44542 58.5417C3.72724 52.2854 0.666332 44.919 0.262695 36.3754Z" fill="#DEBD00"/>
<path d="M33.4278 0.855469C33.4278 3.54638 33.4278 6.0691 33.3941 8.59183C33.3941 8.76001 32.9905 9.06274 32.755 9.06274C28.8532 9.33183 25.1868 10.4082 21.8232 12.3255C20.2087 13.3009 18.6614 14.4782 17.2823 15.42C15.365 13.6037 13.4141 11.7537 11.3623 9.87001C17.6859 4.21911 24.9514 1.25911 33.4278 0.855469Z" fill="#DEBD00"/>
<path d="M35.8166 0.855469C43.923 1.22547 51.0203 4.01729 57.2766 9.43274C56.4693 9.97092 55.7293 10.4082 55.023 10.8791C53.543 11.8209 52.063 12.7291 50.6166 13.6709C50.1457 13.9737 49.843 14.0073 49.3721 13.6709C45.4366 10.9464 41.0975 9.43274 36.3548 9.09638C35.9512 9.06274 35.6484 9.06274 35.6484 8.52456C35.6821 6.06911 35.6484 3.61365 35.6821 1.1582C35.7157 1.09092 35.7493 1.02365 35.8166 0.855469Z" fill="#DEBD00"/>
<path d="M60.6732 13.0317C65.0122 17.1354 68.9813 27.3945 68.8132 33.9536C68.7122 33.9872 68.5777 34.0545 68.4432 34.0545C66.055 34.0545 63.6332 34.0545 61.245 34.0545C60.7741 34.0545 60.6395 33.8526 60.6059 33.4154C60.3368 28.7399 58.7895 24.4681 56.2332 20.5663C56.0986 20.3308 55.9977 19.8936 56.0986 19.7254C57.6122 17.4717 59.1259 15.2854 60.6732 13.0317Z" fill="#DEBD00"/>
<path d="M34.605 23.5265C41.0632 23.5602 46.2096 28.7402 46.2096 35.1983C46.2096 41.6902 40.9623 46.8702 34.4705 46.8365C28.0123 46.8029 22.8659 41.5893 22.8996 35.1311C22.9332 28.6393 28.1469 23.4929 34.605 23.5265ZM35.7487 42.5647C36.9932 42.0265 38.2041 41.7238 39.1796 41.0511C41.4668 39.5711 41.4332 36.8802 39.1796 35.2993C38.8096 35.0302 38.3723 34.7611 37.935 34.6602C36.7241 34.3911 35.5132 34.1556 34.3023 34.0211C33.1587 33.8865 32.0487 33.7183 31.1405 32.9783C30.4005 32.3729 30.3668 31.7002 31.1741 31.2293C31.8132 30.8256 32.5532 30.5229 33.2932 30.3883C35.2778 29.9847 37.195 30.3883 39.045 31.0947C39.7178 31.3302 40.2896 31.3638 40.7268 30.6911C41.0968 30.052 40.8278 29.312 40.0205 29.0429C38.6414 28.6056 37.2287 28.2356 35.7823 27.832C35.5805 26.5202 35.3114 26.0829 34.605 26.0829C33.865 26.0829 33.5959 26.4865 33.3605 27.9329C32.5532 28.1683 31.7459 28.3702 31.0059 28.7065C29.5259 29.3456 28.3823 30.3547 28.3487 32.1038C28.315 33.8529 29.425 34.9629 30.9387 35.5011C32.1832 35.972 33.5623 36.0393 34.8741 36.342C35.9169 36.5774 36.9932 36.7793 37.935 37.2502C38.9105 37.7547 38.8768 38.6629 37.935 39.2684C37.3632 39.6047 36.6905 39.8738 36.0178 40.0083C34.0669 40.412 32.1832 40.042 30.3332 39.3693C29.2568 38.9993 28.6178 39.1674 28.3823 39.8738C28.0459 40.5802 28.4159 41.1183 29.5259 41.4547C30.7705 41.8583 32.0823 42.1274 33.3605 42.4638C33.5623 43.8093 33.8314 44.2465 34.5714 44.2465C35.3114 44.2802 35.6141 43.8093 35.7487 42.5647Z" fill="#DEBD00"/>
</svg>
