<svg width="49" height="48" viewBox="0 0 49 48" fill="none" xmlns="http://www.w3.org/2000/svg">
<path d="M20.5087 8.31858C12.1259 8.31858 5.33029 15.1142 5.33029 23.497C5.33029 31.8798 12.1259 38.6754 20.5087 38.6754C21.1635 38.6754 21.8079 38.634 22.4395 38.554C23.3487 38.4386 24.1791 39.0822 24.2945 39.9914C24.4097 40.9004 23.7663 41.7308 22.8571 41.8462C22.0873 41.9438 21.3035 41.994 20.5087 41.994C10.2931 41.994 2.01172 33.7126 2.01172 23.497C2.01172 13.2814 10.2931 5 20.5087 5C26.9011 5 32.5353 8.24412 35.8551 13.168C36.3675 13.9279 36.1669 14.9591 35.4071 15.4714C34.6473 15.9838 33.6159 15.7831 33.1037 15.0233C30.3743 10.9752 25.7515 8.31858 20.5087 8.31858Z" fill="black"/>
<path fill-rule="evenodd" clip-rule="evenodd" d="M38.7767 27.9271C39.2575 27.4711 39.2779 26.7115 38.8219 26.2305C38.3659 25.7497 37.6065 25.7293 37.1255 26.1853L31.8353 31.2001C31.3543 31.6561 31.3341 32.4157 31.7901 32.8967C32.2459 33.3775 33.0055 33.3979 33.4865 32.9419L38.7767 27.9271Z" fill="black"/>
<path d="M32.791 28.331C33.6174 28.331 34.2814 27.6502 34.2814 26.8176C34.2814 25.9852 33.6174 25.3042 32.791 25.3042C31.9646 25.3042 31.3008 25.9852 31.3008 26.8176C31.3008 27.6502 31.9646 28.331 32.791 28.331Z" fill="black"/>
<path d="M38.209 33.7042C39.0354 33.7042 39.6994 33.0232 39.6994 32.1906C39.6994 31.3582 39.0354 30.6772 38.209 30.6772C37.3826 30.6772 36.7188 31.3582 36.7188 32.1906C36.7188 33.0232 37.3826 33.7042 38.209 33.7042Z" fill="black"/>
<path fill-rule="evenodd" clip-rule="evenodd" d="M36.9438 19.4491C35.985 19.3112 35.0114 19.3112 34.0526 19.4491C33.0936 19.5869 32.1594 19.8613 31.2782 20.2637C30.397 20.6661 29.578 21.1925 28.8458 21.8269C28.1138 22.4613 27.4762 23.1971 26.9524 24.0121C26.4286 24.8271 26.0242 25.7127 25.7512 26.6421C25.4784 27.5717 25.3398 28.5353 25.3398 29.5041C25.3398 30.4729 25.4784 31.4365 25.7512 32.3661C26.0242 33.2955 26.4286 34.1813 26.9524 34.9961C27.4762 35.8111 28.1138 36.5469 28.8458 37.1813C29.578 37.8157 30.397 38.3421 31.2782 38.7445C32.1594 39.1469 33.0936 39.4213 34.0526 39.5591C35.0114 39.6969 35.985 39.6969 36.9438 39.5591C37.9028 39.4213 38.837 39.1469 39.7182 38.7445C40.5994 38.3421 41.4184 37.8157 42.1506 37.1813C42.8826 36.5469 43.5202 35.8111 44.044 34.9961C44.5678 34.1813 44.9722 33.2955 45.2452 32.3661C45.518 31.4365 45.6566 30.4729 45.6566 29.5041C45.6566 28.5353 45.518 27.5717 45.2452 26.6421C44.9722 25.7127 44.5678 24.8271 44.044 24.0121C43.5202 23.1971 42.8826 22.4613 42.1506 21.8269C41.4184 21.1925 40.5994 20.6661 39.7182 20.2637C38.837 19.8613 37.9028 19.5869 36.9438 19.4491ZM34.4084 21.9237C35.1312 21.8197 35.8652 21.8197 36.5882 21.9237C37.311 22.0277 38.0152 22.2345 38.6796 22.5377C39.344 22.8411 39.9614 23.2381 40.5134 23.7163C41.0654 24.1945 41.546 24.7493 41.9408 25.3637C42.3356 25.9781 42.6406 26.6457 42.8464 27.3465C43.0522 28.0473 43.1566 28.7737 43.1566 29.5041C43.1566 30.2345 43.0522 30.9609 42.8464 31.6617C42.6406 32.3625 42.3356 33.0301 41.9408 33.6445C41.546 34.2589 41.0654 34.8137 40.5134 35.2919C39.9614 35.7701 39.344 36.1671 38.6796 36.4705C38.0152 36.7739 37.311 36.9807 36.5882 37.0845C35.8652 37.1885 35.1312 37.1885 34.4084 37.0845C33.6854 36.9807 32.9812 36.7739 32.3168 36.4705C31.6524 36.1671 31.035 35.7701 30.483 35.2919C29.931 34.8137 29.4504 34.2589 29.0556 33.6445C28.6608 33.0301 28.3558 32.3625 28.15 31.6617C27.9442 30.9609 27.8398 30.2345 27.8398 29.5041C27.8398 28.7737 27.9442 28.0473 28.15 27.3465C28.3558 26.6457 28.6608 25.9781 29.0556 25.3637C29.4504 24.7493 29.931 24.1945 30.483 23.7163C31.035 23.2381 31.6524 22.8411 32.3168 22.5377C32.9812 22.2345 33.6854 22.0277 34.4084 21.9237Z" fill="black"/>
<path d="M14.587 16.2541H18.4762C18.491 16.2538 18.5058 16.2538 18.5206 16.2541H22.413C23.164 16.2541 23.75 16.8927 23.75 17.6516C23.75 18.4105 23.164 19.0491 22.413 19.0491H20.4917C20.5928 19.4751 20.6646 19.9243 20.6984 20.3851H22.413C23.164 20.3851 23.75 21.0237 23.75 21.7827C23.75 22.5415 23.164 23.1801 22.413 23.1801H20.377C20.0713 24.0989 19.5406 24.9795 18.7122 25.6983C18.4713 25.9073 18.21 26.0985 17.9282 26.2709L21.111 28.1377C21.7564 28.5161 21.979 29.3635 21.6282 30.0301C21.2736 30.7039 20.4563 30.9587 19.8023 30.5751L13.9328 27.1325C13.4233 26.8339 13.164 26.2291 13.2759 25.6411C13.3879 25.0521 13.8518 24.5939 14.438 24.5251C15.7056 24.3763 16.5025 23.9829 17.0042 23.5475C17.1364 23.4329 17.2541 23.3101 17.3583 23.1801H14.587C13.836 23.1801 13.25 22.5415 13.25 21.7827C13.25 21.0237 13.836 20.3851 14.587 20.3851H18.0122C17.9572 19.8989 17.8396 19.4372 17.6908 19.0491H14.587C13.836 19.0491 13.25 18.4105 13.25 17.6516C13.25 16.8927 13.836 16.2541 14.587 16.2541Z" fill="black"/>
</svg>
