<svg width="185" height="185" viewBox="0 0 185 185" fill="none" xmlns="http://www.w3.org/2000/svg">
<path d="M75.1772 145.73C75.1772 155.148 75.1772 164.398 75.1772 173.732C55.1636 173.732 35.2341 173.732 15.1363 173.732C15.1363 173.311 15.0522 172.891 15.0522 172.471C15.0522 154.559 15.0522 136.564 15.0522 118.652C15.0522 107.552 22.6204 98.2183 33.1318 95.9478C33.8045 95.7796 34.6454 95.9478 35.2341 96.2842C43.475 100.573 51.8841 101.077 60.5454 97.966C61.2181 97.7137 62.2272 97.7137 62.8159 98.0501C67.9454 100.825 71.5613 104.946 73.7477 110.327C74.1682 111.336 73.9159 112.009 73.2431 112.766C70.2159 115.709 67.2727 118.821 64.4136 122.016C63.9091 122.605 63.4045 123.53 63.4045 124.286C63.4045 124.959 64.1613 125.968 64.75 126.052C65.5909 126.221 66.7682 125.968 67.3568 125.38C70.2159 122.521 72.9909 119.493 75.85 116.634C76.6068 115.793 77.5318 115.036 78.4568 114.448C85.0159 109.991 91.6591 105.534 98.2181 101.077C99.1432 100.489 99.9841 99.816 100.825 99.0592C105.114 95.3592 111.42 96.116 115.205 100.825C118.82 105.282 118.148 111 113.523 114.448C103.432 122.1 93.3409 129.836 83.1659 137.321C76.1022 142.534 68.1136 142.871 59.8727 140.6C57.2659 139.843 54.8272 138.498 52.3886 137.321C47.8477 135.05 43.3909 132.611 38.85 130.257C38.2613 129.921 37.4204 129.5 36.9159 129.668C36.1591 129.921 35.3182 130.677 34.9818 131.35C34.4772 132.527 35.2341 133.452 36.3272 134.041C40.4477 136.227 44.6522 138.246 48.6886 140.516C56.8454 145.309 65.4227 147.664 75.1772 145.73Z" fill="#C8D3FF" fill-opacity="0.5"/>
<path d="M75.2613 69.0387C75.85 82.5773 64.75 94.5182 50.9591 95.191C37.1682 95.8637 24.8909 84.8478 24.3023 71.3091C23.7136 56.8455 34.3932 44.9046 48.6045 44.2319C62.7318 43.5591 74.5886 54.5751 75.2613 69.0387Z" fill="#C8D3FF" fill-opacity="0.5"/>
<path d="M173.143 18.0796C173.143 32.1228 173.143 46.0819 173.143 60.125C159.1 60.125 145.141 60.125 131.014 60.125C131.014 46.0819 131.014 32.1228 131.014 18.0796C145.057 18.0796 159.016 18.0796 173.143 18.0796ZM148.673 42.7182C146.991 41.0364 145.477 39.3546 143.879 37.7569C142.618 36.5796 141.189 36.4114 140.264 37.4205C139.254 38.4296 139.423 39.775 140.684 41.0364C142.618 43.0546 144.636 44.9887 146.57 47.0069C148.168 48.6046 149.261 48.6046 150.859 46.9228C154.559 43.2228 158.343 39.5228 162.043 35.7387C162.632 35.15 163.22 34.5614 163.809 33.9728C164.902 32.7955 164.902 31.5341 163.893 30.6091C162.968 29.6841 161.707 29.6841 160.529 30.7773C160.109 31.1978 159.689 31.6182 159.268 32.0387C155.736 35.5705 152.289 39.1023 148.673 42.7182Z" fill="#C8D3FF" fill-opacity="0.5"/>
<path d="M173.059 173.732C159.016 173.732 145.141 173.732 131.098 173.732C131.098 159.689 131.098 145.646 131.098 131.603C145.141 131.603 159.016 131.603 173.059 131.603C173.059 145.562 173.059 159.605 173.059 173.732ZM148.673 156.325C146.991 154.559 145.477 152.962 143.879 151.364C142.618 150.103 141.273 150.018 140.264 151.028C139.254 152.037 139.423 153.382 140.6 154.643C142.534 156.662 144.552 158.596 146.57 160.614C148.168 162.212 149.261 162.212 150.859 160.614C154.727 156.746 158.511 152.962 162.379 149.093C162.884 148.589 163.473 148 163.977 147.412C164.818 146.403 164.818 145.225 163.809 144.3C162.8 143.375 161.707 143.375 160.698 144.216C160.277 144.553 159.941 144.973 159.52 145.393C155.989 148.925 152.373 152.541 148.673 156.325Z" fill="#C8D3FF" fill-opacity="0.5"/>
<path d="M131.098 74.8408C145.141 74.8408 159.1 74.8408 173.143 74.8408C173.143 88.884 173.143 102.843 173.143 116.97C159.184 116.97 145.225 116.97 131.098 116.97C131.098 102.927 131.098 88.9681 131.098 74.8408ZM148.673 99.5636C146.991 97.7976 145.477 96.1999 143.879 94.6863C142.618 93.4249 141.273 93.3408 140.264 94.2658C139.254 95.2749 139.339 96.6204 140.6 97.8817C142.618 99.984 144.72 102.002 146.739 104.02C148.084 105.366 149.261 105.366 150.607 104.104C154.979 99.8158 159.268 95.4431 163.641 91.0704C164.818 89.809 164.902 88.6317 163.977 87.6226C162.968 86.6136 161.623 86.6976 160.361 87.8749C158.511 89.7249 156.661 91.5749 154.811 93.4249C152.793 95.359 150.775 97.3772 148.673 99.5636Z" fill="#C8D3FF" fill-opacity="0.5"/>
<path d="M78.2045 108.898C75.85 102.843 72.0659 98.2184 66.6 94.6866C67.1045 94.2661 67.525 93.9298 67.9454 93.5934C74.5886 88.3798 78.5409 81.5684 79.6341 73.1593C79.7182 72.3184 79.8863 71.8979 80.8954 71.8979C94.6023 71.8979 108.225 71.8979 121.932 71.8979C122.016 71.8979 122.1 71.982 122.52 72.0661C120.586 79.8025 118.652 87.4548 116.718 94.8548C114.111 93.9298 111.589 92.7525 108.982 92.1639C105.366 91.323 102.002 92.4161 99.0591 94.5184C93.1727 98.5548 87.3704 102.675 81.4841 106.712C80.3909 107.468 79.4659 108.141 78.2045 108.898ZM95.9477 78.7093C93.5932 78.7093 91.2386 78.7093 88.8841 78.7093C87.3704 78.7093 86.3613 79.6343 86.3613 80.9798C86.3613 82.3252 87.2863 83.3343 88.8 83.3343C93.5091 83.4184 98.2182 83.4184 102.927 83.3343C104.441 83.3343 105.366 82.3252 105.282 80.9798C105.282 79.6343 104.357 78.7934 102.759 78.7934C100.573 78.7093 98.3022 78.7093 95.9477 78.7093ZM86.2773 94.0979C88.5477 94.0979 90.7341 94.0979 93.0045 94.0979C94.8545 94.0979 95.7795 93.257 95.8636 91.8275C95.8636 90.398 94.9386 89.557 93.0886 89.473C88.6318 89.473 84.0909 89.473 79.6341 89.473C77.8682 89.473 76.8591 90.3139 76.8591 91.8275C76.8591 93.257 77.8682 94.0979 79.7182 94.0979C81.9045 94.182 84.0909 94.0979 86.2773 94.0979Z" fill="#C8D3FF" fill-opacity="0.5"/>
<path d="M97.2091 132.527C101.161 129.584 105.114 126.557 109.402 123.361C108.561 126.641 107.889 129.416 107.132 132.275C107.048 132.527 106.543 132.864 106.207 132.948C103.264 133.032 100.32 132.948 97.3773 132.948C97.2932 132.78 97.2932 132.611 97.2091 132.527Z" fill="#C8D3FF" fill-opacity="0.5"/>
</svg>
