<svg viewBox="0 0 72 72" fill="none" xmlns="http://www.w3.org/2000/svg">
<path d="M19.8336 30.8617C18.5572 30.8617 17.3463 30.8617 16.1354 30.8617C13.9427 30.8617 12.6663 29.6508 12.4699 27.4581C12.4372 27.229 12.3063 26.9999 12.1427 26.8363C11.3245 26.0835 11.1936 25.1999 11.7172 24.2181C11.8154 24.0217 11.8481 23.6944 11.7499 23.4981C11.4881 22.9744 11.1936 22.4508 10.8336 21.9926C7.92085 17.869 10.179 10.8326 16.4627 9.81808C18.6881 9.4908 20.6845 10.0472 22.4845 11.3563C22.6808 11.4872 22.9427 11.5853 23.1718 11.5853C28.7027 11.5853 34.2008 11.5853 39.7318 11.5853C42.0227 11.5853 43.3645 12.9926 43.3645 15.2835C43.3645 17.9672 43.3645 20.6181 43.3645 23.3017C43.3645 23.6944 43.4627 23.9235 43.7899 24.1199C46.8336 26.0181 49.1572 28.7672 51.6445 31.2872C52.2008 31.8435 52.5936 32.629 52.9536 33.349C54.5245 36.6872 56.1281 39.9926 57.6008 43.3635C58.1245 44.5417 59.0081 45.1963 60.0554 45.949C60.0881 45.8508 60.1208 45.7526 60.1863 45.6872C60.7427 45.0326 61.0045 44.9999 61.659 45.5235C63.2299 46.7344 64.8009 47.9126 66.3718 49.1235C67.0263 49.6144 67.059 49.9417 66.5681 50.5963C64.2118 53.7053 61.8227 56.8144 59.4663 59.9235C57.7972 62.1163 56.1281 64.309 54.459 66.5017C53.9354 67.189 53.6408 67.2544 52.9536 66.7308C51.3499 65.5199 49.779 64.309 48.1754 63.0981C47.5863 62.6399 47.5536 62.3126 47.979 61.7235C48.4372 61.1344 48.8954 60.5126 49.3536 59.8908C48.1754 58.6144 47.0299 57.3708 45.8845 56.1272C45.7536 55.9963 45.5245 55.9308 45.3281 55.8326C44.3463 55.5053 43.3645 55.1781 42.3827 54.8508C41.6627 54.6217 40.9099 54.5235 40.1245 54.5235C34.4627 54.589 28.8008 54.589 23.139 54.5563C21.2736 54.5563 19.899 53.0181 19.899 51.0544C19.899 44.6072 19.899 38.1272 19.899 31.6799C19.8336 31.4181 19.8336 31.1563 19.8336 30.8617ZM41.7608 48.829C41.7936 48.7308 41.8263 48.6981 41.8263 48.6326C41.8263 42.4144 41.8263 36.1963 41.8263 30.0108C41.8263 29.8472 41.6954 29.6181 41.5645 29.4872C39.9281 27.8508 39.8954 25.8544 41.4663 24.1199C41.6627 23.8908 41.7936 23.5635 41.8263 23.269C41.859 20.6508 41.8263 17.9999 41.8263 15.3817C41.8263 13.7453 41.1718 13.0908 39.5681 13.0908C34.6918 13.0908 29.7827 13.0908 24.9063 13.0908C24.7099 13.0908 24.5136 13.0908 24.2518 13.1235C24.4154 13.3853 24.5136 13.549 24.6118 13.7126C26.1172 16.5599 26.2154 19.3744 24.3827 22.1235C24.0881 22.549 23.859 23.0072 23.5972 23.4326C23.4008 23.7272 23.4008 23.9563 23.6299 24.2835C24.1536 25.1344 23.9572 26.0835 23.2372 26.8035C23.0408 26.9999 22.9099 27.2944 22.8772 27.589C22.779 28.5054 22.4845 29.3235 21.7645 29.9126C21.4372 30.2072 21.339 30.469 21.339 30.8944C21.339 36.6544 21.339 42.3817 21.339 48.1417C21.339 48.3708 21.339 48.5999 21.339 48.829C28.2118 48.829 34.9863 48.829 41.7608 48.829ZM42.6118 25.1672C41.5318 26.2144 41.499 27.5235 42.6772 28.3744C44.2154 29.4872 45.3936 30.9272 46.3427 32.5635C46.7681 33.3163 47.2263 34.069 47.7499 34.7235C48.2736 35.4108 48.2408 35.9672 47.9136 36.7526C46.539 39.7635 46.179 42.7744 48.4699 45.589C48.7645 45.949 48.7318 46.3417 48.339 46.6363C47.9136 46.9635 47.5536 46.8326 47.2263 46.4399C46.2445 45.2617 45.5899 43.8872 45.3608 42.349C45.0336 40.2217 45.5899 38.2253 46.3754 36.2617C46.4736 36.0326 46.4736 35.6399 46.3427 35.4108C45.4918 34.0363 44.6081 32.6617 43.7245 31.3199C43.659 31.189 43.5281 31.0908 43.3318 30.8944C43.3318 31.2872 43.3318 31.5163 43.3318 31.7453C43.3318 37.669 43.3318 43.5926 43.3318 49.4835C43.3318 50.7926 43.5281 52.1344 42.579 53.3126C43.7572 53.7054 44.8372 54.0326 45.8845 54.4253C46.2772 54.5563 46.6699 54.8181 46.9645 55.1126C48.0445 56.2581 49.1245 57.4363 50.2045 58.6144C53.1499 54.7526 56.0299 50.9563 58.9754 47.1272C58.6154 46.8326 58.3208 46.5708 57.9608 46.3417C57.1427 45.8181 56.6518 45.0981 56.259 44.2144C55.1136 41.6617 53.8372 39.1744 52.7572 36.589C51.6445 33.8399 50.0081 31.5163 47.8154 29.5199C46.179 28.0144 44.6409 26.3453 42.6118 25.1672ZM17.6408 23.3344C18.9172 23.3344 20.1936 23.3344 21.5027 23.3344C21.8299 23.3344 22.0263 23.2363 22.1899 22.9417C22.4845 22.2872 22.9099 21.6981 23.2372 21.0763C23.5318 20.5199 23.8918 19.9308 24.0227 19.309C24.5463 16.7563 23.8918 14.5308 21.8954 12.829C19.9318 11.1599 17.6736 10.7999 15.2845 11.7163C11.0299 13.3526 10.0481 18.5235 12.1754 21.2726C12.5681 21.7635 12.8627 22.3199 13.1245 22.909C13.2881 23.2363 13.4845 23.3344 13.8445 23.3344C15.1208 23.3344 16.3645 23.3344 17.6408 23.3344ZM61.0372 46.9963C57.1427 52.1017 53.3136 57.1417 49.4518 62.2144C50.7936 63.229 52.1027 64.2435 53.4445 65.2581C57.339 60.1526 61.1681 55.1453 65.0299 50.0726C63.6881 49.0253 62.4118 48.0435 61.0372 46.9963ZM41.7936 50.3999C34.9863 50.3999 28.179 50.3999 21.4045 50.3999C21.2081 52.1999 21.9281 53.0181 23.6627 53.0181C28.9318 53.0181 34.1681 53.0181 39.4372 53.0181C41.2699 53.0508 41.9572 52.2981 41.7936 50.3999ZM21.3063 27.3272C18.8845 27.3272 16.4299 27.3272 14.0081 27.3272C14.0408 28.5381 14.6954 29.2908 15.8081 29.3235C17.0518 29.3563 18.2954 29.3563 19.539 29.3235C20.6518 29.2908 21.339 28.4726 21.3063 27.3272ZM17.7063 25.7563C19.0154 25.7563 20.3572 25.789 21.6663 25.7235C21.8954 25.7235 22.3208 25.4944 22.3536 25.2981C22.4518 24.8726 22.059 24.8399 21.699 24.8399C19.0154 24.8399 16.299 24.8399 13.6154 24.8399C13.2881 24.8399 12.9281 24.8399 12.9281 25.2653C12.9281 25.7235 13.2881 25.7563 13.6481 25.7563C15.0227 25.7563 16.3645 25.7563 17.7063 25.7563Z" fill="black"/>
<path d="M18.4254 7.85445C18.4254 8.18172 18.4581 8.47627 18.4254 8.80354C18.3599 9.26172 18.0981 9.52354 17.6072 9.49081C17.1817 9.45809 16.9526 9.19627 16.9199 8.73809C16.9199 8.11627 16.9199 7.52718 16.9199 6.90536C16.9199 6.44718 17.1817 6.18536 17.6399 6.15263C18.0981 6.1199 18.3599 6.41445 18.4254 6.80718C18.4581 7.16718 18.4254 7.52718 18.4254 7.85445Z" fill="black"/>
<path d="M7.59339 18.6546C7.29885 18.6546 7.0043 18.6874 6.70976 18.6546C6.25158 18.5892 5.95703 18.3601 5.95703 17.8692C5.95703 17.411 6.25158 17.1492 6.74249 17.1492C7.33158 17.1492 7.92067 17.1492 8.50976 17.1492C9.00067 17.1492 9.26249 17.411 9.29521 17.8692C9.29521 18.3274 9.00067 18.5892 8.54249 18.6546C8.21521 18.6874 7.92067 18.6546 7.59339 18.6546Z" fill="black"/>
<path d="M9.88455 9.32739C10.1464 9.4583 10.3427 9.52376 10.4736 9.65467C10.8991 10.0474 11.2918 10.4401 11.6846 10.8656C12.0118 11.2256 12.11 11.6183 11.7173 11.9783C11.39 12.3383 10.9973 12.2728 10.6373 11.9128C10.2118 11.5201 9.75364 11.1274 9.39364 10.6365C9.23001 10.4401 9.19728 10.0474 9.29546 9.78557C9.36092 9.58921 9.65546 9.4583 9.88455 9.32739Z" fill="black"/>
<path d="M31.6138 23.989C36.6211 23.989 40.6793 28.0799 40.6793 33.0872C40.6793 38.0617 36.5556 42.1854 31.5811 42.1527C26.5738 42.1199 22.5156 38.029 22.5156 33.0545C22.5156 28.0472 26.6065 23.989 31.6138 23.989ZM31.5811 25.4945C27.4247 25.4945 24.0211 28.8981 24.0211 33.0545C24.0211 37.1781 27.4247 40.6145 31.5811 40.6145C35.7374 40.6145 39.1738 37.1781 39.1738 33.0217C39.1411 28.8654 35.7374 25.4945 31.5811 25.4945Z" fill="black"/>
<path d="M31.6476 14.6292C32.3349 14.6292 33.0222 14.6292 33.7422 14.6292C34.2658 14.6292 34.6258 14.8583 34.6258 15.3819C34.6258 15.8728 34.2658 16.1347 33.7749 16.1347C32.3349 16.1347 30.9276 16.1347 29.4876 16.1347C28.9967 16.1347 28.6367 15.8728 28.6367 15.3819C28.6367 14.8583 28.9967 14.5965 29.5204 14.6292C30.2076 14.6292 30.9276 14.6292 31.6476 14.6292Z" fill="black"/>
<path d="M27.7202 18.6546C27.4256 18.6546 27.1311 18.6874 26.8365 18.6546C26.3456 18.6219 26.0184 18.3601 26.0511 17.8364C26.0838 17.3783 26.3784 17.1492 26.8693 17.1492C27.4584 17.1492 28.0474 17.1492 28.6365 17.1492C29.0947 17.1492 29.3565 17.411 29.3893 17.8364C29.3893 18.3274 29.1274 18.5892 28.6693 18.6546C28.342 18.6874 28.0474 18.6546 27.7202 18.6546Z" fill="black"/>
<path d="M16.3307 19.5054C17.8689 17.9672 19.3089 16.4945 20.7816 15.0545C20.9453 14.8908 21.0762 14.6617 21.2398 14.6617C21.5344 14.629 21.9598 14.5963 22.1235 14.7599C22.3198 14.9236 22.2871 15.349 22.2544 15.6436C22.2544 15.7745 22.058 15.9054 21.9271 16.0363C20.3562 17.6072 18.7525 19.2108 17.1489 20.8145C16.5271 21.4363 16.1998 21.4363 15.6107 20.8472C14.8253 20.0945 14.0725 19.309 13.2871 18.5235C12.8616 18.0981 12.8289 17.6399 13.1889 17.3126C13.6144 16.9526 14.0071 17.0835 14.3671 17.4435C14.9889 18.1308 15.6435 18.7854 16.3307 19.5054Z" fill="black"/>
<path d="M30.7964 28.7999C30.96 27.4581 31.0909 27.229 31.6473 27.229C32.1709 27.2617 32.3018 27.5563 32.4 28.7999C32.5964 28.8326 32.8255 28.8654 33.0546 28.8981C34.1346 29.0945 34.9855 30.0763 35.0509 31.1236C35.0837 31.6145 34.92 31.9745 34.3964 32.0399C33.8728 32.1054 33.6437 31.8108 33.5128 31.3199C33.3491 30.5345 33.12 30.3381 32.3018 30.3381C31.8109 30.3381 31.2873 30.3381 30.7964 30.3381C30.0764 30.3708 29.7164 30.7308 29.6837 31.3199C29.6837 31.909 30.0764 32.3017 30.8291 32.3017C31.3855 32.3017 31.9091 32.3017 32.4655 32.3017C33.8728 32.3017 34.9528 33.3163 35.0182 34.6581C35.0837 36.0654 34.1018 37.1126 32.6618 37.2436C32.5964 37.2436 32.4982 37.2763 32.4 37.2763C32.2691 37.8981 32.6291 38.749 31.6146 38.8472C31.0909 38.9126 30.9273 38.5199 30.8291 37.309C30.5018 37.2435 30.1418 37.2108 29.8146 37.0799C28.8655 36.7526 28.2109 35.8036 28.2109 34.8872C28.2109 34.429 28.3746 34.1017 28.8655 34.0363C29.3564 33.9708 29.6182 34.2326 29.7164 34.6908C29.9455 35.5745 30.1091 35.7381 30.9928 35.7381C31.5164 35.7381 32.04 35.7381 32.5637 35.7381C33.1528 35.7054 33.5128 35.3126 33.5455 34.789C33.5455 34.2654 33.1528 33.8726 32.5964 33.8399C32.04 33.8072 31.4509 33.8399 30.8946 33.8399C29.4218 33.8072 28.3418 32.8908 28.2437 31.5817C28.08 30.109 28.9637 29.0945 30.5018 28.8654C30.6 28.8326 30.6982 28.7999 30.7964 28.7999Z" fill="black"/>
</svg>
