<svg width="45" height="45" viewBox="0 0 45 45" fill="none" xmlns="http://www.w3.org/2000/svg">
<rect width="45" height="45" rx="10" fill="#E60023"/>
<rect x="0.5" y="0.5" width="44" height="44" rx="9.5" stroke="#9C9C9C" stroke-opacity="0.467"/>
<g clipPath="url(#clip0_296_381)">
<path d="M22.9894 12.112C18.7197 12.112 14.5 14.9584 14.5 19.5652C14.5 22.4948 16.1479 24.1594 17.1467 24.1594C17.5587 24.1594 17.7959 23.0109 17.7959 22.6863C17.7959 22.2993 16.8096 21.4753 16.8096 19.8648C16.8096 16.519 19.3564 14.147 22.6523 14.147C25.4862 14.147 27.5836 15.7574 27.5836 18.7162C27.5836 20.926 26.6972 25.0708 23.8258 25.0708C22.7896 25.0708 21.9032 24.3217 21.9032 23.2481C21.9032 21.675 23.0019 20.1519 23.0019 18.529C23.0019 15.7741 19.0943 16.2735 19.0943 19.6026C19.0943 20.3018 19.1816 21.0758 19.4938 21.7125C18.9195 24.1844 17.7459 27.8673 17.7459 30.4141C17.7459 31.2006 17.8583 31.9746 17.9332 32.7612C18.0747 32.9193 18.0039 32.9027 18.2203 32.8236C20.3177 29.9522 20.2428 29.3904 21.1916 25.6326C21.7035 26.6064 23.0268 27.1307 24.0755 27.1307C28.495 27.1307 30.48 22.8236 30.48 18.941C30.48 14.8086 26.9095 12.112 22.9894 12.112Z" fill="white"/>
</g>
<defs>
<clipPath id="clip0_296_381">
<rect width="15.98" height="21.31" fill="white" transform="translate(14.5 11.8398)"/>
</clipPath>
</defs>
</svg>
