<svg width="45" height="45" viewBox="0 0 45 45" fill="none" xmlns="http://www.w3.org/2000/svg">
<rect width="45" height="45" rx="10" fill="#FF5700"/>
<rect x="0.5" y="0.5" width="44" height="44" rx="9.5" stroke="#9C9C9C" stroke-opacity="0.467"/>
<g clipPath="url(#clip0_296_376)">
<path d="M27.3646 17.6085C26.3158 17.6085 25.4376 16.8802 25.2045 15.9021C23.9309 16.081 22.9486 17.1798 22.9486 18.4992V18.5075C24.9215 18.5825 26.7195 19.136 28.1471 20.0184C28.6715 19.6147 29.3291 19.3733 30.0409 19.3733C31.7598 19.3733 33.15 20.7634 33.15 22.4824C33.15 23.7227 32.4258 24.7923 31.3727 25.2918C31.2729 28.9045 27.3355 31.8096 22.4991 31.8096C17.6628 31.8096 13.7337 28.9087 13.6297 25.3001C12.5725 24.8048 11.84 23.731 11.84 22.4824C11.84 20.7634 13.2301 19.3733 14.9491 19.3733C15.6649 19.3733 16.3226 19.6147 16.8511 20.0226C18.2663 19.1443 20.0476 18.5908 21.9997 18.5075V18.4951C21.9997 16.6512 23.4023 15.1279 25.1962 14.9365C25.4001 13.9292 26.2908 13.1717 27.3646 13.1717C28.5883 13.1717 29.583 14.1665 29.583 15.3901C29.583 16.6138 28.5883 17.6085 27.3646 17.6085ZM18.3953 22.4657C17.5254 22.4657 16.7762 23.3314 16.7221 24.4594C16.668 25.5873 17.4338 26.0451 18.3037 26.0451C19.1736 26.0451 19.8271 25.6372 19.877 24.5093C19.9269 23.3814 19.2652 22.4657 18.3911 22.4657M28.2803 24.4552C28.2304 23.3273 27.4812 22.4615 26.6071 22.4615C25.7331 22.4615 25.0713 23.3772 25.1213 24.5051C25.1712 25.6331 25.8247 26.041 26.6945 26.041C27.5644 26.041 28.3302 25.5831 28.2761 24.4552M25.7789 27.402C25.8413 27.2521 25.7372 27.0815 25.5749 27.0648C24.6176 26.9691 23.5813 26.915 22.5033 26.915C21.4253 26.915 20.3889 26.9691 19.4317 27.0648C19.2693 27.0815 19.1653 27.2521 19.2277 27.402C19.7646 28.6839 21.0299 29.5829 22.5033 29.5829C23.9767 29.5829 25.242 28.6839 25.7789 27.402Z" fill="white"/>
</g>
<defs>
<clipPath id="clip0_296_376">
<rect width="21.31" height="21.31" fill="white" transform="translate(11.84 11.8398)"/>
</clipPath>
</defs>
</svg>
