<svg width="46" height="46" viewBox="0 0 46 46" fill="none" xmlns="http://www.w3.org/2000/svg">
<path d="M24.2331 30.4227C26.8258 30.4646 28.9167 31.51 30.4222 33.6218C31.3004 34.8345 31.7186 36.2146 31.7395 37.6991C31.7604 38.64 31.7604 39.6018 31.7395 40.5427C31.7186 42.1318 30.5267 43.3236 28.9586 43.3236C25.2995 43.3236 21.6195 43.3236 17.9604 43.3236C16.3922 43.3236 15.1795 42.1109 15.2004 40.5636C15.2004 39.2045 15.1167 37.8036 15.3467 36.4864C15.9113 32.9736 19.0686 30.3809 22.6858 30.4227C21.2849 30.1091 20.114 29.44 19.2986 28.2273C18.4831 27.0355 18.2113 25.6973 18.5458 24.2755C19.0895 21.9127 21.2013 20.24 23.5849 20.3027C26.0313 20.3655 28.1013 22.1427 28.4776 24.5055C28.7076 25.9064 28.4149 27.1818 27.5786 28.3527C26.7213 29.4818 25.5922 30.13 24.2331 30.4227Z" fill="#8D4CFF"/>
<path d="M35.1473 29.5026C37.4055 29.5235 39.1619 30.3181 40.5 32.0117C41.3573 33.099 41.7964 34.3326 41.8382 35.7126C41.8591 36.4444 41.8591 37.1763 41.8382 37.9081C41.7964 39.2881 40.7091 40.4799 39.35 40.5217C37.4682 40.5844 35.5864 40.5426 33.7046 40.5426C33.6837 40.5426 33.6628 40.5217 33.5791 40.4799C33.5791 39.6644 33.5791 38.8072 33.5791 37.9708C33.6 36.549 33.3282 35.2108 32.7219 33.9144C32.1155 32.5972 31.2373 31.489 30.0664 30.5481C31.1955 29.7744 32.4291 29.4817 33.7673 29.4608C32.6382 29.189 31.6973 28.6244 31.0491 27.6417C30.401 26.659 30.1919 25.5717 30.4637 24.4217C30.9028 22.4563 32.7219 21.1181 34.75 21.2017C36.7364 21.3063 38.3673 22.8535 38.6182 24.9026C38.8691 27.0144 37.5519 28.7917 35.1473 29.5026Z" fill="#8D4CFF"/>
<path d="M13.3398 40.5637C11.3534 40.5637 9.45071 40.6055 7.54798 40.5428C6.18889 40.501 5.10162 39.3092 5.08071 37.9501C5.0598 36.6955 4.95526 35.441 5.2898 34.2282C6.06344 31.4892 8.5098 29.5864 11.3534 29.5237C11.458 29.5237 11.5625 29.5237 11.6671 29.5028C10.5171 29.231 9.59708 28.6455 8.94889 27.6419C8.30071 26.6592 8.11253 25.5719 8.38435 24.4219C8.82344 22.4982 10.6007 21.1601 12.608 21.2437C14.5943 21.3064 16.2253 22.8119 16.5389 24.8819C16.8525 26.931 15.6189 28.6246 13.1307 29.5237C14.4898 29.5237 15.7234 29.8373 16.8734 30.5901C15.828 31.4473 14.9916 32.4301 14.4062 33.5801C13.7789 34.8137 13.4025 36.1101 13.3816 37.511C13.3398 38.4937 13.3398 39.4973 13.3398 40.5637Z" fill="#8D4CFF"/>
<path d="M19.3196 13.6536C19.6333 12.6918 19.2569 11.8345 18.5251 11.0818C18.2115 10.7681 17.9605 10.3918 17.7096 10.0363C17.2078 9.3463 17.4796 8.50994 18.2951 8.23812C19.0687 7.98721 19.8424 7.79903 20.5951 7.54812C20.8042 7.48539 20.9924 7.33903 21.1178 7.15085C21.5778 6.52357 21.996 5.87539 22.4351 5.22721C22.9787 4.43267 23.8778 4.43267 24.4215 5.2063C24.8605 5.81267 25.2787 6.43994 25.676 7.06721C25.8433 7.33903 26.0733 7.48539 26.3869 7.56903C27.0978 7.75721 27.7878 7.9663 28.4987 8.17539C29.4396 8.46812 29.7115 9.30448 29.1051 10.099C28.6451 10.7054 28.1642 11.2908 27.7251 11.9181C27.5996 12.1063 27.516 12.3572 27.4951 12.5663C27.4951 13.3399 27.5369 14.1136 27.5578 14.8872C27.5787 15.8281 26.8678 16.3508 25.9687 16.0372C25.216 15.7863 24.4633 15.4936 23.6896 15.2427C23.5224 15.1799 23.3133 15.1799 23.1669 15.2427C22.4351 15.4936 21.7033 15.7654 20.9715 16.0163C19.9887 16.4136 19.2987 15.9118 19.3196 14.8663C19.3196 14.4899 19.3196 14.1136 19.3196 13.6536Z" fill="#8D4CFF"/>
<path d="M6.62741 15.9327C6.92013 15.0963 6.48104 14.3645 5.85377 13.6954C5.64468 13.4445 5.43559 13.1727 5.24741 12.9008C4.82922 12.3154 5.05922 11.6045 5.77013 11.3954C6.39741 11.2072 7.04559 11.0399 7.67286 10.8308C7.86104 10.7681 8.04922 10.6218 8.17468 10.4754C8.55104 9.95266 8.88559 9.40903 9.26195 8.8863C9.74286 8.21721 10.4538 8.21721 10.9347 8.86539C11.1229 9.1163 11.311 9.3463 11.4365 9.61812C11.8756 10.5172 12.5865 10.9981 13.5483 11.1445C13.841 11.1863 14.1129 11.2908 14.3847 11.3745C15.1792 11.6254 15.3883 12.3154 14.8865 12.9845C14.5101 13.5072 14.1129 13.9881 13.7574 14.5108C13.632 14.6781 13.5692 14.929 13.5483 15.1381C13.5483 15.7654 13.5901 16.3718 13.5901 16.999C13.611 17.8563 13.0047 18.2954 12.1892 18.0236C11.7083 17.8354 11.2274 17.689 10.7465 17.4799C10.3074 17.2918 9.91013 17.2708 9.47104 17.4799C8.99013 17.689 8.50922 17.8354 8.00741 18.0027C7.19195 18.2745 6.62741 17.8563 6.62741 16.999C6.62741 16.6854 6.62741 16.3718 6.62741 15.9327Z" fill="#8D4CFF"/>
<path d="M33.3085 16.0164C33.5803 15.1591 33.2458 14.4273 32.6394 13.8C32.4094 13.57 32.2212 13.2773 32.033 13.0264C31.5103 12.3364 31.7194 11.6464 32.5558 11.3955C32.9949 11.2282 33.4549 11.0819 33.9149 10.9773C34.4585 10.8519 34.8767 10.601 35.1485 10.0991C35.3576 9.70186 35.6503 9.3255 35.9221 8.94913C36.4449 8.19641 37.1767 8.1755 37.6994 8.92822C38.0339 9.40913 38.3476 9.91095 38.703 10.371C38.8703 10.58 39.1212 10.7473 39.3721 10.8519C39.8949 11.04 40.4385 11.1655 40.9821 11.3328C41.923 11.6046 42.153 12.2946 41.5676 13.0682C41.2121 13.5491 40.8149 14.0091 40.4803 14.511C40.3549 14.6782 40.2921 14.9291 40.2921 15.1382C40.2921 15.7864 40.3339 16.4346 40.3339 17.0828C40.3339 17.8355 39.7485 18.2746 39.0376 18.0446C38.4103 17.8355 37.8039 17.5846 37.1767 17.3964C36.9885 17.3337 36.7585 17.3337 36.5703 17.3964C35.9639 17.5846 35.3785 17.8146 34.793 18.0237C33.9567 18.3164 33.3712 17.8773 33.3921 16.9782C33.3085 16.6646 33.3085 16.3509 33.3085 16.0164Z" fill="#8D4CFF"/>
</svg>
