<svg width="213" height="243" viewBox="0 0 213 243" fill="none" xmlns="http://www.w3.org/2000/svg">
<path d="M211.474 203.352C210.1 199.842 208.226 196.485 206.561 193.117C204.751 189.456 202.852 185.84 200.986 182.208C197.318 175.072 193.636 167.945 189.942 160.823C186.347 153.892 182.865 146.873 178.519 140.371C176.524 137.388 174.21 134.262 171.501 131.892C171.014 131.465 170.513 131.056 170.006 130.654C167.325 127.102 164.277 123.857 160.711 121.164C157.653 118.855 153.635 117.738 150.534 117.592C154.504 137.673 182.535 207.263 190.835 223.853C190.859 223.902 190.888 223.947 190.913 223.995C196.378 223.236 201.702 221.653 206.398 218.641C207.792 217.746 209.075 216.722 210.266 215.603C210.787 214.906 211.27 214.185 211.716 213.445C212.278 210.048 212.164 206.702 211.474 203.352Z" fill="#E2E2E2"/>
<path d="M105.493 119.691C104.008 120.541 102.593 121.489 101.23 122.503C99.8847 122.938 98.5671 123.533 97.348 124.24C94.4541 125.918 91.757 128.068 89.2794 130.305C84.3031 134.8 80.1361 140.098 76.3368 145.603C72.3271 151.412 68.7074 157.479 64.7118 163.297C61.6227 167.795 58.1696 171.761 54.4554 175.609C53.5723 174.788 52.6938 173.963 51.8299 173.123C47.3063 168.722 42.9581 164.138 38.7164 159.465C36.554 157.083 34.4306 154.663 32.3663 152.196C30.4085 149.855 28.488 146.137 25.1897 145.679C21.5783 145.177 19.2611 148.425 16.983 150.716C14.4255 153.287 11.5581 155.857 10.1033 159.243C9.76481 160.03 9.77312 160.768 10.0135 161.403C9.9839 161.459 9.95327 161.514 9.92576 161.573C9.81673 161.786 9.7321 162.014 9.67811 162.254C9.67551 162.264 9.67447 162.273 9.67188 162.282C13.7054 168.859 17.5286 175.564 21.7091 182.05C25.5318 187.982 29.6406 193.818 34.468 198.984C36.8759 201.561 39.5507 204.142 42.4628 206.378L42.4633 206.378C42.7961 206.634 43.132 206.885 43.4716 207.131C43.4799 207.138 43.4887 207.143 43.497 207.149C43.8267 207.388 44.159 207.622 44.4944 207.851C44.5214 207.87 44.5494 207.887 44.5764 207.906C44.8936 208.121 45.2129 208.332 45.5353 208.537C45.5904 208.573 45.6464 208.606 45.702 208.641C45.999 208.827 46.2975 209.012 46.5986 209.189C46.6889 209.243 46.7808 209.293 46.8712 209.345C47.1412 209.501 47.4117 209.657 47.6847 209.805C47.8208 209.878 47.9589 209.946 48.0954 210.018C48.3285 210.14 48.5611 210.264 48.7968 210.379C48.9983 210.478 49.2023 210.57 49.4053 210.664C49.5813 210.745 49.7558 210.831 49.9333 210.909C50.318 211.079 50.7053 211.24 51.0963 211.391C51.3273 211.48 51.5568 211.561 51.7852 211.638C51.9067 211.679 52.0272 211.716 52.1476 211.754C52.2348 211.781 52.3226 211.808 52.4093 211.833C60.3346 214.168 66.5694 209.327 71.4238 203.274C86.2453 177.87 110.65 132.393 115.844 116.841C112.75 116.593 108.82 117.789 105.493 119.691ZM23.7027 156.183C23.7334 156.154 23.7635 156.126 23.7941 156.097C23.8455 156.049 23.9011 155.995 23.9582 155.939C24.3564 156.467 24.7536 156.996 25.1507 157.525C24.6684 157.077 24.1856 156.63 23.7027 156.183Z" fill="#E2E2E2"/>
<path d="M47.5886 168.885C45.7279 172.446 44.527 176.518 43.5759 180.267C42.6341 183.98 40.7931 190.923 43.5645 194.471C46.4485 190.892 48.3539 186.713 49.9379 182.411C50.3055 181.413 51.7945 181.646 51.7842 182.727C51.7302 188.289 49.695 195.707 52.9803 200.712C55.9246 196.43 55.5056 190.579 56.2771 185.64C56.4282 184.674 57.9489 184.313 58.141 185.453C58.9816 190.443 59.9888 195.838 63.366 199.778C67.5807 196.857 65.0767 188.328 64.0327 184.479C62.7409 179.718 60.9747 175.111 59.0709 170.565C57.5844 172.288 56.0456 173.961 54.4548 175.609C53.5712 174.788 52.6927 173.963 51.8293 173.123C50.3974 171.73 48.9884 170.313 47.5886 168.885Z" fill="#D0D0D0"/>
<path d="M169.277 76.8738C168.737 74.5411 166.648 72.5947 164.14 72.8891C162.502 73.0812 161.276 74.2078 160.408 75.6075C160.83 71.5922 165.676 45.1944 162.657 36.3678C160.488 30.0271 151.303 23.027 145.096 20.4783C140.43 18.1378 135.194 17.1934 129.925 17.4245C124.655 17.1934 119.419 18.1378 114.753 20.4783C108.546 23.027 99.3612 30.0271 97.1931 36.3678C94.1735 45.1944 99.0195 71.5922 99.4416 75.6075C98.5741 74.2078 97.3473 73.0812 95.7092 72.8891C93.2016 72.5952 91.1124 74.5416 90.5725 76.8738C89.2397 82.6253 96.4387 90.062 102.048 89.8461C102.178 89.8409 102.291 89.8128 102.389 89.7671C102.558 90.156 102.869 90.5018 102.924 90.927C103.789 97.6789 106.142 104.304 119.014 106.681C122.736 107.368 126.178 109.186 129.925 109.269C133.672 109.186 137.095 107.257 140.835 106.681C156.595 104.256 153.672 97.4339 156.926 90.927C157.118 90.5438 157.291 90.156 157.461 89.7671C157.558 89.8123 157.671 89.8409 157.802 89.8461C163.411 90.062 170.609 82.6253 169.277 76.8738Z" fill="#DCDCDC"/>
<path d="M160.985 76.4512C159.929 80.2396 158.905 84.0328 158.301 87.9225C162.243 84.9496 167.906 76.6692 160.985 76.4512Z" fill="#EBEBEB"/>
<path d="M139.668 102.405C136.864 101.773 134.074 100.983 131.209 101.055C127.622 101.146 124.008 102.163 120.866 103.893C120.612 107.478 119.657 110.618 116.656 113.308C114.918 114.866 112.835 116.022 110.612 116.673C120.465 124.549 136.065 123.531 146.313 117.058C146.728 116.796 146.974 116.397 147.087 115.968C142.219 113.591 140.32 107.908 139.668 102.405Z" fill="#EBEBEB"/>
<path d="M96.8748 77.2755C96.1345 77.8295 95.729 79.062 95.648 79.9228C95.5172 81.3324 96.1137 82.7098 96.8514 83.8764C98.1224 85.8882 99.992 87.5532 102.033 88.8081C101.525 85.4464 100.917 82.1081 100.147 78.7993C99.4531 77.6701 98.3643 76.1614 96.8748 77.2755Z" fill="#EBEBEB"/>
<path opacity="0.43" d="M105.947 57.8791C107.291 54.2376 111.178 52.219 111.845 48.6013C112.516 44.9494 110.949 42.1728 115.04 40.1454C117.752 38.8023 121.08 39.2935 123.951 40.1787C123.901 39.6211 123.859 39.0635 123.8 38.5069C123.632 37.7899 124.344 37.0563 125.073 37.3201C132.937 40.1646 139.454 45.5662 147.938 41.0306C148.461 40.7508 149.297 41.026 149.386 41.6796C150.216 47.7571 153.188 53.0793 155.448 58.6984C156.175 60.5082 156.643 62.3415 157.207 64.2017C157.999 66.8095 159.664 68.0187 161.422 68.0935C162.822 58.5078 164.89 42.3784 162.657 35.8503C160.489 29.5095 151.303 22.5094 145.096 19.9607C140.431 17.6203 135.195 16.6764 129.925 16.9069C124.656 16.6759 119.419 17.6203 114.753 19.9607C108.547 22.5089 99.3613 29.5095 97.1932 35.8503C94.7614 42.9594 97.431 61.4604 98.7824 70.491C99.2985 70.2283 100.065 70.355 100.288 71.0777C100.577 72.0133 100.842 72.9535 101.098 73.8953C102.979 68.6355 104.016 63.1104 105.947 57.8791Z" fill="#EBEBEB"/>
<path d="M164.381 79.9642C164.577 78.9804 164.876 77.3065 164.279 76.3949C163.575 75.3176 162.483 76.0797 161.617 76.6493C161.593 76.6648 161.572 76.6638 161.548 76.6768C161.096 79.8796 160.657 83.0845 160.226 86.2904C162.558 85.183 163.899 82.3862 164.381 79.9642Z" fill="#EBEBEB"/>
<path d="M101.128 87.2945C100.364 83.6239 99.7811 79.8645 98.6903 76.2754C93.0079 78.4907 96.8368 85.5521 101.128 87.2945Z" fill="#EBEBEB"/>
<path d="M170.082 152.023C166.889 138.819 162.833 123.761 148.223 116.049C147.376 115.601 146.897 115.167 144.473 113.955C142.673 115.873 139.792 117.632 136.721 118.806C135.597 119.298 134.451 119.696 133.301 119.959C127.798 121.22 121.721 119.782 117.728 115.696C116.96 114.91 116.305 114.069 115.722 113.195C113.621 114.33 111.707 115.64 110.934 116.049C96.3239 123.761 92.2676 138.819 89.0751 152.023C83.7302 174.129 82.8289 225.695 82.6768 242.458H176.48C176.328 225.696 175.427 174.129 170.082 152.023Z" fill="#B6B6B6"/>
<path d="M118.919 137.855C123.389 135.561 126.604 131.541 130.422 128.364C130.712 128.122 131.185 128.154 131.369 128.519C132.272 130.313 132.974 132.19 133.81 134.015C134.184 134.829 134.626 136.758 135.275 137.37C137.454 139.422 143.093 134.156 144.505 132.676C148.247 128.756 150.813 123.707 151.999 118.4C150.817 117.565 149.579 116.767 148.223 116.051C147.375 115.603 146.897 115.169 144.473 113.957C142.673 115.875 139.792 117.634 136.721 118.808C135.597 119.3 134.45 119.698 133.301 119.961C127.798 121.222 121.721 119.784 117.728 115.698C116.96 114.912 116.305 114.071 115.721 113.197C113.842 114.213 112.117 115.364 111.22 115.888C111.173 123.734 114.732 131.313 118.919 137.855Z" fill="#D7D7D7"/>
<path d="M134.608 162.084C136.376 157.978 135.763 152.411 135.397 148.097C134.684 139.688 133.246 130.555 130.379 122.387C122.727 132.96 121.615 148.793 124.959 161.336C128.041 163.872 132.52 166.932 134.608 162.084Z" fill="#9C9C9C"/>
<path d="M131.95 127.512C131.477 125.775 130.965 124.057 130.379 122.387C128.07 125.577 126.367 129.25 125.191 133.163C127.381 131.202 129.628 129.311 131.95 127.512Z" fill="#EFEFEF"/>
<path d="M126.462 150.908C129.122 148.011 132.005 145.338 134.806 142.586C134.646 141.309 134.48 140.027 134.282 138.74C132.251 140.798 130.316 142.968 128.254 144.957C126.623 146.531 124.942 148.048 123.24 149.543C123.296 151.064 123.432 152.57 123.607 154.061C124.555 153.007 125.503 151.954 126.462 150.908Z" fill="#EFEFEF"/>
<path d="M126.122 162.255C127.107 161.245 128.089 160.231 129.077 159.221C131.188 157.064 133.311 154.558 135.732 152.543C135.651 150.993 135.514 149.478 135.397 148.096C135.376 147.852 135.344 147.601 135.322 147.355C133.185 149.418 131.04 151.473 129.03 153.662C127.464 155.37 125.917 157.092 124.367 158.808C124.546 159.661 124.739 160.507 124.96 161.334C125.328 161.639 125.719 161.95 126.122 162.255Z" fill="#EFEFEF"/>
<path d="M129.444 164.239C131.473 165.036 133.424 164.83 134.608 162.083C135.2 160.707 135.509 159.162 135.667 157.561C133.432 159.734 131.383 162.2 129.444 164.239Z" fill="#EFEFEF"/>
<path d="M126.879 141.036C129.123 138.807 131.233 136.477 133.515 134.329C133.332 133.383 133.153 132.436 132.944 131.496C129.76 134.044 126.72 136.767 123.768 139.592C123.527 141.198 123.375 142.822 123.284 144.449C124.502 143.333 125.706 142.202 126.879 141.036Z" fill="#EFEFEF"/>
<path d="M170.082 152.024C167.062 139.535 163.256 125.396 150.491 117.375C148.037 131.131 140.43 144.931 129.732 153.192C129.457 153.405 129.134 153.401 128.876 153.162C118.92 143.972 111.136 129.993 110.888 116.076C96.3167 123.795 92.264 138.834 89.0751 152.024C83.7302 174.129 82.8289 225.695 82.6768 242.458H176.48C176.328 225.696 175.427 174.13 170.082 152.024Z" fill="#CCCCCC"/>
<path d="M150.853 134.637C154.486 132.654 158.519 131.625 162.203 129.769C159.42 124.971 155.714 120.656 150.491 117.375C148.037 131.131 140.431 144.931 129.732 153.192C129.457 153.405 129.134 153.401 128.876 153.162C118.92 143.972 111.136 129.993 110.888 116.076C109.99 116.552 109.133 117.057 108.312 117.586C105.312 123.44 102.488 129.377 100.06 135.5C103.728 136.126 107.443 136.204 111.156 136.383C111.639 136.406 111.861 136.911 111.647 137.313C109.995 140.423 108.138 143.417 106.468 146.517C105.45 148.408 103.784 150.027 105.906 151.344C107.267 152.189 108.822 152.799 110.241 153.548C113.303 155.162 127.766 165.004 128.572 164.888C128.959 164.832 129.503 180.304 129.569 187.506C129.637 194.969 129.243 202.428 129.334 209.892C129.429 217.607 129.76 225.326 129.933 233.04C130 236.042 130.437 239.335 130.153 242.458H134.042C133.796 238.215 131.626 195.671 131.535 185.578C131.49 180.529 130.99 165.672 131.602 164.417C132.098 163.399 143.004 155.682 146.883 152.942C150.755 150.206 154.741 147.644 158.367 144.581C155.832 141.484 152.757 138.866 150.607 135.458C150.431 135.179 150.581 134.786 150.853 134.637Z" fill="#BFBFBF"/>
<path d="M114.519 123.939C115.375 125.814 116.286 127.676 117.567 129.3C118.732 130.778 119.968 132.088 120.844 133.728C124.055 130.741 127.101 127.626 129.716 124.087C130.045 123.642 130.635 123.776 130.818 124.27C131.663 126.557 136.893 132.449 137.774 133.8C141.146 130.808 144.874 128.306 147.127 124.267C148.386 122.01 149.325 119.578 149.97 117.07C149.397 116.723 148.832 116.371 148.222 116.049C147.375 115.601 146.897 115.167 144.472 113.955C142.673 115.873 139.791 117.632 136.721 118.806C135.597 119.298 134.45 119.696 133.3 119.959C127.798 121.22 121.72 119.782 117.728 115.696C116.96 114.91 116.304 114.069 115.721 113.195C114.221 114.006 112.823 114.901 111.86 115.498C112.168 118.441 113.372 121.423 114.519 123.939Z" fill="#BEBEBE"/>
<path d="M165.214 161.537C162.322 161.528 159.431 161.519 156.539 161.509C154.429 161.503 152.552 161.296 150.68 161.91C149.329 162.097 148.023 162.456 146.88 163.197C146.083 163.713 146.083 164.816 146.88 165.332C148.02 166.071 149.321 166.43 150.669 166.618C152.543 167.239 154.401 167.027 156.539 167.02C159.431 167.011 162.322 167.002 165.214 166.993C166.972 166.998 167.851 165.631 167.848 164.265C167.852 162.898 166.975 161.531 165.214 161.537Z" fill="#ADADAD"/>
<path d="M123.258 170.572C119.675 170.572 119.669 176.141 123.258 176.141C126.842 176.141 126.848 170.572 123.258 170.572Z" fill="#ADADAD"/>
<path d="M123.864 188.133C122.081 188.133 120.372 189.701 120.455 191.542C120.538 193.39 121.953 194.952 123.864 194.952C125.648 194.952 127.356 193.383 127.274 191.542C127.191 189.695 125.776 188.133 123.864 188.133Z" fill="#ADADAD"/>
<path d="M125.076 204.934C120.469 204.934 120.462 212.094 125.076 212.094C129.683 212.094 129.691 204.934 125.076 204.934Z" fill="#ADADAD"/>
<path d="M125.077 224.596C123.342 224.596 121.682 226.121 121.762 227.911C121.842 229.707 123.218 231.226 125.077 231.226C126.811 231.226 128.472 229.701 128.391 227.911C128.311 226.115 126.935 224.596 125.077 224.596Z" fill="#ADADAD"/>
<path d="M166.821 33.4497C166.575 32.2327 165.13 31.9311 164.201 32.5068C164.163 28.9219 163.301 25.3899 161.462 22.402C160.862 21.1518 159.999 19.9889 159.004 18.8893C155.653 15.1839 151.754 11.8876 148.099 8.48694C147.722 8.13649 147.053 8.37376 147.06 8.91734C147.066 9.22262 147.061 9.52842 147.062 9.8337C144.757 8.6131 142.788 6.99066 141.372 4.72599C141.108 4.30546 140.48 4.39164 140.333 4.8615C139.681 6.93563 137.274 3.38235 135.517 3.92957C133.228 4.64241 135.327 7.72167 132.343 3.34809C132.073 2.95247 131.583 2.97739 131.309 3.34809C131.161 3.55213 131.006 3.75097 130.855 3.95293C130.021 2.9234 129.564 1.87829 129.319 0.504535C129.206 -0.131981 128.322 -0.140807 128.021 0.335282C125.454 4.38905 121.557 7.51088 116.922 8.86646C112.976 10.0201 109.634 10.1115 106.358 12.8616C103.364 15.3754 101.211 17.8436 99.4175 21.2941C98.848 22.389 98.2265 23.8126 97.0548 24.3895C96.709 24.5597 96.2952 24.5956 95.8731 24.6184C95.682 24.9631 95.5014 25.3146 95.3165 25.663C91.4559 29.0818 90.1912 35.9256 89.7976 41.4362C88.8813 46.8939 88.9971 52.4896 90.5614 57.9799C91.3355 60.6994 92.5156 63.2299 93.8187 65.6996C95.3363 69.5831 97.1337 73.3814 98.9757 77.1253C99.9481 79.1018 103.122 77.7166 102.508 75.6362C99.931 66.9104 102.037 60.4045 104.029 52.2347C104.676 51.4331 105.434 50.6719 106.341 49.9591C106.597 49.7577 106.552 49.401 106.404 49.1507C106.437 49.0287 106.458 48.901 106.439 48.7531C105.518 41.4191 110.833 35.4101 118.534 36.8872C119.624 37.0964 120.935 36.3939 120.853 35.1204C120.677 32.363 130.37 36.7309 131.768 37.1436C134.406 37.9219 137.24 38.2604 139.966 37.7802C141.716 37.4712 143.478 36.8545 144.962 35.9023C145.183 35.9101 145.408 35.9236 145.628 35.9298C146.343 35.9506 146.957 35.4797 147.23 34.8608C149.382 36.0409 151.373 37.3041 153.083 38.7853C159.645 48.1633 156.783 65.5932 158.503 75.5786C158.764 77.09 161.283 77.4648 161.913 76.0241C167.845 62.4636 169.762 48.0034 166.821 33.4497Z" fill="#A6A6A6"/>
<path d="M127.278 212.321C127.159 211.903 127.058 211.483 126.968 211.06C122.596 211.492 118.302 209.976 114.22 207.502C111.757 206.01 109.992 204.68 107.024 205.761C106.481 205.958 105.962 206.197 105.454 206.456C104.855 206.962 104.256 207.469 103.655 207.972C101.826 209.501 100.003 211.04 98.1582 212.552C97.0845 213.431 95.0353 214.558 94.8365 216.136C94.6267 217.798 96.3945 219.246 97.3519 220.393C98.6857 221.992 100.047 224.332 101.962 225.224C102.502 225.476 103.067 225.248 103.33 224.815C104.341 226.35 105.436 227.781 106.211 229.005C106.903 230.096 108.867 229.577 108.717 228.21C108.525 226.448 107.763 224.998 106.89 223.483C105.876 221.726 104.915 219.873 106.327 218.043C106.394 217.956 106.466 217.875 106.535 217.792C106.407 218.285 106.318 218.794 106.29 219.332C106.096 222.977 108.313 226.238 110.372 229.043C111.399 230.441 113.498 229.087 112.634 227.574C111.544 225.664 110.137 223 111.222 220.779C111.628 219.948 112.482 219.116 113.424 218.933C114.7 218.685 115.584 219.739 116.541 220.388C119.02 222.067 122.066 222.715 125.02 222.253C127.353 221.888 130.768 220.835 129.685 217.866C128.992 215.968 127.843 214.301 127.278 212.321Z" fill="#AFAFAF"/>
<path d="M105.655 213.619C103.337 214.031 101.653 216.386 101.457 218.657C101.376 219.59 101.528 220.807 101.893 221.972C101.82 221.874 101.748 221.775 101.681 221.678C100.936 220.585 100.107 219.54 99.6366 218.3C98.4555 215.186 102.19 214.008 104.105 212.453C104.332 212.269 104.188 211.851 103.872 211.959C101.723 212.688 98.4783 214.635 98.3776 217.203C98.3163 218.766 99.3562 220.005 100.193 221.23C100.796 222.115 101.602 224.16 102.725 224.414C102.835 224.439 102.955 224.401 103.043 224.328C103.412 224.826 103.839 225.234 104.325 225.493C104.562 225.619 104.811 225.333 104.67 225.112C103.618 223.457 102.451 221.286 102.377 219.277C102.285 216.774 103.899 215.235 105.827 213.982C106.034 213.848 105.867 213.581 105.655 213.619Z" fill="#EBEBEB"/>
<path d="M108.48 215.278C105.677 216.915 103.592 220.683 105.918 223.607C106.019 223.733 106.225 223.649 106.18 223.483C105.765 221.936 105.635 220.387 106.267 218.871C106.841 217.494 108.128 216.856 108.889 215.649C109.051 215.392 108.707 215.144 108.48 215.278Z" fill="#EBEBEB"/>
<path d="M112.98 217.236C111.682 218.329 110.125 219.847 109.66 221.538C108.95 224.125 110.88 226.629 111.288 229.095C111.387 229.693 112.319 229.694 112.258 229.058C112.06 226.979 110.687 225.204 110.546 223.142C110.382 220.753 112.338 219.486 113.485 217.694C113.668 217.407 113.247 217.011 112.98 217.236Z" fill="#EBEBEB"/>
<rect x="10" y="125" width="44" height="29" rx="7" fill="#8B8B8B"/>
<path d="M126.969 204.934C124.874 205.348 123.202 205.667 122.08 205.856C121.918 205.883 121.765 205.933 121.618 205.995C121.687 206.085 121.753 206.182 121.814 206.284C125.207 211.896 128.089 218.115 129.253 224.484C129.27 224.49 129.289 224.498 129.307 224.504C130.449 224.514 131.945 224.55 133.508 224.595C133.647 217.646 131.477 210.563 126.969 204.934Z" fill="#9C9C9C"/>
<path d="M210.425 201.565C209.845 200.468 209.165 199.407 208.407 198.401C208.03 198.247 207.662 198.014 207.317 197.68C202.045 192.573 194.465 191.098 187.399 190.295C175.5 192.044 139.865 201.038 126.062 204.183C128.071 211.705 131.37 218.858 132.481 226.376C136.577 226.505 141.538 226.739 141.687 226.734C146.051 226.6 172.232 225.743 180.958 225.423C185.762 225.247 191.05 225.462 196.057 224.755C200.954 223.329 205.676 221.232 209.601 218.178C210.741 216.789 211.633 215.202 212.175 213.465C213.438 209.416 212.348 205.202 210.425 201.565Z" fill="#E2E2E2"/>
<path d="M196.37 192.722C195.732 189.473 190.917 189.773 188.416 189.585C185.154 189.341 181.207 188.597 178.754 191.328C178.626 191.471 178.574 191.653 178.579 191.836C178.34 191.878 178.111 191.958 177.896 192.085C177.702 192.199 177.551 192.469 177.579 192.697C177.727 193.903 178.615 194.318 179.549 194.967C180.784 195.824 181.963 196.685 183.052 197.725C185.37 199.939 186.696 202.483 188.32 205.18C189.162 206.578 191.334 205.493 190.876 203.972C189.959 200.931 187.686 198.045 185.404 195.866C185.987 196.186 186.561 196.528 187.121 196.908C188.335 197.733 189.493 198.67 190.552 199.689C191.494 200.594 192.222 201.673 193.551 201.957C194.177 202.092 194.733 201.603 194.73 200.977C194.719 198.207 190.679 195.773 188.546 194.547C186.533 193.39 184.298 192.475 181.99 192.09C184.029 192.033 186.305 192.615 188.119 192.797C190.594 193.046 193.033 193.305 195.48 193.69C196.089 193.786 196.483 193.296 196.37 192.722Z" fill="#D0D0D0"/>
<path d="M137.991 220.477C137.057 220.477 136.197 221.393 136.274 222.328C136.358 223.324 137.126 224.045 138.126 224.045C139.06 224.045 139.921 223.128 139.843 222.193C139.76 221.198 138.991 220.477 137.991 220.477Z" fill="#B7B7B7"/>
<path d="M146.485 222.184C146.39 221.045 145.509 220.219 144.364 220.219C143.846 220.219 143.267 220.512 142.925 220.891C142.596 221.256 142.357 221.842 142.398 222.34C142.493 223.479 143.374 224.305 144.519 224.305C145.037 224.305 145.616 224.012 145.958 223.633C146.287 223.268 146.526 222.682 146.485 222.184Z" fill="#B7B7B7"/>
<path d="M151.766 220.416C150.827 220.416 149.963 221.337 150.041 222.277C150.124 223.277 150.897 224.001 151.902 224.001C152.84 224.001 153.704 223.08 153.626 222.141C153.543 221.141 152.771 220.416 151.766 220.416Z" fill="#B7B7B7"/>
<path d="M156.344 217.442C156.325 217.172 156.095 216.929 155.811 216.948C148.231 217.469 140.488 217.519 132.957 218.52C132.508 218.58 132.52 219.228 132.984 219.232C140.409 219.297 147.924 218.435 155.343 218.006C155.442 220.216 155.547 222.426 155.661 224.635C155.7 225.375 156.856 225.331 156.811 224.592C156.665 222.208 156.509 219.825 156.344 217.442Z" fill="#B7B7B7"/>
<path d="M21.8422 136.477C16.2937 138.234 10.8573 140.561 5.39401 142.581C5.35767 142.365 5.35559 142.177 5.37947 141.997C8.17941 141.152 10.8869 139.431 13.4828 138.154C15.748 137.039 20.0437 135.728 20.376 132.889C20.4928 131.893 20.1663 131.034 19.2738 130.52C16.7552 129.069 13.2876 131.625 11.0084 132.8C8.22095 134.236 4.93557 135.5 2.52138 137.504C2.45804 137.557 2.40145 137.613 2.34434 137.668C1.44616 138.059 0.696979 138.951 0.321092 139.857C-0.255199 141.248 -0.0226043 142.73 0.75409 143.908C0.82418 144.141 0.90517 144.373 0.995508 144.604C0.376644 146.002 0.783164 147.584 1.92692 148.542C0.756686 150.752 1.9913 153.362 3.88008 155.173C3.52288 156.253 3.87281 157.512 4.93194 158.264C5.96459 158.997 7.33211 159.08 8.67367 158.808C12.703 158.717 16.7957 157.487 20.6128 156.375C21.7877 156.033 22.5145 154.859 22.5093 153.678C22.5072 153.158 22.3723 152.726 22.0722 152.3C21.3874 151.327 20.1315 150.805 18.9685 151.189C16.6343 151.959 14.219 152.577 11.8407 153.283C11.0687 153.33 10.3309 153.259 9.59314 153.157C9.41558 153.014 9.23387 152.878 9.04904 152.749C10.7296 152.435 12.39 151.958 14.028 151.527C16.7168 150.82 19.4737 150.316 22.1412 149.543C24.9349 148.733 24.2403 143.876 21.2394 144.367C18.3943 144.832 15.5995 145.643 12.8282 146.429C10.9503 146.961 9.02931 147.528 7.2397 148.348C7.2345 148.069 7.22308 147.795 7.19764 147.529C12.9055 145.829 18.7712 143.919 24.1042 141.26C26.8429 139.894 24.639 135.591 21.8422 136.477Z" fill="#CECECE"/>
</svg>
