<svg width="38" height="38" viewBox="0 0 38 38" fill="none" xmlns="http://www.w3.org/2000/svg">
<g clipPath="url(#clip0_108_1723)">
<path d="M8.44601 3.4546C9.6551 4.73278 9.72419 6.16641 9.72419 7.65187C9.70692 15.3728 9.70692 23.0937 9.72419 30.8146C9.72419 31.0046 9.72419 31.1946 9.72419 31.4882C10.0524 31.4882 10.346 31.4882 10.6569 31.4882C13.5242 31.4882 16.3742 31.4882 19.2415 31.4882C19.466 31.4882 19.7596 31.5055 19.9151 31.6264C20.0533 31.7473 20.1742 32.1101 20.0878 32.231C19.9496 32.421 19.656 32.611 19.4142 32.611C17.5315 32.6455 15.6487 32.6282 13.766 32.6282C12.3669 32.6282 10.9506 32.6282 9.55146 32.611C8.67055 32.611 8.58419 32.4901 8.58419 31.6091C8.58419 24.5964 8.58419 17.601 8.58419 10.5882C8.58419 10.3119 8.58419 10.0355 8.58419 9.67278C6.71873 9.67278 4.93964 9.67278 3.16055 9.67278C1.8651 9.67278 1.8651 9.65551 1.8651 8.34278C1.8651 7.66914 1.84783 7.01278 1.8651 6.33914C1.95146 3.97278 3.73055 2.29732 6.13146 2.29732C11.0369 2.29732 15.9596 2.38369 20.8651 2.28005C25.3042 2.17641 28.4996 5.71732 28.7242 9.96641C28.776 10.9337 28.7415 11.9182 28.7415 12.9028C28.7415 13.3173 28.6896 13.7146 28.1715 13.7319C27.6015 13.7491 27.5842 13.3173 27.5842 12.8682C27.5669 11.6591 27.6187 10.4328 27.4633 9.22369C27.0833 6.21823 24.6306 3.31641 20.7269 3.43732C16.7196 3.54096 12.6778 3.4546 8.44601 3.4546ZM8.56692 8.51551C8.56692 7.72096 8.60146 7.01278 8.56692 6.3046C8.44601 4.7846 7.25419 3.52369 5.92419 3.4546C4.55964 3.38551 3.31601 4.4046 3.07419 5.94187C2.93601 6.77096 3.05692 7.61732 3.05692 8.51551C4.87055 8.51551 6.66692 8.51551 8.56692 8.51551Z" fill="#8D4CFF"/>
<path d="M21.2966 31.8165C21.2966 30.6937 21.3138 29.571 21.2966 28.4483C21.2966 27.9992 21.4693 27.7401 21.9184 27.6192C24.8548 26.8246 26.3229 24.6137 27.3248 21.971C27.6529 21.1246 27.8257 20.2437 28.0848 19.3628C28.3957 18.2919 29.2248 17.981 30.1057 18.6719C31.0557 19.3974 31.4529 20.4165 31.2629 21.5737C31.1248 22.4374 30.8484 23.2837 30.6411 24.1474C30.4166 25.1146 30.572 25.3046 31.5393 25.3046C32.4202 25.3046 33.3011 25.2874 34.182 25.3046C35.6157 25.3392 36.5829 26.8419 36.0129 28.1719C35.8057 28.6728 35.8057 29.0528 35.9611 29.5883C36.1166 30.0892 35.9266 30.6765 35.8748 31.2292C35.8402 31.6092 35.6848 32.0237 35.7538 32.3865C35.9093 33.1465 35.8057 33.8028 35.3393 34.4074C35.2702 34.4937 35.1838 34.5974 35.1493 34.701C34.4929 36.3937 33.0248 36.5665 31.522 36.6355C28.4475 36.7737 25.3729 36.5492 22.3329 36.031C21.3311 35.8583 21.2793 35.8237 21.2793 34.8046C21.2793 33.8201 21.2966 32.8183 21.2966 31.8165ZM22.4711 34.8737C23.1275 34.9601 23.7666 35.0465 24.3884 35.1501C27.1866 35.5819 29.9848 35.6856 32.7829 35.2883C33.802 35.1501 34.7175 33.5437 34.5966 32.5246C34.5275 31.9892 34.7002 31.4192 34.752 30.8665C34.7866 30.5383 34.942 30.141 34.8211 29.8646C34.5102 29.1737 34.562 28.5346 34.8557 27.8783C35.2184 27.0837 34.7866 26.4446 33.9229 26.4446C32.9384 26.4446 31.9711 26.4619 30.9866 26.4274C29.9848 26.3928 29.3975 25.7883 29.3975 24.7865C29.3975 24.441 29.4493 24.0783 29.5357 23.7328C29.6911 23.0419 29.9157 22.351 30.0711 21.6601C30.2784 20.6928 29.9157 19.8983 29.1729 19.5874C28.2057 23.5428 26.772 27.1701 22.4711 28.6556C22.4711 30.7456 22.4711 32.7837 22.4711 34.8737Z" fill="#8D4CFF"/>
<path d="M17.8423 17.7563C14.4568 17.7908 11.6068 14.9581 11.555 11.5554C11.5205 8.01445 14.2668 5.21627 17.7905 5.18172C21.3486 5.16445 24.1123 7.87627 24.1468 11.4344C24.1814 14.9063 21.3659 17.739 17.8423 17.7563ZM17.8077 16.5817C20.7786 16.599 22.9896 14.3881 23.0068 11.3826C23.0241 8.63627 20.6923 6.339 17.8768 6.30445C15.1132 6.28718 12.7123 8.63627 12.7123 11.3654C12.7123 14.319 14.9059 16.5645 17.8077 16.5817Z" fill="#8D4CFF"/>
<path d="M14.9931 21.3664C14.2504 22.1264 13.5595 22.8691 12.834 23.5946C12.5404 23.8882 12.2295 24.32 11.7631 23.8882C11.2967 23.4564 11.6767 23.1282 11.9876 22.8173C12.7649 22.04 13.5595 21.28 14.3022 20.4855C14.7513 20.0019 15.1313 19.95 15.6322 20.3991C16.3058 20.9864 17.0313 21.5391 17.8085 22.1437C18.6895 21.2628 19.5704 20.3991 20.434 19.5009C20.8313 19.0691 21.2631 18.81 21.8676 18.8964C22.9558 19.0519 23.8713 18.6891 24.7695 18.05C26.0476 17.1346 27.4295 16.3746 28.7249 15.4937C29.364 15.0619 30.0031 14.82 30.7804 14.8891C31.3676 14.9409 31.9722 14.8546 32.5595 14.9237C32.8185 14.9582 33.1985 15.2346 33.2331 15.4591C33.3195 15.8909 32.9567 16.0637 32.5422 16.0464C32.4731 16.0464 32.404 16.0637 32.3349 16.0464C30.6249 15.7873 29.1913 16.3919 27.8613 17.4109C26.9458 18.1019 25.8922 18.6028 24.994 19.2764C24.1476 19.9155 23.2495 20.1919 22.1958 20.0537C21.6949 19.9846 21.3495 20.1919 21.0213 20.5373C20.244 21.3664 19.4149 22.1609 18.6031 22.9728C17.9467 23.6291 17.8431 23.6464 17.1176 23.0591C16.4613 22.5237 15.7704 21.9709 14.9931 21.3664Z" fill="#8D4CFF"/>
<path d="M15.2344 29.2083C14.2671 29.2083 13.2826 29.2083 12.3153 29.2083C11.9008 29.2083 11.5898 29.0874 11.5898 28.621C11.5898 28.1547 11.9353 28.051 12.3326 28.051C14.3017 28.051 16.288 28.051 18.2571 28.051C18.6717 28.051 18.9826 28.1719 18.9826 28.6383C18.9826 29.0874 18.6544 29.2083 18.2398 29.2083C17.238 29.2083 16.2362 29.2083 15.2344 29.2083Z" fill="#8D4CFF"/>
<path d="M14.3372 26.3582C13.6808 26.3582 13.0072 26.3582 12.3508 26.3582C11.9536 26.3582 11.6254 26.2546 11.6081 25.7882C11.5908 25.3391 11.9017 25.2009 12.3163 25.2009C13.6981 25.2009 15.0627 25.2009 16.4445 25.2009C16.8417 25.2009 17.1872 25.2873 17.1872 25.7537C17.2045 26.2718 16.8245 26.3582 16.4099 26.3582C15.7017 26.3409 15.0108 26.3409 14.3372 26.3582C14.3372 26.3409 14.3372 26.3409 14.3372 26.3582Z" fill="#8D4CFF"/>
<path d="M22.4727 34.8736C22.4727 32.7836 22.4727 30.7454 22.4727 28.6727C26.7736 27.1872 28.2072 23.5599 29.1745 19.6045C29.9172 19.8981 30.2799 20.7099 30.0727 21.6772C29.9172 22.3681 29.6927 23.059 29.5372 23.7499C29.4508 24.0954 29.399 24.4581 29.399 24.8036C29.399 25.7881 29.9863 26.4099 30.9881 26.4445C31.9727 26.4618 32.9399 26.4445 33.9245 26.4618C34.7881 26.4618 35.2027 27.1009 34.8572 27.8954C34.5636 28.569 34.5117 29.1909 34.8227 29.8818C34.9436 30.1409 34.7881 30.5381 34.7536 30.8836C34.7017 31.4363 34.529 32.0063 34.5981 32.5418C34.7363 33.5609 33.8036 35.1499 32.7845 35.3054C29.9863 35.7027 27.1881 35.599 24.3899 35.1672C23.7681 35.0463 23.1463 34.9599 22.4727 34.8736Z" fill="#8D4CFF"/>
<path d="M17.5657 5.88989C14.3702 5.88989 11.7793 8.4808 11.7793 11.6763C11.7793 14.8717 14.3702 17.4626 17.5657 17.4626C20.7611 17.4626 23.352 14.8717 23.352 11.6763C23.352 8.4808 20.7611 5.88989 17.5657 5.88989ZM18.792 14.5263C18.7057 14.5435 18.602 14.5608 18.5157 14.5781C18.5502 14.6472 18.602 14.699 18.6366 14.7681C18.3775 15.0963 18.1529 15.6835 17.8766 15.7008C17.1166 15.7699 17.3584 15.0272 17.2548 14.5263C16.8057 14.5263 16.3393 14.5953 15.9075 14.509C15.6484 14.4572 15.4584 14.1463 15.2338 13.9563C15.4584 13.7663 15.6657 13.4381 15.9075 13.4208C16.7884 13.3517 17.6693 13.3863 18.5502 13.3863C18.982 13.3863 19.3102 13.2481 19.3275 12.7472C19.3447 12.229 19.0166 12.039 18.5502 12.039C18.1011 12.039 17.652 12.039 17.1857 12.039C16.0457 12.0217 15.3029 11.3826 15.2338 10.3808C15.1648 9.32717 15.7866 8.60171 16.8748 8.41171C16.9957 8.39444 17.0993 8.35989 17.2202 8.34262C17.3757 7.9108 17.082 7.18535 17.8593 7.18535C18.6366 7.18535 18.3429 7.9108 18.5157 8.41171C18.9475 8.41171 19.4138 8.35989 19.8457 8.42898C20.0875 8.4808 20.2775 8.75717 20.4847 8.92989C20.2775 9.13717 20.0875 9.49989 19.8629 9.51717C18.9993 9.58626 18.1357 9.55171 17.2893 9.55171C16.8229 9.55171 16.3911 9.67262 16.3911 10.2253C16.3911 10.7781 16.8057 10.899 17.2893 10.8817C17.6866 10.8644 18.1011 10.8644 18.4984 10.8817C19.6384 10.899 20.3811 11.5208 20.4847 12.5226C20.5711 13.5935 19.9493 14.3363 18.792 14.5263Z" fill="#8D4CFF"/>
</g>
<defs>
<clipPath id="clip0_108_1723">
<rect width="38" height="38" fill="white"/>
</clipPath>
</defs>
</svg>
