<svg width="45" height="45" viewBox="0 0 45 45" fill="none" xmlns="http://www.w3.org/2000/svg">
<rect width="45" height="45" rx="10" fill="#24A1DE"/>
<rect width="45" height="45" rx="10" fill="#F5F5F5" fill-opacity="0.17"/>
<rect x="0.5" y="0.5" width="44" height="44" rx="9.5" stroke="#9C9C9C" stroke-opacity="0.467"/>
<g clipPath="url(#clip0_296_350)">
<path d="M22.49 12.1748C16.7891 12.1748 12.17 16.7939 12.17 22.4948C12.17 28.1958 16.7891 32.8148 22.49 32.8148C28.191 32.8148 32.81 28.1958 32.81 22.4948C32.81 16.7939 28.191 12.1748 22.49 12.1748ZM27.2755 19.1949C27.1216 20.8262 26.4474 24.7877 26.1062 26.6145C25.9606 27.3885 25.6776 27.6465 25.4029 27.6715C24.8037 27.7256 24.3501 27.2762 23.7676 26.8933C22.8604 26.2983 22.3444 25.9279 21.4664 25.3453C20.4469 24.6754 21.1085 24.305 21.6869 23.7016C21.8409 23.5435 24.4791 21.1424 24.5291 20.926C24.5374 20.8969 24.5416 20.797 24.4791 20.7429C24.4167 20.6888 24.3293 20.7097 24.2669 20.7221L19.9142 23.5976L18.7948 24.0096C18.4245 24.0012 17.717 23.8015 17.1886 23.6309C16.5436 23.4228 16.0276 23.3105 16.0733 22.9526L16.8432 22.3825L22.8604 19.79C25.7275 18.5999 26.3226 18.3918 26.7096 18.3835C26.797 18.3835 26.9842 18.4043 27.1091 18.5042C27.1906 18.5758 27.2425 18.6752 27.2547 18.783C27.2772 18.9191 27.2842 19.0573 27.2755 19.1949Z" fill="white"/>
</g>
<defs>
<clipPath id="clip0_296_350">
<rect width="20.64" height="21.31" fill="white" transform="translate(12.17 11.8398)"/>
</clipPath>
</defs>
</svg>
