<svg width="64" height="64" viewBox="0 0 64 64" fill="none" xmlns="http://www.w3.org/2000/svg">
<path d="M32 62.5455C48.8698 62.5455 62.5455 48.8698 62.5455 32C62.5455 15.1303 48.8698 1.45459 32 1.45459C15.1303 1.45459 1.45459 15.1303 1.45459 32C1.45459 48.8698 15.1303 62.5455 32 62.5455Z" fill="url(#paint0_linear_296_335)"/>
<path d="M47.2435 19.3644C47.5154 17.607 45.8445 16.2199 44.2819 16.906L13.1596 30.5702C12.0391 31.0622 12.121 32.7597 13.2832 33.1297L19.7013 35.1737C20.9264 35.5638 22.2527 35.362 23.3225 34.623L37.7927 24.6259C38.2291 24.3244 38.7047 24.9449 38.3319 25.3291L27.9159 36.068C26.9055 37.1098 27.106 38.8751 28.3215 39.6372L39.9833 46.9502C41.2913 47.7704 42.9739 46.9465 43.2185 45.3658L47.2435 19.3644Z" fill="white"/>
<defs>
<linearGradient id="paint0_linear_296_335" x1="32" y1="1.45459" x2="32" y2="62.5455" gradientUnits="userSpaceOnUse">
<stop stop-color="#37BBFE"/>
<stop offset="1" stop-color="#007DBB"/>
</linearGradient>
</defs>
</svg>
