<svg width="49" height="48" viewBox="0 0 49 48" fill="none" xmlns="http://www.w3.org/2000/svg">
<g clipPath="url(#clip0_336_524)">
<path d="M6.58147 30.1783C6.58147 29.9521 6.50138 29.7352 6.35881 29.5753C6.21625 29.4154 6.0229 29.3256 5.82128 29.3256C5.61967 29.3256 5.42631 29.4154 5.28375 29.5753C5.14119 29.7352 5.0611 29.9521 5.0611 30.1783V33.5891H2.02037V23.3565C2.02178 22.0001 2.50277 20.6997 3.35784 19.7405C4.2129 18.7814 5.37222 18.2418 6.58147 18.2403H14.9435C16.096 18.2407 17.2053 18.7328 18.0462 19.617C18.1952 19.556 18.3468 19.501 18.5 19.4498C18.272 18.8272 18.1186 18.1735 18.0439 17.5056C17.1083 16.872 16.0364 16.5364 14.9435 16.5348H14.4794C15.2364 15.7059 15.756 14.6427 15.9717 13.4809C16.1875 12.3192 16.0896 11.1117 15.6907 10.0126C15.2917 8.91352 14.6098 7.97278 13.7319 7.31053C12.8541 6.64827 11.8202 6.29456 10.7623 6.29456C9.70437 6.29456 8.67047 6.64827 7.79262 7.31053C6.91478 7.97278 6.23283 8.91352 5.83388 10.0126C5.43493 11.1117 5.33709 12.3192 5.55284 13.4809C5.7686 14.6427 6.28816 15.7059 7.04518 16.5348H6.58147C4.96912 16.5369 3.42332 17.2562 2.28322 18.5351C1.14312 19.814 0.501811 21.5479 0.5 23.3565L0.5 33.5891C0.5 34.0414 0.660181 34.4752 0.945305 34.795C1.23043 35.1149 1.61714 35.2946 2.02037 35.2946H13.043V33.5891H6.58147V30.1783ZM6.96156 12.2713C6.96156 11.428 7.18448 10.6037 7.60213 9.90254C8.01978 9.2014 8.6134 8.65493 9.30793 8.33223C10.0025 8.00953 10.7667 7.92509 11.504 8.08961C12.2413 8.25412 12.9186 8.66018 13.4501 9.25645C13.9817 9.85273 14.3437 10.6124 14.4904 11.4395C14.637 12.2665 14.5617 13.1238 14.2741 13.9029C13.9864 14.6819 13.4992 15.3478 12.8742 15.8163C12.2491 16.2848 11.5142 16.5348 10.7625 16.5348C9.75475 16.5336 8.78861 16.084 8.07604 15.2847C7.36347 14.4854 6.96267 13.4016 6.96156 12.2713Z" fill="black"/>
<path d="M20.4259 37.5891V34.3109C20.4259 34.0847 20.3479 33.8678 20.209 33.7079C20.0701 33.548 19.8816 33.4581 19.6852 33.4581C19.4887 33.4581 19.3003 33.548 19.1614 33.7079C19.0225 33.8678 18.9444 34.0847 18.9444 34.3109V37.5891H15.9815V27.3565C15.9829 26.0001 16.4515 24.6997 17.2847 23.7405C18.1179 22.7814 19.2476 22.2418 20.4259 22.2403H28.5741C29.7524 22.2418 30.8821 22.7814 31.7153 23.7405C32.5485 24.6997 33.0171 26.0001 33.0185 27.3565V29.0837C33.5202 29.1142 34.0172 29.2101 34.5 29.3698V27.3565C34.4982 25.5479 33.8733 23.814 32.7624 22.5351C31.6514 21.2562 30.1452 20.5369 28.5741 20.5348H28.1219C28.8595 19.7059 29.3658 18.6427 29.576 17.4809C29.7863 16.3192 29.6909 15.1117 29.3022 14.0126C28.9134 12.9135 28.2489 11.9728 27.3935 11.3105C26.5381 10.6483 25.5307 10.2946 24.4998 10.2946C23.469 10.2946 22.4615 10.6483 21.6061 11.3105C20.7507 11.9728 20.0862 12.9135 19.6975 14.0126C19.3087 15.1117 19.2134 16.3192 19.4236 17.4809C19.6338 18.6427 20.1401 19.7059 20.8778 20.5348H20.4259C18.8548 20.5369 17.3486 21.2562 16.2376 22.5351C15.1267 23.814 14.5018 25.5479 14.5 27.3565V37.5891C14.5 38.0414 14.6561 38.4752 14.9339 38.795C15.2117 39.1149 15.5886 39.2946 15.9815 39.2946H26.3704C26.1986 38.7433 26.0828 38.171 26.0252 37.5891H20.4259ZM20.7963 16.2713C20.7963 15.428 21.0135 14.6037 21.4205 13.9025C21.8275 13.2014 22.4059 12.6549 23.0827 12.3322C23.7594 12.0095 24.5041 11.9251 25.2226 12.0896C25.941 12.2541 26.6009 12.6602 27.1189 13.2565C27.6369 13.8527 27.9896 14.6124 28.1325 15.4395C28.2754 16.2665 28.2021 17.1238 27.9218 17.9029C27.6414 18.6819 27.1667 19.3478 26.5577 19.8163C25.9486 20.2848 25.2325 20.5348 24.5 20.5348C23.518 20.5336 22.5766 20.084 21.8823 19.2847C21.1879 18.4854 20.7974 17.4016 20.7963 16.2713Z" fill="black"/>
<path d="M33 30.2946C31.9122 30.2946 30.8488 30.6465 29.9444 31.3057C29.0399 31.965 28.3349 32.9021 27.9187 33.9985C27.5024 35.0948 27.3935 36.3012 27.6057 37.4651C27.8179 38.629 28.3417 39.6981 29.1109 40.5372C29.8801 41.3763 30.8601 41.9478 31.927 42.1793C32.9939 42.4108 34.0998 42.292 35.1048 41.8378C36.1098 41.3837 36.9687 40.6147 37.5731 39.628C38.1774 38.6413 38.5 37.4812 38.5 36.2946C38.4983 34.7038 37.9183 33.1787 36.8873 32.0539C35.8562 30.9291 34.4582 30.2964 33 30.2946ZM33 40.5803C32.223 40.5803 31.4635 40.3289 30.8174 39.858C30.1714 39.3871 29.6678 38.7177 29.3705 37.9346C29.0731 37.1515 28.9953 36.2898 29.1469 35.4585C29.2985 34.6271 29.6727 33.8635 30.2221 33.2641C30.7715 32.6647 31.4715 32.2566 32.2336 32.0912C32.9956 31.9258 33.7855 32.0107 34.5034 32.3351C35.2213 32.6594 35.8348 33.2088 36.2665 33.9135C36.6982 34.6183 36.9286 35.4469 36.9286 36.2946C36.9274 37.4308 36.5132 38.5202 35.7767 39.3236C35.0402 40.1271 34.0416 40.579 33 40.5803Z" fill="black"/>
<path d="M33.8333 35.9612H33.1667V35.1279C33.1667 34.9069 33.0964 34.6949 32.9714 34.5386C32.8464 34.3824 32.6768 34.2946 32.5 34.2946C32.3232 34.2946 32.1536 34.3824 32.0286 34.5386C31.9036 34.6949 31.8333 34.9069 31.8333 35.1279V35.9612H31.1667C30.9899 35.9612 30.8203 36.049 30.6953 36.2053C30.5702 36.3616 30.5 36.5735 30.5 36.7946C30.5 37.0156 30.5702 37.2275 30.6953 37.3838C30.8203 37.5401 30.9899 37.6279 31.1667 37.6279H31.8333V38.4612C31.8333 38.6822 31.9036 38.8942 32.0286 39.0505C32.1536 39.2068 32.3232 39.2946 32.5 39.2946C32.6768 39.2946 32.8464 39.2068 32.9714 39.0505C33.0964 38.8942 33.1667 38.6822 33.1667 38.4612V37.6279H33.8333C34.0101 37.6279 34.1797 37.5401 34.3047 37.3838C34.4298 37.2275 34.5 37.0156 34.5 36.7946C34.5 36.5735 34.4298 36.3616 34.3047 36.2053C34.1797 36.049 34.0101 35.9612 33.8333 35.9612Z" fill="black"/>
<path d="M42.4189 16.5348H41.9549C42.7118 15.7059 43.2314 14.6427 43.4471 13.4809C43.6628 12.3192 43.565 11.1117 43.1661 10.0126C42.7672 8.91352 42.0853 7.97278 41.2075 7.31053C40.3297 6.64827 39.2958 6.29456 38.238 6.29456C37.1801 6.29456 36.1463 6.64827 35.2685 7.31053C34.3907 7.97278 33.7088 8.91352 33.3099 10.0126C32.911 11.1117 32.8131 12.3192 33.0289 13.4809C33.2446 14.6427 33.7641 15.7059 34.5211 16.5348H34.0574C32.9642 16.5361 31.892 16.8718 30.9561 17.5056C30.8813 18.1735 30.728 18.8272 30.5 19.4498C30.652 19.501 30.8041 19.556 30.9538 19.617C31.7949 18.7325 32.9046 18.2403 34.0574 18.2403H42.4189C43.6281 18.2418 44.7873 18.7814 45.6423 19.7405C46.4974 20.6997 46.9783 22.0001 46.9797 23.3565V33.5891H43.9392V29.7519C43.9392 29.5258 43.8591 29.3089 43.7166 29.1489C43.574 28.989 43.3807 28.8992 43.1791 28.8992C42.9775 28.8992 42.7841 28.989 42.6416 29.1489C42.499 29.3089 42.4189 29.5258 42.4189 29.7519V33.5891H38.6562C38.8981 34.1312 39.0813 34.7037 39.202 35.2946H46.9797C47.3829 35.2946 47.7696 35.1149 48.0547 34.795C48.3398 34.4752 48.5 34.0414 48.5 33.5891V23.3565C48.4982 21.5479 47.8569 19.814 46.7169 18.5351C45.5769 17.2562 44.0312 16.5369 42.4189 16.5348ZM38.2382 16.5348C37.4865 16.5348 36.7517 16.2848 36.1266 15.8163C35.5016 15.3478 35.0145 14.6819 34.7268 13.9029C34.4391 13.1238 34.3639 12.2665 34.5105 11.4395C34.6572 10.6124 35.0192 9.85273 35.5507 9.25645C36.0822 8.66018 36.7594 8.25412 37.4967 8.08961C38.234 7.92509 38.9981 8.00953 39.6926 8.33223C40.3871 8.65493 40.9807 9.2014 41.3983 9.90254C41.8159 10.6037 42.0389 11.428 42.0389 12.2713C42.0377 13.4016 41.637 14.4854 40.9244 15.2847C40.2119 16.084 39.2458 16.5336 38.2382 16.5348Z" fill="black"/>
</g>
<defs>
<clipPath id="clip0_336_524">
<rect width="48" height="48" fill="white" transform="translate(0.5)"/>
</clipPath>
</defs>
</svg>
