<svg width="56" height="56" viewBox="0 0 56 56" fill="none" xmlns="http://www.w3.org/2000/svg">
<path d="M41.1345 5.8291C41.7454 5.8291 42.3564 5.8291 42.9673 5.8291C43.0436 5.85456 43.1454 5.90547 43.2218 5.90547C47.3454 6.44001 50.6036 9.39274 51.5454 13.4146C51.6473 13.8218 51.7236 14.2291 51.8 14.6618C51.8 15.2982 51.8 15.9346 51.8 16.5709C51.7745 16.7491 51.7236 16.9273 51.6982 17.1055C51.0109 21.3818 47.5236 24.7927 43.2727 25.3018C38.8945 25.8364 34.7964 23.4946 33.04 19.4473C32.9891 19.32 32.9127 19.1927 32.8109 18.9636C32.6073 19.7527 32.3527 20.44 32.2509 21.1273C32.0218 22.68 31.0036 23.6727 29.4764 23.8764C29.3491 23.9018 29.1709 24.0546 29.1454 24.1818C28.6618 26.0909 27.5418 27.4146 25.7091 28.1527C25.6327 28.1782 25.5564 28.2546 25.48 28.3055C26.7527 28.4327 27.9745 28.5855 29.2473 28.7127C29.2473 28.1527 29.2473 27.5418 29.2473 26.88C29.7818 26.88 30.24 26.88 30.7745 26.88C30.7745 26.3709 30.7745 25.8873 30.7745 25.4291C31.2836 25.4291 31.7418 25.4291 32.2509 25.4291C32.2509 25.9127 32.2509 26.3709 32.2509 26.9055C32.7854 26.9055 33.2436 26.9055 33.7527 26.9055C33.7527 28.3818 33.7527 29.7818 33.7527 31.1818C33.7527 31.3346 33.7273 31.5127 33.8036 31.6146C34.2618 32.2 34.72 32.76 35.2545 33.3964C35.2545 32.1746 35.2545 31.0546 35.2545 29.8582C35.7891 29.8582 36.2473 29.8582 36.7818 29.8582C36.7818 28.84 36.7818 27.8727 36.7818 26.9055C37.2909 26.9055 37.7491 26.9055 38.2582 26.9055C38.2582 27.8982 38.2582 28.8655 38.2582 29.8836C38.7673 29.8836 39.2509 29.8836 39.7345 29.8836C39.7345 33.4218 39.7345 36.9091 39.7345 40.4473C38.7164 40.4473 37.7491 40.4473 36.7309 40.4473C36.7309 44.4691 36.7309 48.44 36.7309 52.4618C36.5273 52.4618 36.3491 52.4618 36.1709 52.4618C30.0109 52.4618 23.8764 52.4618 17.7164 52.4618C16.3164 52.4618 14.9164 52.4618 13.5164 52.4618C12.5236 52.4618 11.76 51.9782 11.3527 51.0618C10.9454 50.12 11.1236 49.2546 11.8109 48.4909C11.9636 48.3127 12.1164 48.16 12.2945 48.0073C12.7527 47.6 12.6764 47.0909 12.6254 46.5055C12.2436 46.7855 11.9636 47.0146 11.6327 47.2182C9.11272 48.9491 5.6509 47.5491 5.21817 44.52C5.03999 43.2473 5.0909 41.9236 5.21817 40.6255C5.54908 36.9346 7.17817 33.88 10.0545 31.5636C10.8945 30.8764 11.2764 30.24 11.1491 29.1964C11.0727 28.4582 11.1236 27.6946 11.1236 26.9055C11.6582 26.9055 12.1164 26.9055 12.6509 26.9055C12.6509 26.3964 12.6509 25.9127 12.6509 25.4546C13.1854 25.4546 13.6436 25.4546 14.1527 25.4546C14.1527 25.9382 14.1527 26.4218 14.1527 26.9055C14.6618 26.9055 15.12 26.9055 15.6545 26.9055C15.6545 27.5164 15.6545 28.1018 15.6545 28.6618C16.9273 28.56 18.1745 28.4582 19.5236 28.3309C19.2945 28.2291 19.1927 28.1527 19.0909 28.1273C17.3345 27.3891 16.2145 26.0909 15.7818 24.2327C15.7564 23.9273 15.6545 23.8764 15.4 23.8509C13.9745 23.7236 12.88 22.6291 12.7018 21.2036C12.6764 20.9746 12.6509 20.7709 12.6 20.5673C12.1673 18.8618 11.7091 17.1309 11.3273 15.4C10.6145 12.2436 12.5745 9.41819 15.7309 8.88365C15.9345 8.85819 16.1636 8.73092 16.2909 8.57819C17.1309 7.66183 18.1236 6.92365 19.2945 6.49092C20.0582 6.21092 20.8727 6.05819 21.6618 5.8291C23.0873 5.8291 24.5127 5.8291 25.9382 5.8291C26.0145 5.85456 26.0654 5.90547 26.1418 5.90547C28.9418 6.28728 31.08 7.71274 32.5564 10.1055C32.7854 10.4873 32.9891 10.92 33.1927 11.3273C33.2182 11.3018 33.2691 11.2764 33.2691 11.2509C33.32 11.1746 33.3454 11.1236 33.3709 11.0473C34.5164 8.88365 36.2218 7.33092 38.5127 6.49092C39.3527 6.18547 40.2691 6.03274 41.1345 5.8291ZM42 7.33092C37.4182 7.33092 33.7273 11.0473 33.7527 15.6036C33.7527 20.1855 37.4691 23.8764 42.0509 23.8509C46.6073 23.8509 50.2727 20.16 50.2982 15.5782C50.2982 11.0473 46.5818 7.33092 42 7.33092ZM17.1818 46.4036C20.72 46.4036 24.2073 46.4036 27.6945 46.4036C27.6945 41.8982 27.6945 37.4182 27.6945 32.9127C24.1818 32.9127 20.6945 32.9127 17.1818 32.9127C17.1818 34.4146 17.1818 35.8909 17.1818 37.3418C17.1818 37.4436 17.3345 37.5709 17.4364 37.6473C18.2509 38.1055 18.6582 38.8182 18.6582 39.7346C18.6582 40.7018 18.6582 41.6437 18.6582 42.6109C18.6582 43.3491 18.4291 44.0618 17.7927 44.4182C17.1818 44.7491 17.1054 45.2073 17.1564 45.7673C17.2073 45.9709 17.1818 46.1746 17.1818 46.4036ZM31.36 18.5564C31.5636 17.8182 31.8182 17.0291 32.0218 16.2146C33.0145 12.1418 30.4436 8.14547 26.2945 7.45819C25.0727 7.25456 23.8 7.33092 22.5527 7.33092C20.2873 7.33092 18.4545 8.24728 17.0291 10.0291C16.9018 10.1818 16.6473 10.3091 16.4436 10.3346C13.8982 10.4873 12.2436 12.5491 12.7782 15.0436C12.9818 16.0618 13.2618 17.08 13.5164 18.0982C13.5673 18.2509 13.6182 18.4291 13.6182 18.5055C14.3309 18.2509 14.9673 17.9964 15.68 17.7164C15.68 17.3091 15.68 16.8255 15.68 16.3418C15.7309 14.9164 16.5454 13.8727 17.92 13.44C18.0727 13.3891 18.2509 13.2873 18.3273 13.16C19.2436 11.6327 20.7454 11.4036 22.0436 12.6255C23.1891 13.72 24.5382 14.4327 26.1164 14.7127C26.8291 14.84 27.5418 14.9673 28.28 14.7382C27.7709 14.4327 27.2618 14.2036 26.8291 13.8727C26.3709 13.5164 26.04 13.0327 25.6073 12.6509C25.0727 12.1164 24.4364 11.8873 23.7236 11.8364C23.5709 11.8364 23.3927 11.8109 23.24 11.8109C23.24 11.3018 23.24 10.8436 23.24 10.3346C24.8182 10.2582 26.1164 10.7927 27.0836 11.9891C27.8473 12.9309 28.7636 13.3891 29.96 13.3382C30.3418 13.3382 30.7236 13.3382 31.1818 13.3382C30.7236 14.3564 30.3418 15.2727 29.4254 15.8327C29.3491 15.8836 29.2473 16.0109 29.2473 16.1127C29.2218 16.6727 29.2473 17.2582 29.2473 17.6909C29.9854 17.9964 30.6473 18.2764 31.36 18.5564ZM27.7709 31.36C28.8654 31.6146 29.2473 32.0727 29.2473 33.1927C29.2473 37.4946 29.2473 41.8218 29.2473 46.1237C29.2473 47.4218 28.7127 47.9564 27.4145 47.9564C24.8436 47.9564 22.2727 47.9564 19.7273 47.9564C18.9127 47.9564 18.1236 47.9564 17.3091 47.9564C16.3164 47.9309 15.7309 47.3455 15.7054 46.3527C15.7054 45.9709 15.7309 45.5637 15.68 45.1818C15.6545 45.0291 15.5527 44.8 15.4254 44.7491C15.2982 44.6727 15.0691 44.7237 14.9164 44.8C14.3054 45.08 14.0509 45.5637 14.1527 46.2509C14.2036 46.6073 14.1527 46.9891 14.1527 47.3455C14.1527 47.9309 13.9491 48.44 13.5418 48.8727C13.3636 49.0764 13.16 49.28 12.9564 49.4582C12.6509 49.7382 12.5491 50.0691 12.7018 50.4509C12.8545 50.8327 13.1854 50.9855 13.5673 50.9855C13.6945 50.9855 13.8473 50.9855 13.9745 50.9855C19.6 50.9855 25.2 50.9855 30.8254 50.9855C31.3345 50.9855 31.8691 51.0618 32.0982 50.4509C32.3273 49.8655 31.92 49.5091 31.5382 49.1782C30.9018 48.5927 30.6473 47.88 30.6473 47.04C30.6727 43.4509 30.6473 39.8873 30.6473 36.2982C30.6473 34.6946 30.6473 33.1164 30.6473 31.5127C30.6473 31.36 30.5964 31.1309 30.4945 31.08C29.6291 30.5709 28.6873 30.24 27.6691 30.0873C27.7709 30.4946 27.7709 30.9018 27.7709 31.36ZM14.1782 40.6C12.1927 41.0327 10.2582 41.4655 8.32363 41.8982C8.22181 41.3891 8.11999 40.9055 8.01817 40.4218C9.59636 40.0655 11.1236 39.7346 12.6509 39.3782C12.6509 36.7309 12.6509 34.16 12.6509 31.5636C12.5745 31.5636 12.5491 31.5636 12.5236 31.5891C12.4473 31.64 12.3709 31.6909 12.2945 31.7164C9.87636 33.32 8.19636 35.4582 7.25454 38.1818C6.64363 39.9636 6.64363 41.8218 6.64363 43.6546C6.64363 44.7746 7.10181 45.64 8.09454 46.1491C9.11272 46.6582 10.08 46.5055 10.9964 45.8182C11.8873 45.1309 12.7782 44.4436 13.6945 43.8073C14.1018 43.5273 14.2545 43.2727 14.2036 42.7382C14.1273 42.0509 14.1782 41.3382 14.1782 40.6ZM22.4509 30.8764C22.68 30.5709 22.8582 30.2909 23.0873 30.0618C23.8 29.3237 24.1309 28.4836 23.9527 27.4655C23.9018 27.1091 24.0291 26.9818 24.4109 26.9055C26.7273 26.4473 28.0764 24.4364 27.6945 22.12C27.3382 22.1964 26.9818 22.2727 26.6254 22.2982C26.2691 22.3236 25.8873 22.3236 25.5309 22.2727C24.2327 22.0946 23.3164 21.2546 23.2145 20.16C23.1636 19.6509 22.9091 19.3709 22.4764 19.3709C22.0436 19.3709 21.7636 19.6255 21.7127 20.16C21.6364 20.9491 21.2291 21.5091 20.5418 21.8909C19.88 22.2982 19.1418 22.4255 18.3527 22.3491C17.9709 22.2982 17.6145 22.2218 17.2073 22.1455C17.2073 22.5273 17.1818 22.9091 17.2073 23.2655C17.3091 24.9455 18.48 26.3964 20.0836 26.8546C20.9491 27.0836 20.9491 27.0836 20.9491 27.9746C20.9491 28.3055 20.8982 28.7382 21.0509 28.9927C21.4582 29.6291 21.9673 30.2146 22.4509 30.8764ZM32.3527 32.2509C32.3018 32.2764 32.2764 32.3018 32.2254 32.3273C32.2254 32.5055 32.2254 32.6582 32.2254 32.8364C32.2254 37.4691 32.2254 42.1273 32.2254 46.76C32.2254 47.3709 32.3782 47.8291 32.8364 48.2364C33.4473 48.7709 33.7782 49.4327 33.7273 50.2727C33.7273 50.4764 33.6764 50.68 33.6254 50.9091C34.16 50.9091 34.6691 50.9091 35.2036 50.9091C35.2036 50.8073 35.2291 50.7055 35.2291 50.6291C35.2291 46.6327 35.2291 42.6618 35.2291 38.6655C35.2291 36.8327 34.6182 35.1527 33.5491 33.6764C33.1927 33.1673 32.76 32.7346 32.3527 32.2509ZM27.72 16.4182C27.0327 16.3418 26.3709 16.2909 25.7345 16.1636C23.9018 15.8073 22.3236 14.9673 21 13.6946C20.44 13.16 19.9818 13.2618 19.6254 13.9491C19.5236 14.1273 19.4218 14.3055 19.3709 14.4836C19.2691 14.7636 19.0909 14.8655 18.76 14.8655C17.9709 14.8655 17.36 15.3236 17.2582 16.0364C17.1818 16.6982 17.2327 17.4109 17.2327 18.1236C18.2254 17.7673 19.2436 17.7164 20.1854 18.1491C20.6691 18.3782 20.9745 18.4036 21.4582 18.1236C22.3745 17.5891 23.2654 17.8436 24.08 18.5055C25.2254 17.7673 26.4473 17.6909 27.72 18.1236C27.72 17.5382 27.72 16.9782 27.72 16.4182ZM17.1818 29.9091C16.2909 30.1382 15.4509 30.3927 14.6109 30.5964C14.3054 30.6727 14.2036 30.8255 14.2036 31.1818C14.2291 33.6764 14.2036 36.1709 14.2036 38.64C14.2036 38.7418 14.2291 38.8437 14.2291 38.8437C14.5854 38.4873 14.9673 38.0291 15.4 37.6982C15.6291 37.52 15.7309 37.3673 15.7309 37.0873C15.7309 35.7127 15.7309 34.3382 15.7309 32.9382C15.7309 32.1746 16.1382 31.64 16.8254 31.4364C16.9527 31.4109 17.08 31.3855 17.2073 31.36C17.1818 30.9018 17.1818 30.4691 17.1818 29.9091ZM36.7818 31.4364C36.7818 33.9309 36.7818 36.4 36.7818 38.8691C37.2909 38.8691 37.7491 38.8691 38.2073 38.8691C38.2073 36.3746 38.2073 33.9055 38.2073 31.4364C37.7236 31.4364 37.2654 31.4364 36.7818 31.4364ZM15.7054 41.1855C15.7054 41.6437 15.7054 42.1018 15.7054 42.5346C15.7054 42.56 15.7054 42.5855 15.7054 42.6364C15.7309 43.12 16.0364 43.4255 16.4691 43.4255C16.9018 43.4255 17.1818 43.0946 17.2073 42.6109C17.2073 41.6691 17.2073 40.7018 17.2073 39.76C17.2073 39.2509 16.8764 38.92 16.4436 38.92C16.0109 38.92 15.7309 39.2509 15.7054 39.7346C15.7054 40.2182 15.7054 40.7018 15.7054 41.1855ZM15.68 19.3964C14.8145 19.3964 14.1782 20.0582 14.2036 20.8727C14.2036 21.6873 14.8654 22.3491 15.68 22.2982C15.68 21.3564 15.68 20.3891 15.68 19.3964ZM29.2473 19.4218C29.2473 20.3891 29.2473 21.3564 29.2473 22.3237C30.1127 22.2982 30.7745 21.6364 30.7236 20.8218C30.6982 20.0073 30.0618 19.3709 29.2473 19.4218ZM18.6836 20.9746C19.1164 20.8218 19.5491 20.72 19.9309 20.5164C20.3127 20.3127 20.2873 20.0327 19.9564 19.7527C19.3709 19.2691 17.9964 19.2691 17.4364 19.7527C17.1309 20.0073 17.1054 20.2873 17.4618 20.4909C17.8182 20.6946 18.2509 20.7964 18.6836 20.9746ZM26.1927 19.2691C25.76 19.4218 25.3273 19.5491 24.9709 19.7527C24.64 19.9564 24.6654 20.2364 24.9709 20.4909C25.5564 20.9746 26.9054 21 27.4909 20.4909C27.8218 20.2364 27.8218 19.9309 27.4654 19.7273C27.0836 19.5236 26.6509 19.4218 26.1927 19.2691ZM26.1927 29.8582C25.8109 29.8836 25.3273 29.7564 25.1236 29.96C24.6909 30.3418 24.3854 30.8764 23.9782 31.3855C24.7927 31.3855 25.48 31.3855 26.1927 31.3855C26.1927 30.8764 26.1927 30.3927 26.1927 29.8582ZM18.7345 31.36C19.4982 31.36 20.1854 31.36 20.9236 31.36C20.6691 31.0291 20.4654 30.7491 20.2618 30.4691C19.7527 29.8073 19.5745 29.7309 18.7345 29.96C18.7345 30.4182 18.7345 30.8764 18.7345 31.36ZM30.7491 28.4073C30.7491 28.6364 30.7236 28.8146 30.7491 28.9927C30.7745 29.1709 30.7745 29.4 30.9018 29.4764C31.3091 29.7564 31.7418 29.96 32.2 30.2146C32.2 29.6036 32.2 29.0182 32.2 28.4073C31.7164 28.4073 31.2582 28.4073 30.7491 28.4073ZM12.7273 29.7818C13.0582 29.6546 13.3382 29.5273 13.6182 29.4C14.2545 29.1455 14.2545 29.1455 14.1273 28.4327C13.6436 28.4327 13.1854 28.4327 12.7018 28.4327C12.7273 28.8909 12.7273 29.2982 12.7273 29.7818Z" fill="#8D4CFF"/>
<path d="M51.8 41.8984C51.3164 41.8984 50.8327 41.8984 50.2982 41.8984C50.2982 42.942 50.2982 43.9093 50.2982 44.902C49.7891 44.902 49.3309 44.902 48.7964 44.902C48.7964 43.9347 48.7964 42.9674 48.7964 41.9493C48.2873 41.9493 47.8036 41.9493 47.32 41.9493C47.32 36.9093 47.32 31.9202 47.32 26.8802C47.8036 26.8802 48.2618 26.8802 48.7709 26.8802C48.7709 26.3711 48.7709 25.9129 48.7709 25.4038C49.0509 25.4038 49.28 25.4038 49.5345 25.4038C49.7636 25.4038 49.9927 25.4038 50.2727 25.4038C50.2727 25.9129 50.2727 26.3711 50.2727 26.8802C50.8327 26.8802 51.3164 26.8802 51.8 26.8802C51.8 31.8693 51.8 36.8838 51.8 41.8984ZM50.2473 40.3965C50.2473 36.4002 50.2473 32.4038 50.2473 28.4074C49.7382 28.4074 49.28 28.4074 48.8218 28.4074C48.8218 32.4038 48.8218 36.4002 48.8218 40.3965C49.3055 40.3965 49.7636 40.3965 50.2473 40.3965Z" fill="#8D4CFF"/>
<path d="M5.19275 19.3709C5.67639 19.3709 6.13457 19.3709 6.64366 19.3709C6.64366 18.8618 6.64366 18.4036 6.64366 17.8945C7.1782 17.8945 7.63639 17.8945 8.14548 17.8945C8.14548 18.3782 8.14548 18.8363 8.14548 19.3709C8.65457 19.3709 9.11275 19.3709 9.62184 19.3709C9.62184 22.8836 9.62184 26.3709 9.62184 29.8836C9.1382 29.8836 8.68002 29.8836 8.17093 29.8836C8.17093 30.3927 8.17093 30.8763 8.17093 31.3854C7.66184 31.3854 7.20366 31.3854 6.66911 31.3854C6.66911 30.9018 6.66911 30.4436 6.66911 29.9091C6.13457 29.9091 5.67639 29.9091 5.19275 29.9091C5.19275 26.3709 5.19275 22.9091 5.19275 19.3709ZM8.14548 28.3563C8.14548 25.8363 8.14548 23.3673 8.14548 20.8727C7.63639 20.8727 7.1782 20.8727 6.72002 20.8727C6.72002 23.3673 6.72002 25.8618 6.72002 28.3563C7.20366 28.3563 7.66184 28.3563 8.14548 28.3563Z" fill="#8D4CFF"/>
<path d="M44.2655 28.3816C44.8 28.3816 45.2582 28.3816 45.7418 28.3816C45.7418 29.8835 45.7418 31.3598 45.7418 32.8616C45.2837 32.8616 44.8 32.8616 44.2909 32.8616C44.2909 35.8907 44.2909 38.8435 44.2909 41.8725C43.7818 41.8725 43.2982 41.8725 42.7891 41.8725C42.7891 38.8944 42.7891 35.9416 42.7891 32.9125C42.28 32.9125 41.7964 32.9125 41.2873 32.9125C41.2873 31.3853 41.2873 29.9344 41.2873 28.4071C41.7709 28.4071 42.2291 28.4071 42.7637 28.4071C42.7637 27.8725 42.7637 27.3889 42.7637 26.9053C43.2727 26.9053 43.7309 26.9053 44.2655 26.9053C44.2655 27.3889 44.2655 27.8725 44.2655 28.3816ZM42.7891 31.3598C43.2982 31.3598 43.7564 31.3598 44.24 31.3598C44.24 30.8507 44.24 30.3925 44.24 29.9089C43.7309 29.9089 43.2727 29.9089 42.7891 29.9089C42.7891 30.418 42.7891 30.8762 42.7891 31.3598Z" fill="#8D4CFF"/>
<path d="M42.7636 8.83252C43.2727 8.83252 43.7309 8.83252 44.2654 8.83252C44.2654 9.36706 44.24 9.90161 44.2654 10.4107C44.2654 10.5634 44.3673 10.7671 44.4691 10.8689C46.0473 12.1416 46.2 13.9489 44.8509 15.4762C44.8255 15.5016 44.8 15.5525 44.8254 15.5016C45.1055 16.0616 45.4873 16.5707 45.6145 17.1052C45.9454 18.378 45.5127 19.4216 44.52 20.2616C44.4182 20.4143 44.2909 20.6434 44.2909 20.8725C44.24 21.3562 44.2654 21.8398 44.2654 22.3489C43.7564 22.3489 43.2982 22.3489 42.7891 22.3489C42.7891 21.8652 42.7891 21.4071 42.7891 20.898C42.28 20.898 41.7964 20.898 41.2873 20.898C41.2873 21.3562 41.2873 21.8398 41.2873 22.3489C40.7782 22.3489 40.2945 22.3489 39.7854 22.3489C39.7854 21.8652 39.7854 21.4071 39.7854 20.8725C39.2509 20.8725 38.7673 20.8725 38.2836 20.8725C38.2836 17.3598 38.2836 13.8725 38.2836 10.3598C38.7673 10.3598 39.2509 10.3598 39.76 10.3598C39.76 9.82525 39.76 9.36706 39.76 8.88343C40.2691 8.88343 40.7273 8.88343 41.2364 8.88343C41.2364 9.34161 41.2364 9.82525 41.2364 10.3343C41.7709 10.3343 42.2545 10.3343 42.7636 10.3343C42.7636 9.82525 42.7636 9.34161 42.7636 8.83252ZM39.7854 19.3452C40.88 19.3452 41.9236 19.3962 42.9418 19.3198C43.7818 19.2689 44.2909 18.5562 44.2654 17.7416C44.2145 16.9525 43.6291 16.3671 42.8145 16.3416C41.8727 16.3162 40.9054 16.3416 39.9636 16.3416C39.9127 16.3416 39.8618 16.3671 39.7854 16.3925C39.7854 17.3852 39.7854 18.3525 39.7854 19.3452ZM39.7854 14.8398C40.8291 14.8398 41.7964 14.8398 42.7891 14.8398C43.5782 14.8398 44.1891 14.2543 44.2654 13.4907C44.3418 12.7016 43.8582 11.938 43.0691 11.8871C42 11.8107 40.9054 11.8616 39.8109 11.8616C39.7854 12.8543 39.7854 13.8216 39.7854 14.8398Z" fill="#8D4CFF"/>
<path d="M22.4509 38.8945C21.2036 38.8945 20.1854 37.8764 20.1854 36.6545C20.1854 35.4073 21.2036 34.4146 22.4509 34.4146C23.6982 34.4146 24.7163 35.4327 24.7163 36.6545C24.7163 37.9018 23.6982 38.92 22.4509 38.8945ZM23.2145 36.6545C23.2145 36.2473 22.8582 35.8909 22.4509 35.9164C22.0436 35.9164 21.7382 36.2473 21.7382 36.6545C21.7382 37.0873 22.0436 37.4182 22.4763 37.4182C22.8582 37.4182 23.2145 37.0618 23.2145 36.6545Z" fill="#8D4CFF"/>
<path d="M24.08 22.8071C24.5127 23.0108 24.92 23.2399 25.3527 23.4435C24.8945 24.6144 23.7236 25.378 22.4509 25.378C21.1782 25.378 20.0073 24.5889 19.5491 23.4435C19.9818 23.2399 20.3891 23.0108 20.8218 22.8071C21.6363 24.1817 23.24 24.258 24.08 22.8071Z" fill="#8D4CFF"/>
</svg>
