<svg width="38" height="38" viewBox="0 0 38 38" fill="none" xmlns="http://www.w3.org/2000/svg">
<path d="M33.9587 22.109C34.4078 21.729 34.7706 21.3836 35.1851 21.0899C35.7896 20.6581 36.446 20.6408 36.9815 21.1763C37.5342 21.7117 37.776 22.3854 37.3096 23.1108C37.1887 23.3181 37.0333 23.5081 36.8778 23.6808C34.3215 26.2372 31.7651 28.7936 29.2087 31.3326C28.4315 32.0926 27.6024 32.1272 26.8424 31.4017C25.6678 30.2617 24.5106 29.0872 23.3878 27.8954C22.6278 27.0836 22.6796 26.2545 23.3878 25.6154C24.0615 25.0108 24.8215 25.0799 25.616 25.8572C26.2206 26.4445 26.8251 27.0145 27.3778 27.6363C27.7924 28.1026 28.1206 28.1027 28.5524 27.6536C29.606 26.5827 30.6769 25.5463 31.7651 24.5272C32.1796 24.1299 31.9896 23.8708 31.696 23.5599C30.2969 22.0745 28.5524 21.539 26.5833 21.6599C23.2842 21.8499 20.6242 24.3717 20.3824 27.5326C20.0887 31.1426 22.1269 34.0272 25.4951 34.8045C28.8115 35.5645 32.1278 33.8027 33.3196 30.659C33.8033 29.3981 34.356 28.9836 35.1333 29.2945C35.9969 29.6399 36.1178 30.2963 35.5996 31.5917C33.9069 35.8408 29.1051 38.7254 24.1824 37.0845C23.4569 36.8426 22.6624 36.739 21.9024 36.7217C16.2887 36.6872 10.6751 36.7217 5.06146 36.7045C1.9351 36.6872 1.1751 35.6854 1.9351 32.6281C3.42055 26.7208 6.78874 22.3336 12.3678 19.7427C12.9033 19.5008 13.3178 19.4836 13.8706 19.7599C16.2715 21.0208 18.8451 21.2108 21.4533 20.6236C22.3342 20.4163 23.1115 19.8117 23.9924 19.5354C27.4124 18.4645 30.5387 19.0172 33.2333 21.4699C33.4406 21.6599 33.6651 21.8672 33.9587 22.109Z" fill="#8D4CFF"/>
<path d="M27.9641 9.63807C27.9469 14.7162 23.8359 18.8617 18.8269 18.8272C13.835 18.7926 9.46504 14.4572 9.63777 9.49988C9.82777 4.35261 13.835 0.448975 18.8787 0.448975C23.8359 0.448975 27.9641 4.66352 27.9641 9.63807Z" fill="#8D4CFF"/>
</svg>
