<svg width="46" height="46" viewBox="0 0 46 46" fill="none" xmlns="http://www.w3.org/2000/svg">
<g clipPath="url(#clip0_108_1709)">
<path d="M7.63164 17.229C8.2171 17.3126 8.6771 17.3753 9.158 17.4381C9.158 17.4799 9.17891 17.5217 9.17891 17.5635C7.548 18.5881 5.938 19.6126 4.328 20.6372C4.26528 20.6162 4.22346 20.6163 4.18164 20.5953C4.26528 20.0935 4.28619 19.5708 4.41164 19.069C6.41891 11.019 11.3953 5.89625 19.5289 4.11898C25.4462 2.82261 30.8616 4.28625 35.5871 8.09171C38.5562 10.4753 40.5844 13.5281 41.7553 17.1453C41.8598 17.4381 41.818 17.6053 41.5671 17.7935C40.9607 18.2326 40.3753 18.7135 39.7898 19.1735C39.7689 19.1944 39.7271 19.2153 39.7271 19.2153C36.9044 10.7263 31.1962 6.20989 22.1007 6.37716C15.1589 7.12989 10.4125 10.8099 7.63164 17.229Z" fill="#8D4CFF"/>
<path d="M6.35671 26.0317C7.59034 30.799 10.2249 34.4163 14.4485 36.8417C17.5431 38.619 20.9094 39.309 24.4431 38.9117C31.8867 38.0963 36.6958 32.8272 38.2849 28.1226C37.8876 28.0599 37.5113 27.9972 37.1349 27.9344C37.114 27.8926 37.0931 27.8717 37.0931 27.8299C38.6403 26.8054 40.1667 25.7599 41.714 24.7354C41.7558 24.7563 41.7976 24.7772 41.8394 24.7772C41.7558 25.279 41.7349 25.7808 41.6094 26.2617C39.7067 34.0817 34.8558 39.0581 27.0776 41.1281C24.8403 41.7344 22.5403 41.7763 20.2194 41.4626C15.7867 40.8772 12.0022 38.9744 8.84489 35.8172C6.69125 33.6426 5.14398 31.0499 4.22398 28.1226C4.14034 27.8717 4.18216 27.7254 4.39125 27.5581C5.03943 27.0772 5.66671 26.5544 6.35671 26.0317Z" fill="#8D4CFF"/>
<path d="M24.6313 18.4628C24.6313 19.2992 24.6313 20.0728 24.6313 20.8674C25.2795 20.9092 25.9276 20.9301 26.5549 20.9928C28.1231 21.1183 29.6704 21.2646 31.1758 21.7246C31.5313 21.8292 31.8867 21.9964 32.2213 22.2055C32.5558 22.4146 32.5558 22.7492 32.2213 22.9374C31.7613 23.1883 31.2595 23.3974 30.7367 23.5437C29.4613 23.8783 28.144 24.0246 26.8267 24.1292C26.1995 24.171 25.5722 24.1919 24.9449 24.2337C24.8613 24.2337 24.7567 24.2546 24.6522 24.2755C24.6522 27.2446 24.6522 30.2137 24.6522 33.2037C23.5649 33.2037 22.4985 33.2037 21.3904 33.2037C21.3904 30.2346 21.3904 27.2655 21.3904 24.2546C20.8049 24.2337 20.2404 24.2128 19.6758 24.1501C18.4004 24.0037 17.104 23.8364 15.8286 23.6483C15.1804 23.5437 14.5322 23.3764 13.9467 23.0419C13.424 22.7492 13.424 22.3937 13.9467 22.0801C14.6158 21.6828 15.3686 21.5155 16.1422 21.3901C16.9995 21.2437 17.8776 21.1183 18.7558 21.0346C19.6131 20.951 20.4913 20.9092 21.3904 20.8464C21.3904 20.0728 21.3904 19.2783 21.3904 18.4628C19.7176 18.4628 18.0449 18.4628 16.3513 18.4628C16.3513 18.2955 16.3513 18.1701 16.3513 18.0446C16.3513 17.2083 16.3513 16.3928 16.3513 15.5564C16.3513 15.3683 16.414 15.2846 16.6022 15.2846C20.9095 15.2846 25.1958 15.2846 29.5031 15.2846C29.6285 15.2846 29.754 15.2637 29.754 15.4519C29.754 16.4346 29.754 17.4174 29.754 18.421C27.9976 18.4628 26.3458 18.4628 24.6313 18.4628ZM21.3695 21.3064C21.2649 21.3064 21.1813 21.3064 21.1186 21.3064C20.6167 21.3274 20.094 21.3483 19.5922 21.3692C18.2331 21.4528 16.874 21.5783 15.5567 21.8919C15.264 21.9546 14.9922 22.0801 14.7413 22.2264C14.5113 22.3519 14.5113 22.5401 14.7413 22.6864C14.8876 22.791 15.0549 22.8746 15.2222 22.9164C16.184 23.1046 17.1249 23.3346 18.0867 23.4183C19.3831 23.5437 20.7004 23.6064 22.0176 23.6274C24.5058 23.6901 27.0149 23.6064 29.4822 23.2092C30.0467 23.1255 30.5904 22.9374 31.134 22.7701C31.2804 22.7283 31.4267 22.561 31.4476 22.4355C31.4685 22.3519 31.2595 22.2264 31.134 22.1219C31.1131 22.101 31.0713 22.101 31.0504 22.0801C30.5904 21.9546 30.1513 21.7874 29.6913 21.7246C28.3949 21.5574 27.0776 21.4528 25.7604 21.3274C25.4049 21.2855 25.0286 21.3274 24.6522 21.3274C24.6522 21.8083 24.6522 22.3101 24.6522 22.8119C24.6522 23.0001 24.6104 23.0628 24.4013 23.0628C23.4604 23.0628 22.4986 23.0628 21.5576 23.0628C21.4949 23.0628 21.4531 23.0419 21.3695 23.0419C21.3695 22.4774 21.3695 21.9128 21.3695 21.3064Z" fill="#8D4CFF"/>
</g>
<defs>
<clipPath id="clip0_108_1709">
<rect width="46" height="46" fill="white"/>
</clipPath>
</defs>
</svg>
